<?xml version="1.0" encoding="utf-8"?>
<!-- Generator: Adobe Illustrator 16.0.0, SVG Export Plug-In . SVG Version: 6.00 Build 0)  -->
<!DOCTYPE svg PUBLIC "-//W3C//DTD SVG 1.1//EN" "http://www.w3.org/Graphics/SVG/1.1/DTD/svg11.dtd">
<svg version="1.1" id="圖層_1" xmlns="http://www.w3.org/2000/svg" xmlns:xlink="http://www.w3.org/1999/xlink" x="0px" y="0px"
	 width="934.629px" height="11.568px" viewBox="-499.637 321.689 934.629 11.568"
	 enable-background="new -499.637 321.689 934.629 11.568" xml:space="preserve">
<g>
	<linearGradient id="SVGID_1_" gradientUnits="userSpaceOnUse" x1="-493.5674" y1="317.8999" x2="-493.5674" y2="332.8603">
		<stop  offset="0" style="stop-color:#FFFFFF"/>
		<stop  offset="0.3545" style="stop-color:#FBFCF7"/>
		<stop  offset="0.7407" style="stop-color:#192649"/>
	</linearGradient>
	<path fill="url(#SVGID_1_)" d="M-490.54,327.472l3.041-2.211l-1.163-3.572h-3.76l-1.148,3.533l-1.145-3.533h-3.761l-1.162,3.572
		l3.042,2.211l3.025-2.199L-490.54,327.472z M-492.003,322.257h2.929l0.905,2.789l-2.37,1.725l-2.37-1.725L-492.003,322.257z
		 M-496.595,326.771l-2.37-1.725l0.903-2.789h2.931l0.906,2.789L-496.595,326.771z"/>
	<linearGradient id="SVGID_2_" gradientUnits="userSpaceOnUse" x1="-493.5674" y1="317.8999" x2="-493.5674" y2="332.8603">
		<stop  offset="0" style="stop-color:#FFFFFF"/>
		<stop  offset="0.3545" style="stop-color:#FBFCF7"/>
		<stop  offset="0.7407" style="stop-color:#192649"/>
	</linearGradient>
	<path fill="url(#SVGID_2_)" d="M-493.57,329.673l-3.025-2.201l-3.042,2.211l1.162,3.574h3.761l1.145-3.533l1.148,3.533h3.76
		l1.163-3.574l-3.041-2.211L-493.57,329.673z M-495.131,332.689h-2.931l-0.903-2.789l2.37-1.725l2.37,1.725L-495.131,332.689z
		 M-489.074,332.689h-2.929l-0.906-2.789l2.37-1.725l2.37,1.725L-489.074,332.689z"/>
	<linearGradient id="SVGID_3_" gradientUnits="userSpaceOnUse" x1="-481.4287" y1="317.8999" x2="-481.4287" y2="332.8603">
		<stop  offset="0" style="stop-color:#FFFFFF"/>
		<stop  offset="0.3545" style="stop-color:#FBFCF7"/>
		<stop  offset="0.7407" style="stop-color:#192649"/>
	</linearGradient>
	<path fill="url(#SVGID_3_)" d="M-481.429,325.273l3.028,2.199l3.042-2.211l-1.164-3.572h-3.758l-1.147,3.533l-1.148-3.533h-3.76
		l-1.161,3.572l3.041,2.211L-481.429,325.273z M-479.868,322.257h2.932l0.905,2.789l-2.37,1.725l-2.373-1.725L-479.868,322.257z
		 M-485.925,322.257h2.932l0.908,2.789l-2.373,1.725l-2.372-1.725L-485.925,322.257z"/>
	<linearGradient id="SVGID_4_" gradientUnits="userSpaceOnUse" x1="-481.4287" y1="317.8999" x2="-481.4287" y2="332.8603">
		<stop  offset="0" style="stop-color:#FFFFFF"/>
		<stop  offset="0.3545" style="stop-color:#FBFCF7"/>
		<stop  offset="0.7407" style="stop-color:#192649"/>
	</linearGradient>
	<path fill="url(#SVGID_4_)" d="M-481.429,329.673l-3.029-2.201l-3.041,2.211l1.161,3.574h3.76l1.148-3.533l1.147,3.533h3.758
		l1.164-3.574l-3.042-2.211L-481.429,329.673z M-482.993,332.689h-2.932l-0.905-2.789l2.372-1.725l2.373,1.725L-482.993,332.689z
		 M-476.936,332.689h-2.932l-0.906-2.789l2.373-1.725l2.37,1.725L-476.936,332.689z"/>
	<linearGradient id="SVGID_5_" gradientUnits="userSpaceOnUse" x1="-469.29" y1="317.8999" x2="-469.29" y2="332.8603">
		<stop  offset="0" style="stop-color:#FFFFFF"/>
		<stop  offset="0.3545" style="stop-color:#FBFCF7"/>
		<stop  offset="0.7407" style="stop-color:#192649"/>
	</linearGradient>
	<path fill="url(#SVGID_5_)" d="M-469.292,325.273l3.028,2.199l3.043-2.211l-1.163-3.572h-3.76l-1.148,3.533l-1.146-3.533h-3.761
		l-1.16,3.572l3.04,2.211L-469.292,325.273z M-467.731,322.257h2.935l0.905,2.789l-2.373,1.725l-2.371-1.725L-467.731,322.257z
		 M-473.787,322.257h2.933l0.906,2.789l-2.373,1.725l-2.371-1.725L-473.787,322.257z"/>
	<linearGradient id="SVGID_6_" gradientUnits="userSpaceOnUse" x1="-469.29" y1="317.8999" x2="-469.29" y2="332.8603">
		<stop  offset="0" style="stop-color:#FFFFFF"/>
		<stop  offset="0.3545" style="stop-color:#FBFCF7"/>
		<stop  offset="0.7407" style="stop-color:#192649"/>
	</linearGradient>
	<path fill="url(#SVGID_6_)" d="M-469.292,329.673l-3.027-2.201l-3.04,2.211l1.16,3.574h3.761l1.146-3.533l1.148,3.533h3.76
		l1.163-3.574l-3.043-2.211L-469.292,329.673z M-470.854,332.689h-2.933l-0.904-2.789l2.371-1.725l2.373,1.725L-470.854,332.689z
		 M-464.797,332.689h-2.935l-0.904-2.789l2.371-1.725l2.373,1.725L-464.797,332.689z"/>
	<linearGradient id="SVGID_7_" gradientUnits="userSpaceOnUse" x1="-457.1543" y1="317.8999" x2="-457.1543" y2="332.8603">
		<stop  offset="0" style="stop-color:#FFFFFF"/>
		<stop  offset="0.3545" style="stop-color:#FBFCF7"/>
		<stop  offset="0.7407" style="stop-color:#192649"/>
	</linearGradient>
	<path fill="url(#SVGID_7_)" d="M-457.154,325.273l3.028,2.199l3.039-2.211l-1.159-3.572h-3.758l-1.15,3.533l-1.148-3.533h-3.757
		l-1.161,3.572l3.039,2.211L-457.154,325.273z M-455.593,322.257h2.933l0.906,2.789l-2.373,1.725l-2.372-1.725L-455.593,322.257z
		 M-461.647,322.257h2.932l0.906,2.789l-2.373,1.725l-2.373-1.725L-461.647,322.257z"/>
	<linearGradient id="SVGID_8_" gradientUnits="userSpaceOnUse" x1="-457.1543" y1="317.8999" x2="-457.1543" y2="332.8603">
		<stop  offset="0" style="stop-color:#FFFFFF"/>
		<stop  offset="0.3545" style="stop-color:#FBFCF7"/>
		<stop  offset="0.7407" style="stop-color:#192649"/>
	</linearGradient>
	<path fill="url(#SVGID_8_)" d="M-457.154,329.673l-3.028-2.201l-3.039,2.211l1.161,3.574h3.757l1.148-3.533l1.15,3.533h3.758
		l1.159-3.574l-3.039-2.211L-457.154,329.673z M-458.715,332.689h-2.932l-0.907-2.789l2.373-1.725l2.373,1.725L-458.715,332.689z
		 M-452.66,332.689h-2.933l-0.905-2.789l2.372-1.725l2.373,1.725L-452.66,332.689z"/>
	<linearGradient id="SVGID_9_" gradientUnits="userSpaceOnUse" x1="-445.0176" y1="317.8999" x2="-445.0176" y2="332.8603">
		<stop  offset="0" style="stop-color:#FFFFFF"/>
		<stop  offset="0.3545" style="stop-color:#FBFCF7"/>
		<stop  offset="0.7407" style="stop-color:#192649"/>
	</linearGradient>
	<path fill="url(#SVGID_9_)" d="M-445.015,325.273l3.026,2.199l3.041-2.211l-1.161-3.572h-3.758l-1.148,3.533l-1.148-3.533h-3.76
		l-1.164,3.572l3.042,2.211L-445.015,325.273z M-443.454,322.257h2.932l0.907,2.789l-2.374,1.725l-2.37-1.725L-443.454,322.257z
		 M-449.509,322.257h2.931l0.908,2.789l-2.375,1.725l-2.37-1.725L-449.509,322.257z"/>
	<linearGradient id="SVGID_10_" gradientUnits="userSpaceOnUse" x1="-445.0176" y1="317.8999" x2="-445.0176" y2="332.8603">
		<stop  offset="0" style="stop-color:#FFFFFF"/>
		<stop  offset="0.3545" style="stop-color:#FBFCF7"/>
		<stop  offset="0.7407" style="stop-color:#192649"/>
	</linearGradient>
	<path fill="url(#SVGID_10_)" d="M-445.015,329.673l-3.03-2.201l-3.042,2.211l1.164,3.574h3.76l1.148-3.533l1.148,3.533h3.758
		l1.161-3.574l-3.041-2.211L-445.015,329.673z M-446.579,332.689h-2.931l-0.906-2.789l2.37-1.725l2.375,1.725L-446.579,332.689z
		 M-440.522,332.689h-2.932l-0.905-2.789l2.37-1.725l2.374,1.725L-440.522,332.689z"/>
	<linearGradient id="SVGID_11_" gradientUnits="userSpaceOnUse" x1="-432.8789" y1="317.8999" x2="-432.8789" y2="332.8603">
		<stop  offset="0" style="stop-color:#FFFFFF"/>
		<stop  offset="0.3545" style="stop-color:#FBFCF7"/>
		<stop  offset="0.7407" style="stop-color:#192649"/>
	</linearGradient>
	<path fill="url(#SVGID_11_)" d="M-432.878,325.273l3.028,2.199l3.041-2.211l-1.16-3.572h-3.758l-1.15,3.533l-1.147-3.533h-3.76
		l-1.163,3.572l3.042,2.211L-432.878,325.273z M-431.316,322.257h2.932l0.906,2.789l-2.373,1.725l-2.372-1.725L-431.316,322.257z
		 M-437.372,322.257h2.932l0.906,2.789l-2.373,1.725l-2.372-1.725L-437.372,322.257z"/>
	<linearGradient id="SVGID_12_" gradientUnits="userSpaceOnUse" x1="-432.8789" y1="317.8999" x2="-432.8789" y2="332.8603">
		<stop  offset="0" style="stop-color:#FFFFFF"/>
		<stop  offset="0.3545" style="stop-color:#FBFCF7"/>
		<stop  offset="0.7407" style="stop-color:#192649"/>
	</linearGradient>
	<path fill="url(#SVGID_12_)" d="M-432.878,329.673l-3.027-2.201l-3.042,2.211l1.163,3.574h3.76l1.147-3.533l1.15,3.533h3.758
		l1.16-3.574l-3.041-2.211L-432.878,329.673z M-434.439,332.689h-2.932l-0.906-2.789l2.372-1.725l2.373,1.725L-434.439,332.689z
		 M-428.384,332.689h-2.932l-0.906-2.789l2.372-1.725l2.373,1.725L-428.384,332.689z"/>
	<linearGradient id="SVGID_13_" gradientUnits="userSpaceOnUse" x1="-420.7402" y1="317.8999" x2="-420.7402" y2="332.8603">
		<stop  offset="0" style="stop-color:#FFFFFF"/>
		<stop  offset="0.3545" style="stop-color:#FBFCF7"/>
		<stop  offset="0.7407" style="stop-color:#192649"/>
	</linearGradient>
	<path fill="url(#SVGID_13_)" d="M-420.74,325.273l3.027,2.199l3.042-2.211l-1.162-3.572h-3.76l-1.148,3.533l-1.148-3.533h-3.758
		l-1.163,3.572l3.042,2.211L-420.74,325.273z M-419.177,322.257h2.929l0.908,2.789l-2.373,1.725l-2.37-1.725L-419.177,322.257z
		 M-425.233,322.257h2.93l0.906,2.789l-2.37,1.725l-2.373-1.725L-425.233,322.257z"/>
	<linearGradient id="SVGID_14_" gradientUnits="userSpaceOnUse" x1="-420.7402" y1="317.8999" x2="-420.7402" y2="332.8603">
		<stop  offset="0" style="stop-color:#FFFFFF"/>
		<stop  offset="0.3545" style="stop-color:#FBFCF7"/>
		<stop  offset="0.7407" style="stop-color:#192649"/>
	</linearGradient>
	<path fill="url(#SVGID_14_)" d="M-420.74,329.673l-3.028-2.201l-3.042,2.211l1.163,3.574h3.758l1.148-3.533l1.148,3.533h3.76
		l1.162-3.574l-3.042-2.211L-420.74,329.673z M-422.304,332.689h-2.93l-0.907-2.789l2.373-1.725l2.37,1.725L-422.304,332.689z
		 M-416.248,332.689h-2.929l-0.906-2.789l2.37-1.725l2.373,1.725L-416.248,332.689z"/>
	<linearGradient id="SVGID_15_" gradientUnits="userSpaceOnUse" x1="-408.6016" y1="317.8999" x2="-408.6016" y2="332.8603">
		<stop  offset="0" style="stop-color:#FFFFFF"/>
		<stop  offset="0.3545" style="stop-color:#FBFCF7"/>
		<stop  offset="0.7407" style="stop-color:#192649"/>
	</linearGradient>
	<path fill="url(#SVGID_15_)" d="M-408.602,325.273l3.027,2.199l3.042-2.211l-1.162-3.572h-3.758l-1.149,3.533l-1.15-3.533h-3.758
		l-1.16,3.572l3.042,2.211L-408.602,325.273z M-407.039,322.257h2.929l0.906,2.789l-2.372,1.725l-2.372-1.725L-407.039,322.257z
		 M-413.095,322.257h2.931l0.906,2.789l-2.37,1.725l-2.373-1.725L-413.095,322.257z"/>
	<linearGradient id="SVGID_16_" gradientUnits="userSpaceOnUse" x1="-408.6016" y1="317.8999" x2="-408.6016" y2="332.8603">
		<stop  offset="0" style="stop-color:#FFFFFF"/>
		<stop  offset="0.3545" style="stop-color:#FBFCF7"/>
		<stop  offset="0.7407" style="stop-color:#192649"/>
	</linearGradient>
	<path fill="url(#SVGID_16_)" d="M-408.602,329.673l-3.026-2.201l-3.042,2.211l1.16,3.574h3.758l1.15-3.533l1.149,3.533h3.758
		l1.162-3.574l-3.042-2.211L-408.602,329.673z M-410.165,332.689h-2.931l-0.906-2.789l2.373-1.725l2.37,1.725L-410.165,332.689z
		 M-404.109,332.689h-2.929l-0.908-2.789l2.372-1.725l2.372,1.725L-404.109,332.689z"/>
	<linearGradient id="SVGID_17_" gradientUnits="userSpaceOnUse" x1="-396.4629" y1="317.8999" x2="-396.4629" y2="332.8603">
		<stop  offset="0" style="stop-color:#FFFFFF"/>
		<stop  offset="0.3545" style="stop-color:#FBFCF7"/>
		<stop  offset="0.7407" style="stop-color:#192649"/>
	</linearGradient>
	<path fill="url(#SVGID_17_)" d="M-396.463,325.273l3.027,2.199l3.042-2.211l-1.163-3.572h-3.761l-1.146,3.533l-1.148-3.533h-3.761
		l-1.16,3.572l3.042,2.211L-396.463,325.273z M-394.899,322.257h2.929l0.905,2.789l-2.371,1.725l-2.372-1.725L-394.899,322.257z
		 M-400.958,322.257h2.931l0.906,2.789l-2.37,1.725l-2.373-1.725L-400.958,322.257z"/>
	<linearGradient id="SVGID_18_" gradientUnits="userSpaceOnUse" x1="-396.4629" y1="317.8999" x2="-396.4629" y2="332.8603">
		<stop  offset="0" style="stop-color:#FFFFFF"/>
		<stop  offset="0.3545" style="stop-color:#FBFCF7"/>
		<stop  offset="0.7407" style="stop-color:#192649"/>
	</linearGradient>
	<path fill="url(#SVGID_18_)" d="M-396.463,329.673l-3.028-2.201l-3.042,2.211l1.16,3.574h3.761l1.148-3.533l1.146,3.533h3.761
		l1.163-3.574l-3.042-2.211L-396.463,329.673z M-398.026,332.689h-2.931l-0.906-2.789l2.373-1.725l2.37,1.725L-398.026,332.689z
		 M-391.97,332.689h-2.929l-0.908-2.789l2.372-1.725l2.371,1.725L-391.97,332.689z"/>
	<linearGradient id="SVGID_19_" gradientUnits="userSpaceOnUse" x1="-384.3242" y1="317.8999" x2="-384.3242" y2="332.8603">
		<stop  offset="0" style="stop-color:#FFFFFF"/>
		<stop  offset="0.3545" style="stop-color:#FBFCF7"/>
		<stop  offset="0.7407" style="stop-color:#192649"/>
	</linearGradient>
	<path fill="url(#SVGID_19_)" d="M-384.326,325.273l3.029,2.199l3.042-2.211l-1.163-3.572h-3.759l-1.148,3.533l-1.148-3.533h-3.758
		l-1.161,3.572l3.042,2.211L-384.326,325.273z M-382.763,322.257h2.931l0.906,2.789l-2.372,1.725l-2.374-1.725L-382.763,322.257z
		 M-388.819,322.257h2.932l0.906,2.789l-2.37,1.725l-2.376-1.725L-388.819,322.257z"/>
	<linearGradient id="SVGID_20_" gradientUnits="userSpaceOnUse" x1="-384.3242" y1="317.8999" x2="-384.3242" y2="332.8603">
		<stop  offset="0" style="stop-color:#FFFFFF"/>
		<stop  offset="0.3545" style="stop-color:#FBFCF7"/>
		<stop  offset="0.7407" style="stop-color:#192649"/>
	</linearGradient>
	<path fill="url(#SVGID_20_)" d="M-384.326,329.673l-3.025-2.201l-3.042,2.211l1.161,3.574h3.758l1.148-3.533l1.148,3.533h3.759
		l1.163-3.574l-3.042-2.211L-384.326,329.673z M-385.887,332.689h-2.932l-0.908-2.789l2.376-1.725l2.37,1.725L-385.887,332.689z
		 M-379.832,332.689h-2.931l-0.909-2.789l2.374-1.725l2.372,1.725L-379.832,332.689z"/>
	<linearGradient id="SVGID_21_" gradientUnits="userSpaceOnUse" x1="-372.187" y1="317.8999" x2="-372.187" y2="332.8603">
		<stop  offset="0" style="stop-color:#FFFFFF"/>
		<stop  offset="0.3545" style="stop-color:#FBFCF7"/>
		<stop  offset="0.7407" style="stop-color:#192649"/>
	</linearGradient>
	<path fill="url(#SVGID_21_)" d="M-372.188,325.273l3.03,2.199l3.04-2.211l-1.162-3.572h-3.76l-1.148,3.533l-1.148-3.533h-3.758
		l-1.16,3.572l3.04,2.211L-372.188,325.273z M-370.627,322.257h2.935l0.905,2.789l-2.371,1.725l-2.374-1.725L-370.627,322.257z
		 M-376.683,322.257h2.933l0.906,2.789l-2.373,1.725l-2.373-1.725L-376.683,322.257z"/>
	<linearGradient id="SVGID_22_" gradientUnits="userSpaceOnUse" x1="-372.187" y1="317.8999" x2="-372.187" y2="332.8603">
		<stop  offset="0" style="stop-color:#FFFFFF"/>
		<stop  offset="0.3545" style="stop-color:#FBFCF7"/>
		<stop  offset="0.7407" style="stop-color:#192649"/>
	</linearGradient>
	<path fill="url(#SVGID_22_)" d="M-372.188,329.673l-3.027-2.201l-3.04,2.211l1.16,3.574h3.758l1.148-3.533l1.148,3.533h3.76
		l1.162-3.574l-3.04-2.211L-372.188,329.673z M-373.75,332.689h-2.933l-0.906-2.789l2.373-1.725l2.373,1.725L-373.75,332.689z
		 M-367.693,332.689h-2.935l-0.905-2.789l2.374-1.725l2.371,1.725L-367.693,332.689z"/>
	<linearGradient id="SVGID_23_" gradientUnits="userSpaceOnUse" x1="-360.0503" y1="317.8999" x2="-360.0503" y2="332.8603">
		<stop  offset="0" style="stop-color:#FFFFFF"/>
		<stop  offset="0.3545" style="stop-color:#FBFCF7"/>
		<stop  offset="0.7407" style="stop-color:#192649"/>
	</linearGradient>
	<path fill="url(#SVGID_23_)" d="M-360.049,325.273l3.027,2.199l3.04-2.211l-1.16-3.572h-3.758l-1.148,3.533l-1.148-3.533h-3.758
		l-1.163,3.572l3.042,2.211L-360.049,325.273z M-358.488,322.257h2.932l0.908,2.789l-2.373,1.725l-2.372-1.725L-358.488,322.257z
		 M-364.543,322.257h2.934l0.905,2.789l-2.372,1.725l-2.373-1.725L-364.543,322.257z"/>
	<linearGradient id="SVGID_24_" gradientUnits="userSpaceOnUse" x1="-360.0503" y1="317.8999" x2="-360.0503" y2="332.8603">
		<stop  offset="0" style="stop-color:#FFFFFF"/>
		<stop  offset="0.3545" style="stop-color:#FBFCF7"/>
		<stop  offset="0.7407" style="stop-color:#192649"/>
	</linearGradient>
	<path fill="url(#SVGID_24_)" d="M-360.049,329.673l-3.028-2.201l-3.042,2.211l1.163,3.574h3.758l1.148-3.533l1.148,3.533h3.758
		l1.16-3.574l-3.04-2.211L-360.049,329.673z M-361.61,332.689h-2.934l-0.906-2.789l2.373-1.725l2.372,1.725L-361.61,332.689z
		 M-355.556,332.689h-2.932l-0.905-2.789l2.372-1.725l2.373,1.725L-355.556,332.689z"/>
	<linearGradient id="SVGID_25_" gradientUnits="userSpaceOnUse" x1="-347.9131" y1="317.8999" x2="-347.9131" y2="332.8603">
		<stop  offset="0" style="stop-color:#FFFFFF"/>
		<stop  offset="0.3545" style="stop-color:#FBFCF7"/>
		<stop  offset="0.7407" style="stop-color:#192649"/>
	</linearGradient>
	<path fill="url(#SVGID_25_)" d="M-347.914,325.273l3.03,2.199l3.039-2.211l-1.16-3.572h-3.761l-1.148,3.533l-1.146-3.533h-3.759
		l-1.163,3.572l3.041,2.211L-347.914,325.273z M-346.35,322.257h2.934l0.903,2.789l-2.37,1.725l-2.374-1.725L-346.35,322.257z
		 M-352.405,322.257h2.933l0.904,2.789l-2.374,1.725l-2.37-1.725L-352.405,322.257z"/>
	<linearGradient id="SVGID_26_" gradientUnits="userSpaceOnUse" x1="-347.9131" y1="317.8999" x2="-347.9131" y2="332.8603">
		<stop  offset="0" style="stop-color:#FFFFFF"/>
		<stop  offset="0.3545" style="stop-color:#FBFCF7"/>
		<stop  offset="0.7407" style="stop-color:#192649"/>
	</linearGradient>
	<path fill="url(#SVGID_26_)" d="M-347.914,329.673l-3.028-2.201l-3.041,2.211l1.163,3.574h3.759l1.146-3.533l1.148,3.533h3.761
		l1.16-3.574l-3.039-2.211L-347.914,329.673z M-349.472,332.689h-2.933l-0.906-2.789l2.37-1.725l2.374,1.725L-349.472,332.689z
		 M-343.417,332.689h-2.934l-0.907-2.789l2.374-1.725l2.37,1.725L-343.417,332.689z"/>
	<linearGradient id="SVGID_27_" gradientUnits="userSpaceOnUse" x1="-335.7744" y1="317.8999" x2="-335.7744" y2="332.8603">
		<stop  offset="0" style="stop-color:#FFFFFF"/>
		<stop  offset="0.3545" style="stop-color:#FBFCF7"/>
		<stop  offset="0.7407" style="stop-color:#192649"/>
	</linearGradient>
	<path fill="url(#SVGID_27_)" d="M-335.774,325.273l3.028,2.199l3.041-2.211l-1.161-3.572h-3.76l-1.148,3.533l-1.148-3.533h-3.762
		l-1.16,3.572l3.042,2.211L-335.774,325.273z M-334.21,322.257h2.929l0.908,2.789l-2.372,1.725l-2.371-1.725L-334.21,322.257z
		 M-340.267,322.257h2.932l0.904,2.789l-2.371,1.725l-2.37-1.725L-340.267,322.257z"/>
	<linearGradient id="SVGID_28_" gradientUnits="userSpaceOnUse" x1="-335.7744" y1="317.8999" x2="-335.7744" y2="332.8603">
		<stop  offset="0" style="stop-color:#FFFFFF"/>
		<stop  offset="0.3545" style="stop-color:#FBFCF7"/>
		<stop  offset="0.7407" style="stop-color:#192649"/>
	</linearGradient>
	<path fill="url(#SVGID_28_)" d="M-335.774,329.673l-3.028-2.201l-3.042,2.211l1.16,3.574h3.762l1.148-3.533l1.148,3.533h3.76
		l1.161-3.574l-3.041-2.211L-335.774,329.673z M-337.335,332.689h-2.932l-0.905-2.789l2.37-1.725l2.371,1.725L-337.335,332.689z
		 M-331.282,332.689h-2.929l-0.906-2.789l2.371-1.725l2.372,1.725L-331.282,332.689z"/>
	<linearGradient id="SVGID_29_" gradientUnits="userSpaceOnUse" x1="-323.6357" y1="317.8999" x2="-323.6357" y2="332.8603">
		<stop  offset="0" style="stop-color:#FFFFFF"/>
		<stop  offset="0.3545" style="stop-color:#FBFCF7"/>
		<stop  offset="0.7407" style="stop-color:#192649"/>
	</linearGradient>
	<path fill="url(#SVGID_29_)" d="M-323.637,325.273l3.028,2.199l3.042-2.211l-1.16-3.572h-3.761l-1.149,3.533l-1.15-3.533h-3.754
		l-1.163,3.572l3.041,2.211L-323.637,325.273z M-322.073,322.257h2.933l0.904,2.789l-2.373,1.725l-2.37-1.725L-322.073,322.257z
		 M-328.13,322.257h2.934l0.904,2.789l-2.371,1.725l-2.37-1.725L-328.13,322.257z"/>
	<linearGradient id="SVGID_30_" gradientUnits="userSpaceOnUse" x1="-323.6357" y1="317.8999" x2="-323.6357" y2="332.8603">
		<stop  offset="0" style="stop-color:#FFFFFF"/>
		<stop  offset="0.3545" style="stop-color:#FBFCF7"/>
		<stop  offset="0.7407" style="stop-color:#192649"/>
	</linearGradient>
	<path fill="url(#SVGID_30_)" d="M-323.637,329.673l-3.026-2.201l-3.041,2.211l1.163,3.574h3.754l1.15-3.533l1.149,3.533h3.761
		l1.16-3.574l-3.042-2.211L-323.637,329.673z M-325.197,332.689h-2.934l-0.903-2.789l2.37-1.725l2.371,1.725L-325.197,332.689z
		 M-319.14,332.689h-2.933l-0.906-2.789l2.37-1.725l2.373,1.725L-319.14,332.689z"/>
	<linearGradient id="SVGID_31_" gradientUnits="userSpaceOnUse" x1="-311.4971" y1="317.8999" x2="-311.4971" y2="332.8603">
		<stop  offset="0" style="stop-color:#FFFFFF"/>
		<stop  offset="0.3545" style="stop-color:#FBFCF7"/>
		<stop  offset="0.7407" style="stop-color:#192649"/>
	</linearGradient>
	<path fill="url(#SVGID_31_)" d="M-311.5,325.273l3.03,2.199l3.042-2.211l-1.163-3.572h-3.76l-1.149,3.533l-1.148-3.533h-3.756
		l-1.163,3.572l3.042,2.211L-311.5,325.273z M-309.933,322.257h2.929l0.905,2.789l-2.37,1.725l-2.372-1.725L-309.933,322.257z
		 M-315.994,322.257h2.934l0.906,2.789l-2.371,1.725l-2.373-1.725L-315.994,322.257z"/>
	<linearGradient id="SVGID_32_" gradientUnits="userSpaceOnUse" x1="-311.4971" y1="317.8999" x2="-311.4971" y2="332.8603">
		<stop  offset="0" style="stop-color:#FFFFFF"/>
		<stop  offset="0.3545" style="stop-color:#FBFCF7"/>
		<stop  offset="0.7407" style="stop-color:#192649"/>
	</linearGradient>
	<path fill="url(#SVGID_32_)" d="M-311.5,329.673l-3.025-2.201l-3.042,2.211l1.163,3.574h3.756l1.148-3.533l1.149,3.533h3.76
		l1.163-3.574l-3.042-2.211L-311.5,329.673z M-313.06,332.689h-2.934l-0.904-2.789l2.373-1.725l2.371,1.725L-313.06,332.689z
		 M-307.004,332.689h-2.929l-0.908-2.789l2.372-1.725l2.37,1.725L-307.004,332.689z"/>
	<linearGradient id="SVGID_33_" gradientUnits="userSpaceOnUse" x1="-299.3584" y1="317.8999" x2="-299.3584" y2="332.8603">
		<stop  offset="0" style="stop-color:#FFFFFF"/>
		<stop  offset="0.3545" style="stop-color:#FBFCF7"/>
		<stop  offset="0.7407" style="stop-color:#192649"/>
	</linearGradient>
	<path fill="url(#SVGID_33_)" d="M-299.362,325.273l3.03,2.199l3.042-2.211l-1.163-3.572h-3.759l-1.15,3.533l-1.148-3.533h-3.757
		l-1.16,3.572l3.041,2.211L-299.362,325.273z M-297.798,322.257h2.933l0.904,2.789l-2.37,1.725l-2.374-1.725L-297.798,322.257z
		 M-303.853,322.257h2.931l0.906,2.789l-2.37,1.725l-2.371-1.725L-303.853,322.257z"/>
	<linearGradient id="SVGID_34_" gradientUnits="userSpaceOnUse" x1="-299.3584" y1="317.8999" x2="-299.3584" y2="332.8603">
		<stop  offset="0" style="stop-color:#FFFFFF"/>
		<stop  offset="0.3545" style="stop-color:#FBFCF7"/>
		<stop  offset="0.7407" style="stop-color:#192649"/>
	</linearGradient>
	<path fill="url(#SVGID_34_)" d="M-299.362,329.673l-3.024-2.201l-3.041,2.211l1.16,3.574h3.757l1.148-3.533l1.15,3.533h3.759
		l1.163-3.574l-3.042-2.211L-299.362,329.673z M-300.922,332.689h-2.931l-0.904-2.789l2.371-1.725l2.37,1.725L-300.922,332.689z
		 M-294.866,332.689h-2.933l-0.907-2.789l2.374-1.725l2.37,1.725L-294.866,332.689z"/>
	<linearGradient id="SVGID_35_" gradientUnits="userSpaceOnUse" x1="-287.2202" y1="317.8999" x2="-287.2202" y2="332.8603">
		<stop  offset="0" style="stop-color:#FFFFFF"/>
		<stop  offset="0.3545" style="stop-color:#FBFCF7"/>
		<stop  offset="0.7407" style="stop-color:#192649"/>
	</linearGradient>
	<path fill="url(#SVGID_35_)" d="M-287.222,325.273l3.03,2.199l3.041-2.211l-1.163-3.572h-3.76l-1.148,3.533l-1.148-3.533h-3.759
		l-1.16,3.572l3.037,2.211L-287.222,325.273z M-285.662,322.257h2.935l0.905,2.789l-2.37,1.725l-2.374-1.725L-285.662,322.257z
		 M-291.716,322.257h2.934l0.905,2.789l-2.375,1.725l-2.368-1.725L-291.716,322.257z"/>
	<linearGradient id="SVGID_36_" gradientUnits="userSpaceOnUse" x1="-287.2202" y1="317.8999" x2="-287.2202" y2="332.8603">
		<stop  offset="0" style="stop-color:#FFFFFF"/>
		<stop  offset="0.3545" style="stop-color:#FBFCF7"/>
		<stop  offset="0.7407" style="stop-color:#192649"/>
	</linearGradient>
	<path fill="url(#SVGID_36_)" d="M-287.222,329.673l-3.03-2.201l-3.037,2.211l1.16,3.574h3.759l1.148-3.533l1.148,3.533h3.76
		l1.163-3.574l-3.041-2.211L-287.222,329.673z M-288.783,332.689h-2.934l-0.904-2.789l2.368-1.725l2.375,1.725L-288.783,332.689z
		 M-282.727,332.689h-2.935l-0.904-2.789l2.374-1.725l2.37,1.725L-282.727,332.689z"/>
	<linearGradient id="SVGID_37_" gradientUnits="userSpaceOnUse" x1="-275.0825" y1="317.8999" x2="-275.0825" y2="332.8603">
		<stop  offset="0" style="stop-color:#FFFFFF"/>
		<stop  offset="0.3545" style="stop-color:#FBFCF7"/>
		<stop  offset="0.7407" style="stop-color:#192649"/>
	</linearGradient>
	<path fill="url(#SVGID_37_)" d="M-275.084,325.273l3.03,2.199l3.04-2.211l-1.162-3.572h-3.757l-1.151,3.533l-1.148-3.533h-3.757
		l-1.161,3.572l3.038,2.211L-275.084,325.273z M-273.522,322.257h2.931l0.907,2.789l-2.37,1.725l-2.374-1.725L-273.522,322.257z
		 M-279.578,322.257h2.933l0.907,2.789l-2.375,1.725l-2.372-1.725L-279.578,322.257z"/>
	<linearGradient id="SVGID_38_" gradientUnits="userSpaceOnUse" x1="-275.0825" y1="317.8999" x2="-275.0825" y2="332.8603">
		<stop  offset="0" style="stop-color:#FFFFFF"/>
		<stop  offset="0.3545" style="stop-color:#FBFCF7"/>
		<stop  offset="0.7407" style="stop-color:#192649"/>
	</linearGradient>
	<path fill="url(#SVGID_38_)" d="M-275.084,329.673l-3.028-2.201l-3.038,2.211l1.161,3.574h3.757l1.148-3.533l1.151,3.533h3.757
		l1.162-3.574l-3.04-2.211L-275.084,329.673z M-276.645,332.689h-2.933l-0.907-2.789l2.372-1.725l2.375,1.725L-276.645,332.689z
		 M-270.591,332.689h-2.931l-0.906-2.789l2.374-1.725l2.37,1.725L-270.591,332.689z"/>
	<linearGradient id="SVGID_39_" gradientUnits="userSpaceOnUse" x1="-262.9448" y1="317.8999" x2="-262.9448" y2="332.8603">
		<stop  offset="0" style="stop-color:#FFFFFF"/>
		<stop  offset="0.3545" style="stop-color:#FBFCF7"/>
		<stop  offset="0.7407" style="stop-color:#192649"/>
	</linearGradient>
	<path fill="url(#SVGID_39_)" d="M-262.945,325.273l3.026,2.199l3.043-2.211l-1.161-3.572h-3.76l-1.148,3.533l-1.148-3.533h-3.761
		l-1.16,3.572l3.039,2.211L-262.945,325.273z M-261.384,322.257h2.934l0.906,2.789l-2.374,1.725l-2.37-1.725L-261.384,322.257z
		 M-267.439,322.257h2.934l0.904,2.789l-2.374,1.725l-2.37-1.725L-267.439,322.257z"/>
	<linearGradient id="SVGID_40_" gradientUnits="userSpaceOnUse" x1="-262.9448" y1="317.8999" x2="-262.9448" y2="332.8603">
		<stop  offset="0" style="stop-color:#FFFFFF"/>
		<stop  offset="0.3545" style="stop-color:#FBFCF7"/>
		<stop  offset="0.7407" style="stop-color:#192649"/>
	</linearGradient>
	<path fill="url(#SVGID_40_)" d="M-262.945,329.673l-3.03-2.201l-3.039,2.211l1.16,3.574h3.761l1.148-3.533l1.148,3.533h3.76
		l1.161-3.574l-3.043-2.211L-262.945,329.673z M-264.505,332.689h-2.934l-0.906-2.789l2.37-1.725l2.374,1.725L-264.505,332.689z
		 M-258.451,332.689h-2.934l-0.904-2.789l2.37-1.725l2.374,1.725L-258.451,332.689z"/>
	<linearGradient id="SVGID_41_" gradientUnits="userSpaceOnUse" x1="-250.8076" y1="317.8999" x2="-250.8076" y2="332.8603">
		<stop  offset="0" style="stop-color:#FFFFFF"/>
		<stop  offset="0.3545" style="stop-color:#FBFCF7"/>
		<stop  offset="0.7407" style="stop-color:#192649"/>
	</linearGradient>
	<path fill="url(#SVGID_41_)" d="M-250.807,325.273l3.026,2.199l3.041-2.211l-1.16-3.572h-3.757l-1.15,3.533l-1.148-3.533h-3.76
		l-1.16,3.572l3.04,2.211L-250.807,325.273z M-249.248,322.257h2.934l0.905,2.789l-2.372,1.725l-2.37-1.725L-249.248,322.257z
		 M-255.3,322.257h2.93l0.909,2.789l-2.374,1.725l-2.372-1.725L-255.3,322.257z"/>
	<linearGradient id="SVGID_42_" gradientUnits="userSpaceOnUse" x1="-250.8076" y1="317.8999" x2="-250.8076" y2="332.8603">
		<stop  offset="0" style="stop-color:#FFFFFF"/>
		<stop  offset="0.3545" style="stop-color:#FBFCF7"/>
		<stop  offset="0.7407" style="stop-color:#192649"/>
	</linearGradient>
	<path fill="url(#SVGID_42_)" d="M-250.807,329.673l-3.028-2.201l-3.04,2.211l1.16,3.574h3.76l1.148-3.533l1.15,3.533h3.757
		l1.16-3.574l-3.041-2.211L-250.807,329.673z M-252.371,332.689h-2.93l-0.907-2.789l2.372-1.725l2.374,1.725L-252.371,332.689z
		 M-246.314,332.689h-2.934l-0.903-2.789l2.37-1.725l2.372,1.725L-246.314,332.689z"/>
	<linearGradient id="SVGID_43_" gradientUnits="userSpaceOnUse" x1="-238.6699" y1="317.8999" x2="-238.6699" y2="332.8603">
		<stop  offset="0" style="stop-color:#FFFFFF"/>
		<stop  offset="0.3545" style="stop-color:#FBFCF7"/>
		<stop  offset="0.7407" style="stop-color:#192649"/>
	</linearGradient>
	<path fill="url(#SVGID_43_)" d="M-238.67,325.273l3.029,2.199l3.041-2.211l-1.161-3.572h-3.761l-1.148,3.533l-1.148-3.533h-3.758
		l-1.163,3.572l3.042,2.211L-238.67,325.273z M-237.109,322.257h2.935l0.904,2.789l-2.371,1.725l-2.372-1.725L-237.109,322.257z
		 M-243.164,322.257h2.93l0.909,2.789l-2.373,1.725l-2.373-1.725L-243.164,322.257z"/>
	<linearGradient id="SVGID_44_" gradientUnits="userSpaceOnUse" x1="-238.6699" y1="317.8999" x2="-238.6699" y2="332.8603">
		<stop  offset="0" style="stop-color:#FFFFFF"/>
		<stop  offset="0.3545" style="stop-color:#FBFCF7"/>
		<stop  offset="0.7407" style="stop-color:#192649"/>
	</linearGradient>
	<path fill="url(#SVGID_44_)" d="M-238.67,329.673l-3.027-2.201l-3.042,2.211l1.163,3.574h3.758l1.148-3.533l1.148,3.533h3.761
		l1.161-3.574l-3.041-2.211L-238.67,329.673z M-240.234,332.689h-2.93l-0.907-2.789l2.373-1.725l2.373,1.725L-240.234,332.689z
		 M-234.174,332.689h-2.935l-0.904-2.789l2.372-1.725l2.371,1.725L-234.174,332.689z"/>
	<linearGradient id="SVGID_45_" gradientUnits="userSpaceOnUse" x1="-226.5313" y1="317.8999" x2="-226.5313" y2="332.8603">
		<stop  offset="0" style="stop-color:#FFFFFF"/>
		<stop  offset="0.3545" style="stop-color:#FBFCF7"/>
		<stop  offset="0.7407" style="stop-color:#192649"/>
	</linearGradient>
	<path fill="url(#SVGID_45_)" d="M-226.532,325.273l3.028,2.199l3.041-2.211l-1.162-3.572h-3.759l-1.148,3.533l-1.149-3.533h-3.759
		l-1.16,3.572l3.042,2.211L-226.532,325.273z M-224.971,322.257h2.935l0.906,2.789l-2.373,1.725l-2.373-1.725L-224.971,322.257z
		 M-231.024,322.257h2.93l0.906,2.789l-2.37,1.725l-2.373-1.725L-231.024,322.257z"/>
	<linearGradient id="SVGID_46_" gradientUnits="userSpaceOnUse" x1="-226.5313" y1="317.8999" x2="-226.5313" y2="332.8603">
		<stop  offset="0" style="stop-color:#FFFFFF"/>
		<stop  offset="0.3545" style="stop-color:#FBFCF7"/>
		<stop  offset="0.7407" style="stop-color:#192649"/>
	</linearGradient>
	<path fill="url(#SVGID_46_)" d="M-226.532,329.673l-3.026-2.201l-3.042,2.211l1.16,3.574h3.759l1.149-3.533l1.148,3.533h3.759
		l1.162-3.574l-3.041-2.211L-226.532,329.673z M-228.094,332.689h-2.93l-0.907-2.789l2.373-1.725l2.37,1.725L-228.094,332.689z
		 M-222.037,332.689h-2.935l-0.905-2.789l2.373-1.725l2.373,1.725L-222.037,332.689z"/>
	<linearGradient id="SVGID_47_" gradientUnits="userSpaceOnUse" x1="-214.3931" y1="317.8999" x2="-214.3931" y2="332.8603">
		<stop  offset="0" style="stop-color:#FFFFFF"/>
		<stop  offset="0.3545" style="stop-color:#FBFCF7"/>
		<stop  offset="0.7407" style="stop-color:#192649"/>
	</linearGradient>
	<path fill="url(#SVGID_47_)" d="M-214.396,325.273l3.029,2.199l3.043-2.211l-1.164-3.572h-3.758l-1.15,3.533l-1.148-3.533h-3.758
		l-1.16,3.572l3.042,2.211L-214.396,325.273z M-212.832,322.257h2.932l0.905,2.789l-2.372,1.725l-2.37-1.725L-212.832,322.257z
		 M-218.887,322.257h2.93l0.907,2.789l-2.37,1.725l-2.376-1.725L-218.887,322.257z"/>
	<linearGradient id="SVGID_48_" gradientUnits="userSpaceOnUse" x1="-214.3931" y1="317.8999" x2="-214.3931" y2="332.8603">
		<stop  offset="0" style="stop-color:#FFFFFF"/>
		<stop  offset="0.3545" style="stop-color:#FBFCF7"/>
		<stop  offset="0.7407" style="stop-color:#192649"/>
	</linearGradient>
	<path fill="url(#SVGID_48_)" d="M-214.396,329.673l-3.024-2.201l-3.042,2.211l1.16,3.574h3.758l1.148-3.533l1.15,3.533h3.758
		l1.164-3.574l-3.043-2.211L-214.396,329.673z M-215.958,332.689h-2.93l-0.909-2.789l2.376-1.725l2.37,1.725L-215.958,332.689z
		 M-209.9,332.689h-2.932l-0.905-2.789l2.37-1.725l2.372,1.725L-209.9,332.689z"/>
	<linearGradient id="SVGID_49_" gradientUnits="userSpaceOnUse" x1="-202.2559" y1="317.8999" x2="-202.2559" y2="332.8603">
		<stop  offset="0" style="stop-color:#FFFFFF"/>
		<stop  offset="0.3545" style="stop-color:#FBFCF7"/>
		<stop  offset="0.7407" style="stop-color:#192649"/>
	</linearGradient>
	<path fill="url(#SVGID_49_)" d="M-202.256,325.273l3.027,2.199l3.041-2.211l-1.16-3.572h-3.758l-1.15,3.533l-1.148-3.533h-3.758
		l-1.161,3.572l3.043,2.211L-202.256,325.273z M-200.694,322.257h2.934l0.906,2.789l-2.375,1.725l-2.371-1.725L-200.694,322.257z
		 M-206.748,322.257h2.931l0.906,2.789l-2.37,1.725l-2.373-1.725L-206.748,322.257z"/>
	<linearGradient id="SVGID_50_" gradientUnits="userSpaceOnUse" x1="-202.2559" y1="317.8999" x2="-202.2559" y2="332.8603">
		<stop  offset="0" style="stop-color:#FFFFFF"/>
		<stop  offset="0.3545" style="stop-color:#FBFCF7"/>
		<stop  offset="0.7407" style="stop-color:#192649"/>
	</linearGradient>
	<path fill="url(#SVGID_50_)" d="M-202.256,329.673l-3.024-2.201l-3.043,2.211l1.161,3.574h3.758l1.148-3.533l1.15,3.533h3.758
		l1.16-3.574l-3.041-2.211L-202.256,329.673z M-203.817,332.689h-2.931l-0.906-2.789l2.373-1.725l2.37,1.725L-203.817,332.689z
		 M-197.76,332.689h-2.934l-0.906-2.789l2.371-1.725l2.375,1.725L-197.76,332.689z"/>
	<linearGradient id="SVGID_51_" gradientUnits="userSpaceOnUse" x1="-190.1191" y1="317.8999" x2="-190.1191" y2="332.8603">
		<stop  offset="0" style="stop-color:#FFFFFF"/>
		<stop  offset="0.3545" style="stop-color:#FBFCF7"/>
		<stop  offset="0.7407" style="stop-color:#192649"/>
	</linearGradient>
	<path fill="url(#SVGID_51_)" d="M-190.117,325.273l3.026,2.199l3.04-2.211l-1.16-3.572h-3.758l-1.148,3.533l-1.148-3.533h-3.759
		l-1.164,3.572l3.041,2.211L-190.117,325.273z M-188.556,322.257h2.935l0.905,2.789l-2.374,1.725l-2.37-1.725L-188.556,322.257z
		 M-194.611,322.257h2.929l0.91,2.789l-2.375,1.725l-2.37-1.725L-194.611,322.257z"/>
	<linearGradient id="SVGID_52_" gradientUnits="userSpaceOnUse" x1="-190.1191" y1="317.8999" x2="-190.1191" y2="332.8603">
		<stop  offset="0" style="stop-color:#FFFFFF"/>
		<stop  offset="0.3545" style="stop-color:#FBFCF7"/>
		<stop  offset="0.7407" style="stop-color:#192649"/>
	</linearGradient>
	<path fill="url(#SVGID_52_)" d="M-190.117,329.673l-3.03-2.201l-3.041,2.211l1.164,3.574h3.759l1.148-3.533l1.148,3.533h3.758
		l1.16-3.574l-3.04-2.211L-190.117,329.673z M-191.682,332.689h-2.929l-0.906-2.789l2.37-1.725l2.375,1.725L-191.682,332.689z
		 M-185.622,332.689h-2.935l-0.904-2.789l2.37-1.725l2.374,1.725L-185.622,332.689z"/>
	<linearGradient id="SVGID_53_" gradientUnits="userSpaceOnUse" x1="-177.9805" y1="317.8999" x2="-177.9805" y2="332.8603">
		<stop  offset="0" style="stop-color:#FFFFFF"/>
		<stop  offset="0.3545" style="stop-color:#FBFCF7"/>
		<stop  offset="0.7407" style="stop-color:#192649"/>
	</linearGradient>
	<path fill="url(#SVGID_53_)" d="M-177.977,325.273l3.025,2.199l3.041-2.211l-1.161-3.572h-3.757l-1.148,3.533l-1.15-3.533h-3.757
		l-1.166,3.572l3.043,2.211L-177.977,325.273z M-176.417,322.257h2.93l0.91,2.789l-2.375,1.725l-2.372-1.725L-176.417,322.257z
		 M-182.473,322.257h2.934l0.902,2.789l-2.37,1.725l-2.371-1.725L-182.473,322.257z"/>
	<linearGradient id="SVGID_54_" gradientUnits="userSpaceOnUse" x1="-177.9805" y1="317.8999" x2="-177.9805" y2="332.8603">
		<stop  offset="0" style="stop-color:#FFFFFF"/>
		<stop  offset="0.3545" style="stop-color:#FBFCF7"/>
		<stop  offset="0.7407" style="stop-color:#192649"/>
	</linearGradient>
	<path fill="url(#SVGID_54_)" d="M-177.977,329.673l-3.03-2.201l-3.043,2.211l1.166,3.574h3.757l1.15-3.533l1.148,3.533h3.757
		l1.161-3.574l-3.041-2.211L-177.977,329.673z M-179.54,332.689h-2.934l-0.905-2.789l2.371-1.725l2.37,1.725L-179.54,332.689z
		 M-173.487,332.689h-2.93l-0.907-2.789l2.372-1.725l2.375,1.725L-173.487,332.689z"/>
	<linearGradient id="SVGID_55_" gradientUnits="userSpaceOnUse" x1="-165.8418" y1="317.8999" x2="-165.8418" y2="332.8603">
		<stop  offset="0" style="stop-color:#FFFFFF"/>
		<stop  offset="0.3545" style="stop-color:#FBFCF7"/>
		<stop  offset="0.7407" style="stop-color:#192649"/>
	</linearGradient>
	<path fill="url(#SVGID_55_)" d="M-165.839,325.273l3.024,2.199l3.042-2.211l-1.16-3.572h-3.762l-1.145,3.533l-1.148-3.533h-3.763
		l-1.16,3.572l3.041,2.211L-165.839,325.273z M-164.279,322.257h2.93l0.906,2.789l-2.372,1.725l-2.37-1.725L-164.279,322.257z
		 M-170.335,322.257h2.931l0.905,2.789l-2.37,1.725l-2.37-1.725L-170.335,322.257z"/>
	<linearGradient id="SVGID_56_" gradientUnits="userSpaceOnUse" x1="-165.8418" y1="317.8999" x2="-165.8418" y2="332.8603">
		<stop  offset="0" style="stop-color:#FFFFFF"/>
		<stop  offset="0.3545" style="stop-color:#FBFCF7"/>
		<stop  offset="0.7407" style="stop-color:#192649"/>
	</linearGradient>
	<path fill="url(#SVGID_56_)" d="M-165.839,329.673l-3.03-2.201l-3.041,2.211l1.16,3.574h3.763l1.148-3.533l1.145,3.533h3.762
		l1.16-3.574l-3.042-2.211L-165.839,329.673z M-167.405,332.689h-2.931l-0.904-2.789l2.37-1.725l2.37,1.725L-167.405,332.689z
		 M-161.349,332.689h-2.93l-0.906-2.789l2.37-1.725l2.372,1.725L-161.349,332.689z"/>
	<linearGradient id="SVGID_57_" gradientUnits="userSpaceOnUse" x1="-153.7036" y1="317.8999" x2="-153.7036" y2="332.8603">
		<stop  offset="0" style="stop-color:#FFFFFF"/>
		<stop  offset="0.3545" style="stop-color:#FBFCF7"/>
		<stop  offset="0.7407" style="stop-color:#192649"/>
	</linearGradient>
	<path fill="url(#SVGID_57_)" d="M-153.706,325.273l3.03,2.199l3.041-2.211l-1.16-3.572h-3.762l-1.149,3.533l-1.148-3.533h-3.758
		l-1.161,3.572l3.043,2.211L-153.706,325.273z M-152.139,322.257h2.93l0.904,2.789l-2.37,1.725l-2.374-1.725L-152.139,322.257z
		 M-158.196,322.257h2.93l0.906,2.789l-2.37,1.725l-2.376-1.725L-158.196,322.257z"/>
	<linearGradient id="SVGID_58_" gradientUnits="userSpaceOnUse" x1="-153.7036" y1="317.8999" x2="-153.7036" y2="332.8603">
		<stop  offset="0" style="stop-color:#FFFFFF"/>
		<stop  offset="0.3545" style="stop-color:#FBFCF7"/>
		<stop  offset="0.7407" style="stop-color:#192649"/>
	</linearGradient>
	<path fill="url(#SVGID_58_)" d="M-153.706,329.673l-3.024-2.201l-3.043,2.211l1.161,3.574h3.758l1.148-3.533l1.149,3.533h3.762
		l1.16-3.574l-3.041-2.211L-153.706,329.673z M-155.266,332.689h-2.93l-0.91-2.789l2.376-1.725l2.37,1.725L-155.266,332.689z
		 M-149.209,332.689h-2.93l-0.91-2.789l2.374-1.725l2.37,1.725L-149.209,332.689z"/>
	<linearGradient id="SVGID_59_" gradientUnits="userSpaceOnUse" x1="-141.5649" y1="317.8999" x2="-141.5649" y2="332.8603">
		<stop  offset="0" style="stop-color:#FFFFFF"/>
		<stop  offset="0.3545" style="stop-color:#FBFCF7"/>
		<stop  offset="0.7407" style="stop-color:#192649"/>
	</linearGradient>
	<path fill="url(#SVGID_59_)" d="M-141.568,325.273l3.03,2.199l3.042-2.211l-1.16-3.572h-3.762l-1.15,3.533l-1.148-3.533h-3.757
		l-1.161,3.572l3.042,2.211L-141.568,325.273z M-140.001,322.257h2.93l0.905,2.789l-2.371,1.725l-2.374-1.725L-140.001,322.257z
		 M-146.06,322.257h2.932l0.907,2.789l-2.371,1.725l-2.376-1.725L-146.06,322.257z"/>
	<linearGradient id="SVGID_60_" gradientUnits="userSpaceOnUse" x1="-141.5649" y1="317.8999" x2="-141.5649" y2="332.8603">
		<stop  offset="0" style="stop-color:#FFFFFF"/>
		<stop  offset="0.3545" style="stop-color:#FBFCF7"/>
		<stop  offset="0.7407" style="stop-color:#192649"/>
	</linearGradient>
	<path fill="url(#SVGID_60_)" d="M-141.568,329.673l-3.024-2.201l-3.042,2.211l1.161,3.574h3.757l1.148-3.533l1.15,3.533h3.762
		l1.16-3.574l-3.042-2.211L-141.568,329.673z M-143.128,332.689h-2.932l-0.908-2.789l2.376-1.725l2.371,1.725L-143.128,332.689z
		 M-137.072,332.689h-2.93l-0.91-2.789l2.374-1.725l2.371,1.725L-137.072,332.689z"/>
	<linearGradient id="SVGID_61_" gradientUnits="userSpaceOnUse" x1="-129.4282" y1="317.8999" x2="-129.4282" y2="332.8603">
		<stop  offset="0" style="stop-color:#FFFFFF"/>
		<stop  offset="0.3545" style="stop-color:#FBFCF7"/>
		<stop  offset="0.7407" style="stop-color:#192649"/>
	</linearGradient>
	<path fill="url(#SVGID_61_)" d="M-129.428,325.273l3.03,2.199l3.037-2.211l-1.16-3.572h-3.759l-1.148,3.533l-1.148-3.533h-3.758
		l-1.161,3.572l3.042,2.211L-129.428,325.273z M-127.866,322.257h2.934l0.904,2.789l-2.37,1.725l-2.375-1.725L-127.866,322.257z
		 M-133.923,322.257h2.936l0.905,2.789l-2.371,1.725l-2.375-1.725L-133.923,322.257z"/>
	<linearGradient id="SVGID_62_" gradientUnits="userSpaceOnUse" x1="-129.4282" y1="317.8999" x2="-129.4282" y2="332.8603">
		<stop  offset="0" style="stop-color:#FFFFFF"/>
		<stop  offset="0.3545" style="stop-color:#FBFCF7"/>
		<stop  offset="0.7407" style="stop-color:#192649"/>
	</linearGradient>
	<path fill="url(#SVGID_62_)" d="M-129.428,329.673l-3.025-2.201l-3.042,2.211l1.161,3.574h3.758l1.148-3.533l1.148,3.533h3.759
		l1.16-3.574l-3.037-2.211L-129.428,329.673z M-130.988,332.689h-2.936l-0.905-2.789l2.375-1.725l2.371,1.725L-130.988,332.689z
		 M-124.932,332.689h-2.934l-0.907-2.789l2.375-1.725l2.37,1.725L-124.932,332.689z"/>
	<linearGradient id="SVGID_63_" gradientUnits="userSpaceOnUse" x1="-117.2896" y1="317.8999" x2="-117.2896" y2="332.8603">
		<stop  offset="0" style="stop-color:#FFFFFF"/>
		<stop  offset="0.3545" style="stop-color:#FBFCF7"/>
		<stop  offset="0.7407" style="stop-color:#192649"/>
	</linearGradient>
	<path fill="url(#SVGID_63_)" d="M-117.291,325.273l3.03,2.199l3.042-2.211l-1.165-3.572h-3.757l-1.15,3.533l-1.148-3.533h-3.757
		l-1.165,3.572l3.046,2.211L-117.291,325.273z M-115.728,322.257h2.934l0.905,2.789l-2.371,1.725l-2.375-1.725L-115.728,322.257z
		 M-121.785,322.257h2.935l0.905,2.789l-2.37,1.725l-2.376-1.725L-121.785,322.257z"/>
	<linearGradient id="SVGID_64_" gradientUnits="userSpaceOnUse" x1="-117.2896" y1="317.8999" x2="-117.2896" y2="332.8603">
		<stop  offset="0" style="stop-color:#FFFFFF"/>
		<stop  offset="0.3545" style="stop-color:#FBFCF7"/>
		<stop  offset="0.7407" style="stop-color:#192649"/>
	</linearGradient>
	<path fill="url(#SVGID_64_)" d="M-117.291,329.673l-3.024-2.201l-3.046,2.211l1.165,3.574h3.757l1.148-3.533l1.15,3.533h3.757
		l1.165-3.574l-3.042-2.211L-117.291,329.673z M-118.85,332.689h-2.935l-0.906-2.789l2.376-1.725l2.37,1.725L-118.85,332.689z
		 M-112.794,332.689h-2.934l-0.907-2.789l2.375-1.725l2.371,1.725L-112.794,332.689z"/>
	<linearGradient id="SVGID_65_" gradientUnits="userSpaceOnUse" x1="-105.1489" y1="317.8999" x2="-105.1489" y2="332.8603">
		<stop  offset="0" style="stop-color:#FFFFFF"/>
		<stop  offset="0.3545" style="stop-color:#FBFCF7"/>
		<stop  offset="0.7407" style="stop-color:#192649"/>
	</linearGradient>
	<path fill="url(#SVGID_65_)" d="M-105.154,325.273l3.03,2.199l3.044-2.211l-1.163-3.572h-3.763l-1.148,3.533l-1.143-3.533h-3.761
		l-1.161,3.572l3.04,2.211L-105.154,325.273z M-103.585,322.257h2.928l0.907,2.789l-2.373,1.725l-2.368-1.725L-103.585,322.257z
		 M-109.644,322.257h2.931l0.908,2.789l-2.373,1.725l-2.368-1.725L-109.644,322.257z"/>
	<linearGradient id="SVGID_66_" gradientUnits="userSpaceOnUse" x1="-105.1489" y1="317.8999" x2="-105.1489" y2="332.8603">
		<stop  offset="0" style="stop-color:#FFFFFF"/>
		<stop  offset="0.3545" style="stop-color:#FBFCF7"/>
		<stop  offset="0.7407" style="stop-color:#192649"/>
	</linearGradient>
	<path fill="url(#SVGID_66_)" d="M-105.154,329.673l-3.024-2.201l-3.04,2.211l1.161,3.574h3.761l1.143-3.533l1.148,3.533h3.763
		l1.163-3.574l-3.044-2.211L-105.154,329.673z M-106.713,332.689h-2.931l-0.902-2.789l2.368-1.725l2.373,1.725L-106.713,332.689z
		 M-100.658,332.689h-2.928l-0.906-2.789l2.368-1.725l2.373,1.725L-100.658,332.689z"/>
	<linearGradient id="SVGID_67_" gradientUnits="userSpaceOnUse" x1="-93.0103" y1="317.8999" x2="-93.0103" y2="332.8603">
		<stop  offset="0" style="stop-color:#FFFFFF"/>
		<stop  offset="0.3545" style="stop-color:#FBFCF7"/>
		<stop  offset="0.7407" style="stop-color:#192649"/>
	</linearGradient>
	<path fill="url(#SVGID_67_)" d="M-93.009,325.273l3.025,2.199l3.043-2.211l-1.165-3.572h-3.761l-1.143,3.533l-1.149-3.533h-3.762
		l-1.159,3.572l3.039,2.211L-93.009,325.273z M-91.451,322.257h2.931l0.909,2.789l-2.373,1.725l-2.373-1.725L-91.451,322.257z
		 M-97.507,322.257h2.933l0.908,2.789l-2.374,1.725l-2.373-1.725L-97.507,322.257z"/>
	<linearGradient id="SVGID_68_" gradientUnits="userSpaceOnUse" x1="-93.0103" y1="317.8999" x2="-93.0103" y2="332.8603">
		<stop  offset="0" style="stop-color:#FFFFFF"/>
		<stop  offset="0.3545" style="stop-color:#FBFCF7"/>
		<stop  offset="0.7407" style="stop-color:#192649"/>
	</linearGradient>
	<path fill="url(#SVGID_68_)" d="M-93.009,329.673l-3.031-2.201l-3.039,2.211l1.159,3.574h3.762l1.149-3.533l1.143,3.533h3.761
		l1.165-3.574l-3.043-2.211L-93.009,329.673z M-94.575,332.689h-2.933l-0.906-2.789l2.373-1.725l2.374,1.725L-94.575,332.689z
		 M-88.52,332.689h-2.931l-0.906-2.789l2.373-1.725l2.373,1.725L-88.52,332.689z"/>
	<linearGradient id="SVGID_69_" gradientUnits="userSpaceOnUse" x1="-80.8711" y1="317.8999" x2="-80.8711" y2="332.8603">
		<stop  offset="0" style="stop-color:#FFFFFF"/>
		<stop  offset="0.3545" style="stop-color:#FBFCF7"/>
		<stop  offset="0.7407" style="stop-color:#192649"/>
	</linearGradient>
	<path fill="url(#SVGID_69_)" d="M-80.875,325.273l3.027,2.199l3.046-2.211l-1.165-3.572h-3.762l-1.146,3.533l-1.145-3.533h-3.764
		l-1.158,3.572l3.038,2.211L-80.875,325.273z M-79.314,322.257h2.934l0.906,2.789l-2.373,1.725l-2.373-1.725L-79.314,322.257z
		 M-85.369,322.257h2.933l0.906,2.789l-2.373,1.725l-2.372-1.725L-85.369,322.257z"/>
	<linearGradient id="SVGID_70_" gradientUnits="userSpaceOnUse" x1="-80.8711" y1="317.8999" x2="-80.8711" y2="332.8603">
		<stop  offset="0" style="stop-color:#FFFFFF"/>
		<stop  offset="0.3545" style="stop-color:#FBFCF7"/>
		<stop  offset="0.7407" style="stop-color:#192649"/>
	</linearGradient>
	<path fill="url(#SVGID_70_)" d="M-80.875,329.673l-3.028-2.201l-3.038,2.211l1.158,3.574h3.764l1.145-3.533l1.146,3.533h3.762
		l1.165-3.574l-3.046-2.211L-80.875,329.673z M-82.436,332.689h-2.933l-0.906-2.789l2.372-1.725l2.373,1.725L-82.436,332.689z
		 M-76.38,332.689h-2.934l-0.906-2.789l2.373-1.725l2.373,1.725L-76.38,332.689z"/>
	<linearGradient id="SVGID_71_" gradientUnits="userSpaceOnUse" x1="-68.7344" y1="317.8999" x2="-68.7344" y2="332.8603">
		<stop  offset="0" style="stop-color:#FFFFFF"/>
		<stop  offset="0.3545" style="stop-color:#FBFCF7"/>
		<stop  offset="0.7407" style="stop-color:#192649"/>
	</linearGradient>
	<path fill="url(#SVGID_71_)" d="M-68.738,325.273l3.03,2.199l3.04-2.211l-1.16-3.572h-3.761l-1.149,3.533l-1.147-3.533h-3.759
		l-1.157,3.572l3.038,2.211L-68.738,325.273z M-67.174,322.257h2.934l0.905,2.789l-2.372,1.725l-2.373-1.725L-67.174,322.257z
		 M-73.23,322.257h2.934l0.903,2.789l-2.37,1.725l-2.373-1.725L-73.23,322.257z"/>
	<linearGradient id="SVGID_72_" gradientUnits="userSpaceOnUse" x1="-68.7344" y1="317.8999" x2="-68.7344" y2="332.8603">
		<stop  offset="0" style="stop-color:#FFFFFF"/>
		<stop  offset="0.3545" style="stop-color:#FBFCF7"/>
		<stop  offset="0.7407" style="stop-color:#192649"/>
	</linearGradient>
	<path fill="url(#SVGID_72_)" d="M-68.738,329.673l-3.025-2.201l-3.038,2.211l1.157,3.574h3.759l1.147-3.533l1.149,3.533h3.761
		l1.16-3.574l-3.04-2.211L-68.738,329.673z M-70.296,332.689h-2.934l-0.906-2.789l2.373-1.725l2.37,1.725L-70.296,332.689z
		 M-64.241,332.689h-2.934l-0.906-2.789l2.373-1.725l2.372,1.725L-64.241,332.689z"/>
	<linearGradient id="SVGID_73_" gradientUnits="userSpaceOnUse" x1="-56.5991" y1="317.8999" x2="-56.5991" y2="332.8603">
		<stop  offset="0" style="stop-color:#FFFFFF"/>
		<stop  offset="0.3545" style="stop-color:#FBFCF7"/>
		<stop  offset="0.7407" style="stop-color:#192649"/>
	</linearGradient>
	<path fill="url(#SVGID_73_)" d="M-56.599,325.273l3.028,2.199l3.04-2.211l-1.162-3.572h-3.756l-1.15,3.533l-1.149-3.533h-3.756
		l-1.163,3.572l3.038,2.211L-56.599,325.273z M-55.036,322.257h2.932l0.908,2.789l-2.375,1.725l-2.37-1.725L-55.036,322.257z
		 M-61.09,322.257h2.928l0.909,2.789l-2.376,1.725l-2.367-1.725L-61.09,322.257z"/>
	<linearGradient id="SVGID_74_" gradientUnits="userSpaceOnUse" x1="-56.5991" y1="317.8999" x2="-56.5991" y2="332.8603">
		<stop  offset="0" style="stop-color:#FFFFFF"/>
		<stop  offset="0.3545" style="stop-color:#FBFCF7"/>
		<stop  offset="0.7407" style="stop-color:#192649"/>
	</linearGradient>
	<path fill="url(#SVGID_74_)" d="M-56.599,329.673l-3.03-2.201l-3.038,2.211l1.163,3.574h3.756l1.149-3.533l1.15,3.533h3.756
		l1.162-3.574l-3.04-2.211L-56.599,329.673z M-58.163,332.689h-2.928l-0.906-2.789l2.367-1.725l2.376,1.725L-58.163,332.689z
		 M-52.104,332.689h-2.932l-0.905-2.789l2.37-1.725l2.375,1.725L-52.104,332.689z"/>
	<linearGradient id="SVGID_75_" gradientUnits="userSpaceOnUse" x1="-44.4609" y1="317.8999" x2="-44.4609" y2="332.8603">
		<stop  offset="0" style="stop-color:#FFFFFF"/>
		<stop  offset="0.3545" style="stop-color:#FBFCF7"/>
		<stop  offset="0.7407" style="stop-color:#192649"/>
	</linearGradient>
	<path fill="url(#SVGID_75_)" d="M-44.459,325.273l3.027,2.199l3.041-2.211l-1.163-3.572h-3.758l-1.147,3.533l-1.149-3.533h-3.759
		l-1.163,3.572l3.041,2.211L-44.459,325.273z M-42.899,322.257h2.934l0.903,2.789l-2.37,1.725l-2.37-1.725L-42.899,322.257z
		 M-48.957,322.257h2.934l0.906,2.789l-2.373,1.725l-2.367-1.725L-48.957,322.257z"/>
	<linearGradient id="SVGID_76_" gradientUnits="userSpaceOnUse" x1="-44.4609" y1="317.8999" x2="-44.4609" y2="332.8603">
		<stop  offset="0" style="stop-color:#FFFFFF"/>
		<stop  offset="0.3545" style="stop-color:#FBFCF7"/>
		<stop  offset="0.7407" style="stop-color:#192649"/>
	</linearGradient>
	<path fill="url(#SVGID_76_)" d="M-44.459,329.673l-3.03-2.201l-3.041,2.211l1.163,3.574h3.759l1.149-3.533l1.147,3.533h3.758
		l1.163-3.574l-3.041-2.211L-44.459,329.673z M-46.023,332.689h-2.934l-0.9-2.789l2.367-1.725l2.373,1.725L-46.023,332.689z
		 M-39.965,332.689h-2.934l-0.903-2.789l2.37-1.725l2.37,1.725L-39.965,332.689z"/>
	<linearGradient id="SVGID_77_" gradientUnits="userSpaceOnUse" x1="-32.3213" y1="317.8999" x2="-32.3213" y2="332.8603">
		<stop  offset="0" style="stop-color:#FFFFFF"/>
		<stop  offset="0.3545" style="stop-color:#FBFCF7"/>
		<stop  offset="0.7407" style="stop-color:#192649"/>
	</linearGradient>
	<path fill="url(#SVGID_77_)" d="M-32.323,325.273l3.027,2.199l3.044-2.211l-1.163-3.572h-3.759l-1.149,3.533l-1.147-3.533h-3.758
		l-1.163,3.572l3.041,2.211L-32.323,325.273z M-30.759,322.257h2.928l0.909,2.789l-2.373,1.725l-2.37-1.725L-30.759,322.257z
		 M-36.817,322.257h2.931l0.909,2.789l-2.373,1.725l-2.373-1.725L-36.817,322.257z"/>
	<linearGradient id="SVGID_78_" gradientUnits="userSpaceOnUse" x1="-32.3213" y1="317.8999" x2="-32.3213" y2="332.8603">
		<stop  offset="0" style="stop-color:#FFFFFF"/>
		<stop  offset="0.3545" style="stop-color:#FBFCF7"/>
		<stop  offset="0.7407" style="stop-color:#192649"/>
	</linearGradient>
	<path fill="url(#SVGID_78_)" d="M-32.323,329.673l-3.027-2.201l-3.041,2.211l1.163,3.574h3.758l1.147-3.533l1.149,3.533h3.759
		l1.163-3.574l-3.044-2.211L-32.323,329.673z M-33.886,332.689h-2.931l-0.906-2.789l2.373-1.725l2.373,1.725L-33.886,332.689z
		 M-27.832,332.689h-2.928l-0.906-2.789l2.37-1.725l2.373,1.725L-27.832,332.689z"/>
	<linearGradient id="SVGID_79_" gradientUnits="userSpaceOnUse" x1="-20.1821" y1="317.8999" x2="-20.1821" y2="332.8603">
		<stop  offset="0" style="stop-color:#FFFFFF"/>
		<stop  offset="0.3545" style="stop-color:#FBFCF7"/>
		<stop  offset="0.7407" style="stop-color:#192649"/>
	</linearGradient>
	<path fill="url(#SVGID_79_)" d="M-20.183,325.273l3.024,2.199l3.046-2.211l-1.162-3.572h-3.759l-1.149,3.533l-1.152-3.533h-3.759
		l-1.157,3.572l3.038,2.211L-20.183,325.273z M-18.62,322.257h2.928l0.906,2.789l-2.373,1.725l-2.37-1.725L-18.62,322.257z
		 M-24.677,322.257h2.931l0.906,2.789l-2.373,1.725l-2.373-1.725L-24.677,322.257z"/>
	<linearGradient id="SVGID_80_" gradientUnits="userSpaceOnUse" x1="-20.1821" y1="317.8999" x2="-20.1821" y2="332.8603">
		<stop  offset="0" style="stop-color:#FFFFFF"/>
		<stop  offset="0.3545" style="stop-color:#FBFCF7"/>
		<stop  offset="0.7407" style="stop-color:#192649"/>
	</linearGradient>
	<path fill="url(#SVGID_80_)" d="M-20.183,329.673l-3.03-2.201l-3.038,2.211l1.157,3.574h3.759l1.152-3.533l1.149,3.533h3.759
		l1.162-3.574l-3.046-2.211L-20.183,329.673z M-21.747,332.689h-2.931l-0.909-2.789l2.373-1.725l2.373,1.725L-21.747,332.689z
		 M-15.692,332.689h-2.928l-0.909-2.789l2.37-1.725l2.373,1.725L-15.692,332.689z"/>
	<linearGradient id="SVGID_81_" gradientUnits="userSpaceOnUse" x1="-8.0444" y1="317.8999" x2="-8.0444" y2="332.8603">
		<stop  offset="0" style="stop-color:#FFFFFF"/>
		<stop  offset="0.3545" style="stop-color:#FBFCF7"/>
		<stop  offset="0.7407" style="stop-color:#192649"/>
	</linearGradient>
	<path fill="url(#SVGID_81_)" d="M-8.044,325.273l3.025,2.199l3.043-2.211l-1.162-3.572H-6.9l-1.145,3.533l-1.149-3.533h-3.761
		l-1.158,3.572l3.038,2.211L-8.044,325.273z M-6.483,322.257h2.931l0.906,2.789l-2.373,1.725l-2.37-1.725L-6.483,322.257z
		 M-12.539,322.257h2.931l0.906,2.789l-2.373,1.725l-2.372-1.725L-12.539,322.257z"/>
	<linearGradient id="SVGID_82_" gradientUnits="userSpaceOnUse" x1="-8.0444" y1="317.8999" x2="-8.0444" y2="332.8603">
		<stop  offset="0" style="stop-color:#FFFFFF"/>
		<stop  offset="0.3545" style="stop-color:#FBFCF7"/>
		<stop  offset="0.7407" style="stop-color:#192649"/>
	</linearGradient>
	<path fill="url(#SVGID_82_)" d="M-8.044,329.673l-3.03-2.201l-3.038,2.211l1.158,3.574h3.761l1.149-3.533l1.145,3.533h3.762
		l1.162-3.574l-3.043-2.211L-8.044,329.673z M-9.608,332.689h-2.931l-0.908-2.789l2.372-1.725l2.373,1.725L-9.608,332.689z
		 M-3.552,332.689h-2.931l-0.906-2.789l2.37-1.725l2.373,1.725L-3.552,332.689z"/>
	<linearGradient id="SVGID_83_" gradientUnits="userSpaceOnUse" x1="4.0938" y1="317.8999" x2="4.0937" y2="332.8603">
		<stop  offset="0" style="stop-color:#FFFFFF"/>
		<stop  offset="0.3545" style="stop-color:#FBFCF7"/>
		<stop  offset="0.7407" style="stop-color:#192649"/>
	</linearGradient>
	<path fill="url(#SVGID_83_)" d="M4.09,325.273l3.03,2.199l3.043-2.211L9,321.689H5.237l-1.146,3.533l-1.15-3.533h-3.756
		l-1.16,3.572l3.041,2.211L4.09,325.273z M5.654,322.257h2.931l0.908,2.789l-2.372,1.725l-2.373-1.725L5.654,322.257z
		 M-0.402,322.257h2.931l0.909,2.789l-2.373,1.725l-2.373-1.725L-0.402,322.257z"/>
	<linearGradient id="SVGID_84_" gradientUnits="userSpaceOnUse" x1="4.0938" y1="317.8999" x2="4.0937" y2="332.8603">
		<stop  offset="0" style="stop-color:#FFFFFF"/>
		<stop  offset="0.3545" style="stop-color:#FBFCF7"/>
		<stop  offset="0.7407" style="stop-color:#192649"/>
	</linearGradient>
	<path fill="url(#SVGID_84_)" d="M4.09,329.673l-3.025-2.201l-3.041,2.211l1.16,3.574H2.94l1.15-3.533l1.146,3.533H9l1.163-3.574
		l-3.043-2.211L4.09,329.673z M2.529,332.689h-2.931l-0.906-2.789l2.373-1.725l2.373,1.725L2.529,332.689z M8.584,332.689H5.654
		L4.748,329.9l2.373-1.725l2.372,1.725L8.584,332.689z"/>
	<linearGradient id="SVGID_85_" gradientUnits="userSpaceOnUse" x1="16.231" y1="317.8999" x2="16.231" y2="332.8603">
		<stop  offset="0" style="stop-color:#FFFFFF"/>
		<stop  offset="0.3545" style="stop-color:#FBFCF7"/>
		<stop  offset="0.7407" style="stop-color:#192649"/>
	</linearGradient>
	<path fill="url(#SVGID_85_)" d="M16.229,325.273l3.03,2.199l3.038-2.211l-1.16-3.572h-3.761l-1.147,3.533l-1.149-3.533h-3.759
		l-1.157,3.572l3.041,2.211L16.229,325.273z M17.791,322.257h2.933l0.909,2.789l-2.373,1.725l-2.373-1.725L17.791,322.257z
		 M11.735,322.257h2.934l0.908,2.789l-2.372,1.725l-2.373-1.725L11.735,322.257z"/>
	<linearGradient id="SVGID_86_" gradientUnits="userSpaceOnUse" x1="16.231" y1="317.8999" x2="16.231" y2="332.8603">
		<stop  offset="0" style="stop-color:#FFFFFF"/>
		<stop  offset="0.3545" style="stop-color:#FBFCF7"/>
		<stop  offset="0.7407" style="stop-color:#192649"/>
	</linearGradient>
	<path fill="url(#SVGID_86_)" d="M16.229,329.673l-3.024-2.201l-3.041,2.211l1.157,3.574h3.759l1.149-3.533l1.147,3.533h3.761
		l1.16-3.574l-3.038-2.211L16.229,329.673z M14.668,332.689h-2.934l-0.903-2.789l2.373-1.725l2.372,1.725L14.668,332.689z
		 M20.723,332.689h-2.933l-0.904-2.789l2.373-1.725l2.373,1.725L20.723,332.689z"/>
	<linearGradient id="SVGID_87_" gradientUnits="userSpaceOnUse" x1="28.3677" y1="317.8999" x2="28.3677" y2="332.8603">
		<stop  offset="0" style="stop-color:#FFFFFF"/>
		<stop  offset="0.3545" style="stop-color:#FBFCF7"/>
		<stop  offset="0.7407" style="stop-color:#192649"/>
	</linearGradient>
	<path fill="url(#SVGID_87_)" d="M28.366,325.273l3.03,2.199l3.041-2.211l-1.16-3.572h-3.761l-1.15,3.533l-1.146-3.533H23.46
		l-1.163,3.572l3.044,2.211L28.366,325.273z M29.929,322.257h2.934l0.906,2.789l-2.373,1.725l-2.373-1.725L29.929,322.257z
		 M23.875,322.257h2.934l0.903,2.789l-2.37,1.725l-2.373-1.725L23.875,322.257z"/>
	<linearGradient id="SVGID_88_" gradientUnits="userSpaceOnUse" x1="28.3677" y1="317.8999" x2="28.3677" y2="332.8603">
		<stop  offset="0" style="stop-color:#FFFFFF"/>
		<stop  offset="0.3545" style="stop-color:#FBFCF7"/>
		<stop  offset="0.7407" style="stop-color:#192649"/>
	</linearGradient>
	<path fill="url(#SVGID_88_)" d="M28.366,329.673l-3.024-2.201l-3.044,2.211l1.163,3.574h3.759l1.146-3.533l1.15,3.533h3.761
		l1.16-3.574l-3.041-2.211L28.366,329.673z M26.808,332.689h-2.934l-0.906-2.789l2.373-1.725l2.37,1.725L26.808,332.689z
		 M32.863,332.689h-2.934l-0.906-2.789l2.373-1.725l2.373,1.725L32.863,332.689z"/>
	<linearGradient id="SVGID_89_" gradientUnits="userSpaceOnUse" x1="40.5054" y1="317.8999" x2="40.5054" y2="332.8603">
		<stop  offset="0" style="stop-color:#FFFFFF"/>
		<stop  offset="0.3545" style="stop-color:#FBFCF7"/>
		<stop  offset="0.7407" style="stop-color:#192649"/>
	</linearGradient>
	<path fill="url(#SVGID_89_)" d="M40.505,325.273l3.03,2.199l3.038-2.211l-1.16-3.572h-3.759l-1.149,3.533l-1.147-3.533H35.6
		l-1.163,3.572l3.038,2.211L40.505,325.273z M42.069,322.257h2.934l0.9,2.789l-2.367,1.725l-2.376-1.725L42.069,322.257z
		 M36.013,322.257h2.934l0.901,2.789l-2.373,1.725l-2.367-1.725L36.013,322.257z"/>
	<linearGradient id="SVGID_90_" gradientUnits="userSpaceOnUse" x1="40.5054" y1="317.8999" x2="40.5054" y2="332.8603">
		<stop  offset="0" style="stop-color:#FFFFFF"/>
		<stop  offset="0.3545" style="stop-color:#FBFCF7"/>
		<stop  offset="0.7407" style="stop-color:#192649"/>
	</linearGradient>
	<path fill="url(#SVGID_90_)" d="M40.505,329.673l-3.03-2.201l-3.038,2.211l1.163,3.574h3.758l1.147-3.533l1.149,3.533h3.759
		l1.16-3.574l-3.038-2.211L40.505,329.673z M38.947,332.689h-2.934l-0.905-2.789l2.367-1.725l2.373,1.725L38.947,332.689z
		 M45.002,332.689h-2.934L41.16,329.9l2.376-1.725l2.367,1.725L45.002,332.689z"/>
	<linearGradient id="SVGID_91_" gradientUnits="userSpaceOnUse" x1="52.6431" y1="317.8999" x2="52.6431" y2="332.8603">
		<stop  offset="0" style="stop-color:#FFFFFF"/>
		<stop  offset="0.3545" style="stop-color:#FBFCF7"/>
		<stop  offset="0.7407" style="stop-color:#192649"/>
	</linearGradient>
	<path fill="url(#SVGID_91_)" d="M52.645,325.273l3.027,2.199l3.041-2.211l-1.163-3.572h-3.759l-1.146,3.533l-1.15-3.533h-3.761
		l-1.16,3.572l3.041,2.211L52.645,325.273z M54.206,322.257h2.928l0.909,2.789l-2.37,1.725l-2.37-1.725L54.206,322.257z
		 M48.15,322.257h2.931l0.906,2.789l-2.372,1.725l-2.368-1.725L48.15,322.257z"/>
	<linearGradient id="SVGID_92_" gradientUnits="userSpaceOnUse" x1="52.6431" y1="317.8999" x2="52.6431" y2="332.8603">
		<stop  offset="0" style="stop-color:#FFFFFF"/>
		<stop  offset="0.3545" style="stop-color:#FBFCF7"/>
		<stop  offset="0.7407" style="stop-color:#192649"/>
	</linearGradient>
	<path fill="url(#SVGID_92_)" d="M52.645,329.673l-3.03-2.201l-3.041,2.211l1.16,3.574h3.761l1.15-3.533l1.146,3.533h3.759
		l1.163-3.574l-3.041-2.211L52.645,329.673z M51.081,332.689H48.15l-0.903-2.789l2.368-1.725l2.372,1.725L51.081,332.689z
		 M57.133,332.689h-2.928l-0.903-2.789l2.37-1.725l2.37,1.725L57.133,332.689z"/>
	<linearGradient id="SVGID_93_" gradientUnits="userSpaceOnUse" x1="64.7827" y1="317.8999" x2="64.7827" y2="332.8603">
		<stop  offset="0" style="stop-color:#FFFFFF"/>
		<stop  offset="0.3545" style="stop-color:#FBFCF7"/>
		<stop  offset="0.7407" style="stop-color:#192649"/>
	</linearGradient>
	<path fill="url(#SVGID_93_)" d="M64.782,325.273l3.027,2.199l3.043-2.211l-1.163-3.572h-3.761l-1.146,3.533l-1.152-3.533h-3.754
		l-1.162,3.572l3.04,2.211L64.782,325.273z M66.345,322.257h2.933l0.904,2.789l-2.373,1.725l-2.368-1.725L66.345,322.257z
		 M60.287,322.257h2.934l0.906,2.789l-2.373,1.725l-2.367-1.725L60.287,322.257z"/>
	<linearGradient id="SVGID_94_" gradientUnits="userSpaceOnUse" x1="64.7827" y1="317.8999" x2="64.7827" y2="332.8603">
		<stop  offset="0" style="stop-color:#FFFFFF"/>
		<stop  offset="0.3545" style="stop-color:#FBFCF7"/>
		<stop  offset="0.7407" style="stop-color:#192649"/>
	</linearGradient>
	<path fill="url(#SVGID_94_)" d="M64.782,329.673l-3.028-2.201l-3.04,2.211l1.162,3.574h3.754l1.152-3.533l1.146,3.533h3.761
		l1.163-3.574l-3.043-2.211L64.782,329.673z M63.22,332.689h-2.934l-0.9-2.789l2.367-1.725l2.373,1.725L63.22,332.689z
		 M69.278,332.689h-2.933l-0.904-2.789l2.368-1.725l2.373,1.725L69.278,332.689z"/>
	<linearGradient id="SVGID_95_" gradientUnits="userSpaceOnUse" x1="76.9224" y1="317.8999" x2="76.9224" y2="332.8603">
		<stop  offset="0" style="stop-color:#FFFFFF"/>
		<stop  offset="0.3545" style="stop-color:#FBFCF7"/>
		<stop  offset="0.7407" style="stop-color:#192649"/>
	</linearGradient>
	<path fill="url(#SVGID_95_)" d="M76.918,325.273l3.027,2.199l3.046-2.211l-1.163-3.572h-3.761l-1.149,3.533l-1.15-3.533h-3.753
		l-1.163,3.572l3.038,2.211L76.918,325.273z M78.484,322.257h2.929l0.906,2.789l-2.373,1.725l-2.368-1.725L78.484,322.257z
		 M72.423,322.257h2.934l0.906,2.789l-2.373,1.725l-2.373-1.725L72.423,322.257z"/>
	<linearGradient id="SVGID_96_" gradientUnits="userSpaceOnUse" x1="76.9224" y1="317.8999" x2="76.9224" y2="332.8603">
		<stop  offset="0" style="stop-color:#FFFFFF"/>
		<stop  offset="0.3545" style="stop-color:#FBFCF7"/>
		<stop  offset="0.7407" style="stop-color:#192649"/>
	</linearGradient>
	<path fill="url(#SVGID_96_)" d="M76.918,329.673l-3.028-2.201l-3.038,2.211l1.163,3.574h3.753l1.15-3.533l1.149,3.533h3.761
		l1.163-3.574l-3.046-2.211L76.918,329.673z M75.357,332.689h-2.934l-0.906-2.789l2.373-1.725l2.373,1.725L75.357,332.689z
		 M81.413,332.689h-2.929l-0.906-2.789l2.368-1.725l2.373,1.725L81.413,332.689z"/>
	<linearGradient id="SVGID_97_" gradientUnits="userSpaceOnUse" x1="89.0601" y1="317.8999" x2="89.0601" y2="332.8603">
		<stop  offset="0" style="stop-color:#FFFFFF"/>
		<stop  offset="0.3545" style="stop-color:#FBFCF7"/>
		<stop  offset="0.7407" style="stop-color:#192649"/>
	</linearGradient>
	<path fill="url(#SVGID_97_)" d="M89.055,325.273l3.03,2.199l3.043-2.211l-1.16-3.572h-3.764l-1.149,3.533l-1.147-3.533h-3.759
		l-1.157,3.572l3.038,2.211L89.055,325.273z M90.621,322.257h2.931l0.906,2.789l-2.372,1.725l-2.373-1.725L90.621,322.257z
		 M84.566,322.257h2.931l0.906,2.789l-2.373,1.725l-2.368-1.725L84.566,322.257z"/>
	<linearGradient id="SVGID_98_" gradientUnits="userSpaceOnUse" x1="89.0601" y1="317.8999" x2="89.0601" y2="332.8603">
		<stop  offset="0" style="stop-color:#FFFFFF"/>
		<stop  offset="0.3545" style="stop-color:#FBFCF7"/>
		<stop  offset="0.7407" style="stop-color:#192649"/>
	</linearGradient>
	<path fill="url(#SVGID_98_)" d="M89.055,329.673l-3.025-2.201l-3.038,2.211l1.157,3.574h3.759l1.147-3.533l1.149,3.533h3.764
		l1.16-3.574l-3.043-2.211L89.055,329.673z M87.497,332.689h-2.931l-0.904-2.789l2.368-1.725l2.373,1.725L87.497,332.689z
		 M93.551,332.689h-2.931l-0.908-2.789l2.373-1.725l2.372,1.725L93.551,332.689z"/>
	<linearGradient id="SVGID_99_" gradientUnits="userSpaceOnUse" x1="101.1978" y1="317.8999" x2="101.1978" y2="332.8603">
		<stop  offset="0" style="stop-color:#FFFFFF"/>
		<stop  offset="0.3545" style="stop-color:#FBFCF7"/>
		<stop  offset="0.7407" style="stop-color:#192649"/>
	</linearGradient>
	<path fill="url(#SVGID_99_)" d="M101.194,325.273l3.03,2.199l3.044-2.211l-1.166-3.572h-3.758l-1.15,3.533l-1.149-3.533h-3.756
		l-1.16,3.572l3.035,2.211L101.194,325.273z M102.757,322.257h2.931l0.909,2.789l-2.373,1.725l-2.373-1.725L102.757,322.257z
		 M96.703,322.257h2.931l0.908,2.789l-2.378,1.725l-2.367-1.725L96.703,322.257z"/>
	<linearGradient id="SVGID_100_" gradientUnits="userSpaceOnUse" x1="101.1978" y1="317.8999" x2="101.1978" y2="332.8603">
		<stop  offset="0" style="stop-color:#FFFFFF"/>
		<stop  offset="0.3545" style="stop-color:#FBFCF7"/>
		<stop  offset="0.7407" style="stop-color:#192649"/>
	</linearGradient>
	<path fill="url(#SVGID_100_)" d="M101.194,329.673l-3.03-2.201l-3.035,2.211l1.16,3.574h3.756l1.149-3.533l1.15,3.533h3.758
		l1.166-3.574l-3.044-2.211L101.194,329.673z M99.633,332.689h-2.931l-0.906-2.789l2.367-1.725l2.378,1.725L99.633,332.689z
		 M105.688,332.689h-2.931l-0.906-2.789l2.373-1.725l2.373,1.725L105.688,332.689z"/>
	<linearGradient id="SVGID_101_" gradientUnits="userSpaceOnUse" x1="113.3345" y1="317.8999" x2="113.3345" y2="332.8603">
		<stop  offset="0" style="stop-color:#FFFFFF"/>
		<stop  offset="0.3545" style="stop-color:#FBFCF7"/>
		<stop  offset="0.7407" style="stop-color:#192649"/>
	</linearGradient>
	<path fill="url(#SVGID_101_)" d="M113.333,325.273l3.03,2.199l3.038-2.211l-1.16-3.572h-3.756l-1.152,3.533l-1.149-3.533h-3.759
		l-1.157,3.572l3.035,2.211L113.333,325.273z M114.894,322.257h2.934l0.909,2.789l-2.373,1.725l-2.373-1.725L114.894,322.257z
		 M108.839,322.257h2.933l0.909,2.789l-2.378,1.725l-2.368-1.725L108.839,322.257z"/>
	<linearGradient id="SVGID_102_" gradientUnits="userSpaceOnUse" x1="113.3345" y1="317.8999" x2="113.3345" y2="332.8603">
		<stop  offset="0" style="stop-color:#FFFFFF"/>
		<stop  offset="0.3545" style="stop-color:#FBFCF7"/>
		<stop  offset="0.7407" style="stop-color:#192649"/>
	</linearGradient>
	<path fill="url(#SVGID_102_)" d="M113.333,329.673l-3.03-2.201l-3.035,2.211l1.157,3.574h3.759l1.149-3.533l1.152,3.533h3.756
		l1.16-3.574l-3.038-2.211L113.333,329.673z M111.772,332.689h-2.933l-0.904-2.789l2.368-1.725l2.378,1.725L111.772,332.689z
		 M117.828,332.689h-2.934l-0.903-2.789l2.373-1.725l2.373,1.725L117.828,332.689z"/>
	<linearGradient id="SVGID_103_" gradientUnits="userSpaceOnUse" x1="125.4712" y1="317.8999" x2="125.4712" y2="332.8603">
		<stop  offset="0" style="stop-color:#FFFFFF"/>
		<stop  offset="0.3545" style="stop-color:#FBFCF7"/>
		<stop  offset="0.7407" style="stop-color:#192649"/>
	</linearGradient>
	<path fill="url(#SVGID_103_)" d="M125.473,325.273l3.024,2.199l3.044-2.211l-1.161-3.572h-3.761l-1.146,3.533l-1.15-3.533h-3.758
		l-1.163,3.572l3.041,2.211L125.473,325.273z M127.034,322.257h2.934l0.906,2.789l-2.376,1.725l-2.37-1.725L127.034,322.257z
		 M120.978,322.257h2.934l0.906,2.789l-2.375,1.725l-2.371-1.725L120.978,322.257z"/>
	<linearGradient id="SVGID_104_" gradientUnits="userSpaceOnUse" x1="125.4712" y1="317.8999" x2="125.4712" y2="332.8603">
		<stop  offset="0" style="stop-color:#FFFFFF"/>
		<stop  offset="0.3545" style="stop-color:#FBFCF7"/>
		<stop  offset="0.7407" style="stop-color:#192649"/>
	</linearGradient>
	<path fill="url(#SVGID_104_)" d="M125.473,329.673l-3.03-2.201l-3.041,2.211l1.163,3.574h3.758l1.15-3.533l1.146,3.533h3.761
		l1.161-3.574l-3.044-2.211L125.473,329.673z M123.912,332.689h-2.934l-0.906-2.789l2.371-1.725l2.375,1.725L123.912,332.689z
		 M129.967,332.689h-2.934l-0.906-2.789l2.37-1.725l2.376,1.725L129.967,332.689z"/>
	<linearGradient id="SVGID_105_" gradientUnits="userSpaceOnUse" x1="137.6108" y1="317.8999" x2="137.6108" y2="332.8603">
		<stop  offset="0" style="stop-color:#FFFFFF"/>
		<stop  offset="0.3545" style="stop-color:#FBFCF7"/>
		<stop  offset="0.7407" style="stop-color:#192649"/>
	</linearGradient>
	<path fill="url(#SVGID_105_)" d="M137.61,325.273l3.027,2.199l3.043-2.211l-1.163-3.572h-3.758l-1.149,3.533l-1.147-3.533h-3.759
		l-1.162,3.572l3.038,2.211L137.61,325.273z M139.17,322.257h2.936l0.901,2.789l-2.37,1.725l-2.37-1.725L139.17,322.257z
		 M133.118,322.257h2.931l0.906,2.789l-2.375,1.725l-2.368-1.725L133.118,322.257z"/>
	<linearGradient id="SVGID_106_" gradientUnits="userSpaceOnUse" x1="137.6108" y1="317.8999" x2="137.6108" y2="332.8603">
		<stop  offset="0" style="stop-color:#FFFFFF"/>
		<stop  offset="0.3545" style="stop-color:#FBFCF7"/>
		<stop  offset="0.7407" style="stop-color:#192649"/>
	</linearGradient>
	<path fill="url(#SVGID_106_)" d="M137.61,329.673l-3.03-2.201l-3.038,2.211l1.162,3.574h3.759l1.147-3.533l1.149,3.533h3.758
		l1.163-3.574l-3.043-2.211L137.61,329.673z M136.048,332.689h-2.931l-0.906-2.789l2.368-1.725l2.375,1.725L136.048,332.689z
		 M142.106,332.689h-2.936l-0.903-2.789l2.37-1.725l2.37,1.725L142.106,332.689z"/>
	<linearGradient id="SVGID_107_" gradientUnits="userSpaceOnUse" x1="149.7485" y1="317.8999" x2="149.7485" y2="332.8603">
		<stop  offset="0" style="stop-color:#FFFFFF"/>
		<stop  offset="0.3545" style="stop-color:#FBFCF7"/>
		<stop  offset="0.7407" style="stop-color:#192649"/>
	</linearGradient>
	<path fill="url(#SVGID_107_)" d="M149.749,325.273l3.027,2.199l3.041-2.211l-1.163-3.572h-3.755l-1.15,3.533l-1.149-3.533h-3.756
		l-1.163,3.572l3.038,2.211L149.749,325.273z M151.31,322.257h2.933l0.904,2.789l-2.371,1.725l-2.37-1.725L151.31,322.257z
		 M145.254,322.257h2.931l0.906,2.789l-2.373,1.725l-2.373-1.725L145.254,322.257z"/>
	<linearGradient id="SVGID_108_" gradientUnits="userSpaceOnUse" x1="149.7485" y1="317.8999" x2="149.7485" y2="332.8603">
		<stop  offset="0" style="stop-color:#FFFFFF"/>
		<stop  offset="0.3545" style="stop-color:#FBFCF7"/>
		<stop  offset="0.7407" style="stop-color:#192649"/>
	</linearGradient>
	<path fill="url(#SVGID_108_)" d="M149.749,329.673l-3.03-2.201l-3.038,2.211l1.163,3.574h3.756l1.149-3.533l1.15,3.533h3.755
		l1.163-3.574l-3.041-2.211L149.749,329.673z M148.185,332.689h-2.931l-0.909-2.789l2.373-1.725l2.373,1.725L148.185,332.689z
		 M154.243,332.689h-2.933l-0.904-2.789l2.37-1.725l2.371,1.725L154.243,332.689z"/>
	<linearGradient id="SVGID_109_" gradientUnits="userSpaceOnUse" x1="161.8872" y1="317.8999" x2="161.8872" y2="332.8603">
		<stop  offset="0" style="stop-color:#FFFFFF"/>
		<stop  offset="0.3545" style="stop-color:#FBFCF7"/>
		<stop  offset="0.7407" style="stop-color:#192649"/>
	</linearGradient>
	<path fill="url(#SVGID_109_)" d="M161.885,325.273l3.027,2.199l3.044-2.211l-1.163-3.572h-3.761l-1.147,3.533l-1.147-3.533h-3.761
		l-1.16,3.572l3.041,2.211L161.885,325.273z M163.447,322.257h2.936l0.903,2.789l-2.373,1.725l-2.37-1.725L163.447,322.257z
		 M157.391,322.257h2.931l0.909,2.789l-2.373,1.725l-2.373-1.725L157.391,322.257z"/>
	<linearGradient id="SVGID_110_" gradientUnits="userSpaceOnUse" x1="161.8872" y1="317.8999" x2="161.8872" y2="332.8603">
		<stop  offset="0" style="stop-color:#FFFFFF"/>
		<stop  offset="0.3545" style="stop-color:#FBFCF7"/>
		<stop  offset="0.7407" style="stop-color:#192649"/>
	</linearGradient>
	<path fill="url(#SVGID_110_)" d="M161.885,329.673l-3.027-2.201l-3.041,2.211l1.16,3.574h3.761l1.147-3.533l1.147,3.533h3.761
		l1.163-3.574l-3.044-2.211L161.885,329.673z M160.322,332.689h-2.931l-0.906-2.789l2.373-1.725l2.373,1.725L160.322,332.689z
		 M166.382,332.689h-2.936l-0.904-2.789l2.37-1.725l2.373,1.725L166.382,332.689z"/>
	<linearGradient id="SVGID_111_" gradientUnits="userSpaceOnUse" x1="174.0259" y1="317.8999" x2="174.0259" y2="332.8603">
		<stop  offset="0" style="stop-color:#FFFFFF"/>
		<stop  offset="0.3545" style="stop-color:#FBFCF7"/>
		<stop  offset="0.7407" style="stop-color:#192649"/>
	</linearGradient>
	<path fill="url(#SVGID_111_)" d="M174.022,325.273l3.03,2.199l3.043-2.211l-1.165-3.572h-3.759l-1.149,3.533l-1.149-3.533h-3.759
		l-1.157,3.572l3.041,2.211L174.022,325.273z M175.585,322.257h2.931l0.909,2.789l-2.373,1.725l-2.37-1.725L175.585,322.257z
		 M169.531,322.257h2.931l0.908,2.789l-2.372,1.725l-2.373-1.725L169.531,322.257z"/>
	<linearGradient id="SVGID_112_" gradientUnits="userSpaceOnUse" x1="174.0259" y1="317.8999" x2="174.0259" y2="332.8603">
		<stop  offset="0" style="stop-color:#FFFFFF"/>
		<stop  offset="0.3545" style="stop-color:#FBFCF7"/>
		<stop  offset="0.7407" style="stop-color:#192649"/>
	</linearGradient>
	<path fill="url(#SVGID_112_)" d="M174.022,329.673l-3.024-2.201l-3.041,2.211l1.157,3.574h3.759l1.149-3.533l1.149,3.533h3.759
		l1.165-3.574l-3.043-2.211L174.022,329.673z M172.461,332.689h-2.931l-0.906-2.789l2.373-1.725l2.372,1.725L172.461,332.689z
		 M178.516,332.689h-2.931l-0.903-2.789l2.37-1.725l2.373,1.725L178.516,332.689z"/>
	<linearGradient id="SVGID_113_" gradientUnits="userSpaceOnUse" x1="186.1626" y1="317.8999" x2="186.1626" y2="332.8603">
		<stop  offset="0" style="stop-color:#FFFFFF"/>
		<stop  offset="0.3545" style="stop-color:#FBFCF7"/>
		<stop  offset="0.7407" style="stop-color:#192649"/>
	</linearGradient>
	<path fill="url(#SVGID_113_)" d="M186.159,325.273l3.03,2.199l3.041-2.211l-1.158-3.572h-3.761l-1.152,3.533l-1.147-3.533h-3.758
		l-1.158,3.572l3.038,2.211L186.159,325.273z M187.725,322.257h2.934l0.903,2.789l-2.373,1.725l-2.373-1.725L187.725,322.257z
		 M181.669,322.257h2.931l0.906,2.789l-2.373,1.725l-2.372-1.725L181.669,322.257z"/>
	<linearGradient id="SVGID_114_" gradientUnits="userSpaceOnUse" x1="186.1626" y1="317.8999" x2="186.1626" y2="332.8603">
		<stop  offset="0" style="stop-color:#FFFFFF"/>
		<stop  offset="0.3545" style="stop-color:#FBFCF7"/>
		<stop  offset="0.7407" style="stop-color:#192649"/>
	</linearGradient>
	<path fill="url(#SVGID_114_)" d="M186.159,329.673l-3.025-2.201l-3.038,2.211l1.158,3.574h3.758l1.147-3.533l1.152,3.533h3.761
		l1.158-3.574l-3.041-2.211L186.159,329.673z M184.6,332.689h-2.931l-0.908-2.789l2.372-1.725l2.373,1.725L184.6,332.689z
		 M190.659,332.689h-2.934l-0.909-2.789l2.373-1.725l2.373,1.725L190.659,332.689z"/>
	<linearGradient id="SVGID_115_" gradientUnits="userSpaceOnUse" x1="198.2983" y1="317.8999" x2="198.2983" y2="332.8603">
		<stop  offset="0" style="stop-color:#FFFFFF"/>
		<stop  offset="0.3545" style="stop-color:#FBFCF7"/>
		<stop  offset="0.7407" style="stop-color:#192649"/>
	</linearGradient>
	<path fill="url(#SVGID_115_)" d="M198.3,325.273l3.028,2.199l3.038-2.211l-1.158-3.572h-3.758l-1.15,3.533l-1.146-3.533h-3.759
		l-1.165,3.572l3.04,2.211L198.3,325.273z M199.865,322.257h2.931l0.906,2.789l-2.373,1.725l-2.373-1.725L199.865,322.257z
		 M193.809,322.257h2.928l0.909,2.789l-2.376,1.725l-2.37-1.725L193.809,322.257z"/>
	<linearGradient id="SVGID_116_" gradientUnits="userSpaceOnUse" x1="198.2983" y1="317.8999" x2="198.2983" y2="332.8603">
		<stop  offset="0" style="stop-color:#FFFFFF"/>
		<stop  offset="0.3545" style="stop-color:#FBFCF7"/>
		<stop  offset="0.7407" style="stop-color:#192649"/>
	</linearGradient>
	<path fill="url(#SVGID_116_)" d="M198.3,329.673l-3.03-2.201l-3.04,2.211l1.165,3.574h3.759l1.146-3.533l1.15,3.533h3.758
		l1.158-3.574l-3.038-2.211L198.3,329.673z M196.737,332.689h-2.928L192.9,329.9l2.37-1.725l2.376,1.725L196.737,332.689z
		 M202.795,332.689h-2.931l-0.909-2.789l2.373-1.725l2.373,1.725L202.795,332.689z"/>
	<linearGradient id="SVGID_117_" gradientUnits="userSpaceOnUse" x1="210.436" y1="317.8999" x2="210.436" y2="332.8603">
		<stop  offset="0" style="stop-color:#FFFFFF"/>
		<stop  offset="0.3545" style="stop-color:#FBFCF7"/>
		<stop  offset="0.7407" style="stop-color:#192649"/>
	</linearGradient>
	<path fill="url(#SVGID_117_)" d="M210.44,325.273l3.027,2.199l3.038-2.211l-1.16-3.572h-3.758l-1.147,3.533l-1.149-3.533h-3.759
		l-1.165,3.572l3.043,2.211L210.44,325.273z M212.001,322.257h2.928l0.911,2.789l-2.373,1.725l-2.372-1.725L212.001,322.257z
		 M205.943,322.257h2.934l0.903,2.789l-2.37,1.725l-2.37-1.725L205.943,322.257z"/>
	<linearGradient id="SVGID_118_" gradientUnits="userSpaceOnUse" x1="210.436" y1="317.8999" x2="210.436" y2="332.8603">
		<stop  offset="0" style="stop-color:#FFFFFF"/>
		<stop  offset="0.3545" style="stop-color:#FBFCF7"/>
		<stop  offset="0.7407" style="stop-color:#192649"/>
	</linearGradient>
	<path fill="url(#SVGID_118_)" d="M210.44,329.673l-3.03-2.201l-3.043,2.211l1.165,3.574h3.759l1.149-3.533l1.147,3.533h3.758
		l1.16-3.574l-3.038-2.211L210.44,329.673z M208.876,332.689h-2.934l-0.903-2.789l2.37-1.725l2.37,1.725L208.876,332.689z
		 M214.929,332.689h-2.928l-0.906-2.789l2.372-1.725l2.373,1.725L214.929,332.689z"/>
	<linearGradient id="SVGID_119_" gradientUnits="userSpaceOnUse" x1="222.5747" y1="317.8999" x2="222.5747" y2="332.8603">
		<stop  offset="0" style="stop-color:#FFFFFF"/>
		<stop  offset="0.3545" style="stop-color:#FBFCF7"/>
		<stop  offset="0.7407" style="stop-color:#192649"/>
	</linearGradient>
	<path fill="url(#SVGID_119_)" d="M222.58,325.273l3.024,2.199l3.041-2.211l-1.16-3.572h-3.761l-1.145,3.533l-1.15-3.533h-3.763
		l-1.161,3.572l3.044,2.211L222.58,325.273z M224.14,322.257h2.929l0.906,2.789l-2.371,1.725l-2.37-1.725L224.14,322.257z
		 M218.083,322.257h2.931l0.906,2.789l-2.37,1.725l-2.37-1.725L218.083,322.257z"/>
	<linearGradient id="SVGID_120_" gradientUnits="userSpaceOnUse" x1="222.5747" y1="317.8999" x2="222.5747" y2="332.8603">
		<stop  offset="0" style="stop-color:#FFFFFF"/>
		<stop  offset="0.3545" style="stop-color:#FBFCF7"/>
		<stop  offset="0.7407" style="stop-color:#192649"/>
	</linearGradient>
	<path fill="url(#SVGID_120_)" d="M222.58,329.673l-3.03-2.201l-3.044,2.211l1.161,3.574h3.763l1.15-3.533l1.145,3.533h3.761
		l1.16-3.574l-3.041-2.211L222.58,329.673z M221.013,332.689h-2.931l-0.903-2.789l2.37-1.725l2.37,1.725L221.013,332.689z
		 M227.069,332.689h-2.929l-0.906-2.789l2.37-1.725l2.371,1.725L227.069,332.689z"/>
	<linearGradient id="SVGID_121_" gradientUnits="userSpaceOnUse" x1="234.7153" y1="317.8999" x2="234.7153" y2="332.8603">
		<stop  offset="0" style="stop-color:#FFFFFF"/>
		<stop  offset="0.3545" style="stop-color:#FBFCF7"/>
		<stop  offset="0.7407" style="stop-color:#192649"/>
	</linearGradient>
	<path fill="url(#SVGID_121_)" d="M234.71,325.273l3.03,2.199l3.044-2.211l-1.16-3.572h-3.762l-1.152,3.533l-1.146-3.533h-3.759
		l-1.16,3.572l3.041,2.211L234.71,325.273z M236.28,322.257h2.928l0.903,2.789l-2.37,1.725l-2.375-1.725L236.28,322.257z
		 M230.222,322.257h2.928l0.906,2.789l-2.37,1.725l-2.376-1.725L230.222,322.257z"/>
	<linearGradient id="SVGID_122_" gradientUnits="userSpaceOnUse" x1="234.7153" y1="317.8999" x2="234.7153" y2="332.8603">
		<stop  offset="0" style="stop-color:#FFFFFF"/>
		<stop  offset="0.3545" style="stop-color:#FBFCF7"/>
		<stop  offset="0.7407" style="stop-color:#192649"/>
	</linearGradient>
	<path fill="url(#SVGID_122_)" d="M234.71,329.673l-3.024-2.201l-3.041,2.211l1.16,3.574h3.759l1.146-3.533l1.152,3.533h3.762
		l1.16-3.574l-3.044-2.211L234.71,329.673z M233.15,332.689h-2.928l-0.912-2.789l2.376-1.725l2.37,1.725L233.15,332.689z
		 M239.208,332.689h-2.928l-0.914-2.789l2.375-1.725l2.37,1.725L239.208,332.689z"/>
	<linearGradient id="SVGID_123_" gradientUnits="userSpaceOnUse" x1="246.854" y1="317.8999" x2="246.854" y2="332.8603">
		<stop  offset="0" style="stop-color:#FFFFFF"/>
		<stop  offset="0.3545" style="stop-color:#FBFCF7"/>
		<stop  offset="0.7407" style="stop-color:#192649"/>
	</linearGradient>
	<path fill="url(#SVGID_123_)" d="M246.85,325.273l3.03,2.199l3.043-2.211l-1.162-3.572H248l-1.149,3.533l-1.147-3.533h-3.758
		l-1.16,3.572l3.04,2.211L246.85,325.273z M248.419,322.257h2.928l0.903,2.789l-2.37,1.725l-2.375-1.725L248.419,322.257z
		 M242.359,322.257h2.931l0.906,2.789l-2.371,1.725l-2.375-1.725L242.359,322.257z"/>
	<linearGradient id="SVGID_124_" gradientUnits="userSpaceOnUse" x1="246.854" y1="317.8999" x2="246.854" y2="332.8603">
		<stop  offset="0" style="stop-color:#FFFFFF"/>
		<stop  offset="0.3545" style="stop-color:#FBFCF7"/>
		<stop  offset="0.7407" style="stop-color:#192649"/>
	</linearGradient>
	<path fill="url(#SVGID_124_)" d="M246.85,329.673l-3.025-2.201l-3.04,2.211l1.16,3.574h3.758l1.147-3.533l1.149,3.533h3.762
		l1.162-3.574l-3.043-2.211L246.85,329.673z M245.29,332.689h-2.931l-0.909-2.789l2.375-1.725l2.371,1.725L245.29,332.689z
		 M251.347,332.689h-2.928l-0.914-2.789l2.375-1.725l2.37,1.725L251.347,332.689z"/>
	<linearGradient id="SVGID_125_" gradientUnits="userSpaceOnUse" x1="258.9888" y1="317.8999" x2="258.9888" y2="332.8603">
		<stop  offset="0" style="stop-color:#FFFFFF"/>
		<stop  offset="0.3545" style="stop-color:#FBFCF7"/>
		<stop  offset="0.7407" style="stop-color:#192649"/>
	</linearGradient>
	<path fill="url(#SVGID_125_)" d="M258.99,325.273l3.03,2.199l3.035-2.211l-1.16-3.572h-3.758l-1.147,3.533l-1.15-3.533h-3.755
		l-1.161,3.572l3.041,2.211L258.99,325.273z M260.55,322.257h2.934l0.906,2.789l-2.37,1.725l-2.376-1.725L260.55,322.257z
		 M254.495,322.257h2.934l0.906,2.789l-2.37,1.725l-2.376-1.725L254.495,322.257z"/>
	<linearGradient id="SVGID_126_" gradientUnits="userSpaceOnUse" x1="258.9888" y1="317.8999" x2="258.9888" y2="332.8603">
		<stop  offset="0" style="stop-color:#FFFFFF"/>
		<stop  offset="0.3545" style="stop-color:#FBFCF7"/>
		<stop  offset="0.7407" style="stop-color:#192649"/>
	</linearGradient>
	<path fill="url(#SVGID_126_)" d="M258.99,329.673l-3.025-2.201l-3.041,2.211l1.161,3.574h3.755l1.15-3.533l1.147,3.533h3.758
		l1.16-3.574l-3.035-2.211L258.99,329.673z M257.428,332.689h-2.934l-0.906-2.789l2.376-1.725l2.37,1.725L257.428,332.689z
		 M263.484,332.689h-2.934l-0.906-2.789l2.376-1.725l2.37,1.725L263.484,332.689z"/>
	<linearGradient id="SVGID_127_" gradientUnits="userSpaceOnUse" x1="271.1274" y1="317.8999" x2="271.1274" y2="332.8603">
		<stop  offset="0" style="stop-color:#FFFFFF"/>
		<stop  offset="0.3545" style="stop-color:#FBFCF7"/>
		<stop  offset="0.7407" style="stop-color:#192649"/>
	</linearGradient>
	<path fill="url(#SVGID_127_)" d="M271.129,325.273l3.029,2.199l3.041-2.211l-1.166-3.572h-3.758l-1.146,3.533l-1.15-3.533h-3.758
		l-1.166,3.572l3.049,2.211L271.129,325.273z M272.69,322.257h2.934l0.906,2.789l-2.371,1.725l-2.375-1.725L272.69,322.257z
		 M266.631,322.257h2.937l0.906,2.789l-2.37,1.725l-2.376-1.725L266.631,322.257z"/>
	<linearGradient id="SVGID_128_" gradientUnits="userSpaceOnUse" x1="271.1274" y1="317.8999" x2="271.1274" y2="332.8603">
		<stop  offset="0" style="stop-color:#FFFFFF"/>
		<stop  offset="0.3545" style="stop-color:#FBFCF7"/>
		<stop  offset="0.7407" style="stop-color:#192649"/>
	</linearGradient>
	<path fill="url(#SVGID_128_)" d="M271.129,329.673l-3.025-2.201l-3.049,2.211l1.166,3.574h3.758l1.15-3.533l1.146,3.533h3.758
		l1.166-3.574l-3.041-2.211L271.129,329.673z M269.568,332.689h-2.937l-0.903-2.789l2.376-1.725l2.37,1.725L269.568,332.689z
		 M275.624,332.689h-2.934l-0.906-2.789l2.375-1.725l2.371,1.725L275.624,332.689z"/>
	<linearGradient id="SVGID_129_" gradientUnits="userSpaceOnUse" x1="283.27" y1="317.8999" x2="283.27" y2="332.8603">
		<stop  offset="0" style="stop-color:#FFFFFF"/>
		<stop  offset="0.3545" style="stop-color:#FBFCF7"/>
		<stop  offset="0.7407" style="stop-color:#192649"/>
	</linearGradient>
	<path fill="url(#SVGID_129_)" d="M283.263,325.273l3.03,2.199l3.046-2.211l-1.163-3.572h-3.764l-1.149,3.533l-1.143-3.533h-3.761
		l-1.16,3.572l3.041,2.211L283.263,325.273z M284.832,322.257h2.929l0.908,2.789l-2.375,1.725l-2.368-1.725L284.832,322.257z
		 M278.774,322.257h2.931l0.909,2.789l-2.373,1.725l-2.371-1.725L278.774,322.257z"/>
	<linearGradient id="SVGID_130_" gradientUnits="userSpaceOnUse" x1="283.27" y1="317.8999" x2="283.27" y2="332.8603">
		<stop  offset="0" style="stop-color:#FFFFFF"/>
		<stop  offset="0.3545" style="stop-color:#FBFCF7"/>
		<stop  offset="0.7407" style="stop-color:#192649"/>
	</linearGradient>
	<path fill="url(#SVGID_130_)" d="M283.263,329.673l-3.022-2.201l-3.041,2.211l1.16,3.574h3.761l1.143-3.533l1.149,3.533h3.764
		l1.163-3.574l-3.046-2.211L283.263,329.673z M281.705,332.689h-2.931l-0.904-2.789l2.371-1.725l2.373,1.725L281.705,332.689z
		 M287.76,332.689h-2.929l-0.906-2.789l2.368-1.725l2.375,1.725L287.76,332.689z"/>
	<linearGradient id="SVGID_131_" gradientUnits="userSpaceOnUse" x1="295.4077" y1="317.8999" x2="295.4077" y2="332.8603">
		<stop  offset="0" style="stop-color:#FFFFFF"/>
		<stop  offset="0.3545" style="stop-color:#FBFCF7"/>
		<stop  offset="0.7407" style="stop-color:#192649"/>
	</linearGradient>
	<path fill="url(#SVGID_131_)" d="M295.408,325.273l3.024,2.199l3.044-2.211l-1.163-3.572h-3.761l-1.145,3.533l-1.15-3.533h-3.761
		l-1.157,3.572l3.038,2.211L295.408,325.273z M296.968,322.257h2.931l0.906,2.789l-2.373,1.725l-2.373-1.725L296.968,322.257z
		 M290.911,322.257h2.934l0.906,2.789l-2.373,1.725l-2.373-1.725L290.911,322.257z"/>
	<linearGradient id="SVGID_132_" gradientUnits="userSpaceOnUse" x1="295.4077" y1="317.8999" x2="295.4077" y2="332.8603">
		<stop  offset="0" style="stop-color:#FFFFFF"/>
		<stop  offset="0.3545" style="stop-color:#FBFCF7"/>
		<stop  offset="0.7407" style="stop-color:#192649"/>
	</linearGradient>
	<path fill="url(#SVGID_132_)" d="M295.408,329.673l-3.03-2.201l-3.038,2.211l1.157,3.574h3.761l1.15-3.533l1.145,3.533h3.761
		l1.163-3.574l-3.044-2.211L295.408,329.673z M293.844,332.689h-2.934l-0.906-2.789l2.373-1.725l2.373,1.725L293.844,332.689z
		 M299.899,332.689h-2.931l-0.909-2.789l2.373-1.725l2.373,1.725L299.899,332.689z"/>
	<linearGradient id="SVGID_133_" gradientUnits="userSpaceOnUse" x1="307.5454" y1="317.8999" x2="307.5454" y2="332.8603">
		<stop  offset="0" style="stop-color:#FFFFFF"/>
		<stop  offset="0.3545" style="stop-color:#FBFCF7"/>
		<stop  offset="0.7407" style="stop-color:#192649"/>
	</linearGradient>
	<path fill="url(#SVGID_133_)" d="M307.542,325.273l3.03,2.199l3.043-2.211l-1.165-3.572h-3.759l-1.149,3.533l-1.145-3.533h-3.761
		l-1.16,3.572l3.04,2.211L307.542,325.273z M309.102,322.257h2.934l0.909,2.789l-2.373,1.725l-2.373-1.725L309.102,322.257z
		 M303.049,322.257h2.932l0.908,2.789l-2.373,1.725l-2.373-1.725L303.049,322.257z"/>
	<linearGradient id="SVGID_134_" gradientUnits="userSpaceOnUse" x1="307.5454" y1="317.8999" x2="307.5454" y2="332.8603">
		<stop  offset="0" style="stop-color:#FFFFFF"/>
		<stop  offset="0.3545" style="stop-color:#FBFCF7"/>
		<stop  offset="0.7407" style="stop-color:#192649"/>
	</linearGradient>
	<path fill="url(#SVGID_134_)" d="M307.542,329.673l-3.025-2.201l-3.04,2.211l1.16,3.574h3.761l1.145-3.533l1.149,3.533h3.759
		l1.165-3.574l-3.043-2.211L307.542,329.673z M305.981,332.689h-2.932l-0.906-2.789l2.373-1.725l2.373,1.725L305.981,332.689z
		 M312.036,332.689h-2.934l-0.903-2.789l2.373-1.725l2.373,1.725L312.036,332.689z"/>
	<linearGradient id="SVGID_135_" gradientUnits="userSpaceOnUse" x1="319.6821" y1="317.8999" x2="319.6821" y2="332.8603">
		<stop  offset="0" style="stop-color:#FFFFFF"/>
		<stop  offset="0.3545" style="stop-color:#FBFCF7"/>
		<stop  offset="0.7407" style="stop-color:#192649"/>
	</linearGradient>
	<path fill="url(#SVGID_135_)" d="M319.681,325.273l3.03,2.199l3.038-2.211l-1.161-3.572h-3.761l-1.146,3.533l-1.15-3.533h-3.758
		l-1.158,3.572l3.041,2.211L319.681,325.273z M321.242,322.257h2.934l0.909,2.789l-2.373,1.725l-2.373-1.725L321.242,322.257z
		 M315.186,322.257h2.934l0.906,2.789l-2.37,1.725l-2.373-1.725L315.186,322.257z"/>
	<linearGradient id="SVGID_136_" gradientUnits="userSpaceOnUse" x1="319.6821" y1="317.8999" x2="319.6821" y2="332.8603">
		<stop  offset="0" style="stop-color:#FFFFFF"/>
		<stop  offset="0.3545" style="stop-color:#FBFCF7"/>
		<stop  offset="0.7407" style="stop-color:#192649"/>
	</linearGradient>
	<path fill="url(#SVGID_136_)" d="M319.681,329.673l-3.025-2.201l-3.041,2.211l1.158,3.574h3.758l1.15-3.533l1.146,3.533h3.761
		l1.161-3.574l-3.038-2.211L319.681,329.673z M318.12,332.689h-2.934l-0.903-2.789l2.373-1.725l2.37,1.725L318.12,332.689z
		 M324.175,332.689h-2.934l-0.903-2.789l2.373-1.725l2.373,1.725L324.175,332.689z"/>
	<linearGradient id="SVGID_137_" gradientUnits="userSpaceOnUse" x1="331.8188" y1="317.8999" x2="331.8188" y2="332.8603">
		<stop  offset="0" style="stop-color:#FFFFFF"/>
		<stop  offset="0.3545" style="stop-color:#FBFCF7"/>
		<stop  offset="0.7407" style="stop-color:#192649"/>
	</linearGradient>
	<path fill="url(#SVGID_137_)" d="M331.82,325.273l3.028,2.199l3.04-2.211l-1.163-3.572h-3.758l-1.147,3.533l-1.149-3.533h-3.758
		l-1.163,3.572l3.04,2.211L331.82,325.273z M333.381,322.257h2.934l0.906,2.789l-2.373,1.725l-2.373-1.725L333.381,322.257z
		 M327.326,322.257h2.931l0.909,2.789l-2.376,1.725l-2.37-1.725L327.326,322.257z"/>
	<linearGradient id="SVGID_138_" gradientUnits="userSpaceOnUse" x1="331.8188" y1="317.8999" x2="331.8188" y2="332.8603">
		<stop  offset="0" style="stop-color:#FFFFFF"/>
		<stop  offset="0.3545" style="stop-color:#FBFCF7"/>
		<stop  offset="0.7407" style="stop-color:#192649"/>
	</linearGradient>
	<path fill="url(#SVGID_138_)" d="M331.82,329.673l-3.03-2.201l-3.04,2.211l1.163,3.574h3.758l1.149-3.533l1.147,3.533h3.758
		l1.163-3.574l-3.04-2.211L331.82,329.673z M330.256,332.689h-2.931l-0.906-2.789l2.37-1.725l2.376,1.725L330.256,332.689z
		 M336.315,332.689h-2.934l-0.906-2.789l2.373-1.725l2.373,1.725L336.315,332.689z"/>
	<linearGradient id="SVGID_139_" gradientUnits="userSpaceOnUse" x1="343.9575" y1="317.8999" x2="343.9575" y2="332.8603">
		<stop  offset="0" style="stop-color:#FFFFFF"/>
		<stop  offset="0.3545" style="stop-color:#FBFCF7"/>
		<stop  offset="0.7407" style="stop-color:#192649"/>
	</linearGradient>
	<path fill="url(#SVGID_139_)" d="M343.957,325.273l3.028,2.199l3.043-2.211l-1.163-3.572h-3.758l-1.15,3.533l-1.147-3.533h-3.758
		l-1.163,3.572l3.038,2.211L343.957,325.273z M345.52,322.257h2.934l0.901,2.789l-2.37,1.725l-2.371-1.725L345.52,322.257z
		 M339.462,322.257h2.934l0.903,2.789l-2.373,1.725l-2.367-1.725L339.462,322.257z"/>
	<linearGradient id="SVGID_140_" gradientUnits="userSpaceOnUse" x1="343.9575" y1="317.8999" x2="343.9575" y2="332.8603">
		<stop  offset="0" style="stop-color:#FFFFFF"/>
		<stop  offset="0.3545" style="stop-color:#FBFCF7"/>
		<stop  offset="0.7407" style="stop-color:#192649"/>
	</linearGradient>
	<path fill="url(#SVGID_140_)" d="M343.957,329.673l-3.03-2.201l-3.038,2.211l1.163,3.574h3.758l1.147-3.533l1.15,3.533h3.758
		l1.163-3.574l-3.043-2.211L343.957,329.673z M342.396,332.689h-2.934l-0.903-2.789l2.367-1.725l2.373,1.725L342.396,332.689z
		 M348.454,332.689h-2.934l-0.906-2.789l2.371-1.725l2.37,1.725L348.454,332.689z"/>
	<linearGradient id="SVGID_141_" gradientUnits="userSpaceOnUse" x1="356.0962" y1="317.8999" x2="356.0962" y2="332.8603">
		<stop  offset="0" style="stop-color:#FFFFFF"/>
		<stop  offset="0.3545" style="stop-color:#FBFCF7"/>
		<stop  offset="0.7407" style="stop-color:#192649"/>
	</linearGradient>
	<path fill="url(#SVGID_141_)" d="M356.096,325.273l3.025,2.199l3.043-2.211l-1.163-3.572h-3.756l-1.149,3.533l-1.15-3.533h-3.755
		l-1.163,3.572l3.038,2.211L356.096,325.273z M357.66,322.257h2.929l0.906,2.789l-2.373,1.725l-2.368-1.725L357.66,322.257z
		 M351.602,322.257h2.931l0.906,2.789l-2.373,1.725l-2.373-1.725L351.602,322.257z"/>
	<linearGradient id="SVGID_142_" gradientUnits="userSpaceOnUse" x1="356.0962" y1="317.8999" x2="356.0962" y2="332.8603">
		<stop  offset="0" style="stop-color:#FFFFFF"/>
		<stop  offset="0.3545" style="stop-color:#FBFCF7"/>
		<stop  offset="0.7407" style="stop-color:#192649"/>
	</linearGradient>
	<path fill="url(#SVGID_142_)" d="M356.096,329.673l-3.03-2.201l-3.038,2.211l1.163,3.574h3.755l1.15-3.533l1.149,3.533h3.756
		l1.163-3.574l-3.043-2.211L356.096,329.673z M354.533,332.689h-2.931l-0.909-2.789l2.373-1.725l2.373,1.725L354.533,332.689z
		 M360.588,332.689h-2.929l-0.906-2.789l2.368-1.725l2.373,1.725L360.588,332.689z"/>
	<linearGradient id="SVGID_143_" gradientUnits="userSpaceOnUse" x1="368.2339" y1="317.8999" x2="368.2339" y2="332.8603">
		<stop  offset="0" style="stop-color:#FFFFFF"/>
		<stop  offset="0.3545" style="stop-color:#FBFCF7"/>
		<stop  offset="0.7407" style="stop-color:#192649"/>
	</linearGradient>
	<path fill="url(#SVGID_143_)" d="M368.235,325.273l3.025,2.199l3.043-2.211l-1.162-3.572h-3.759l-1.147,3.533l-1.154-3.533h-3.759
		l-1.157,3.572l3.041,2.211L368.235,325.273z M369.796,322.257h2.929l0.908,2.789l-2.373,1.725l-2.37-1.725L369.796,322.257z
		 M363.739,322.257h2.931l0.909,2.789l-2.373,1.725l-2.373-1.725L363.739,322.257z"/>
	<linearGradient id="SVGID_144_" gradientUnits="userSpaceOnUse" x1="368.2339" y1="317.8999" x2="368.2339" y2="332.8603">
		<stop  offset="0" style="stop-color:#FFFFFF"/>
		<stop  offset="0.3545" style="stop-color:#FBFCF7"/>
		<stop  offset="0.7407" style="stop-color:#192649"/>
	</linearGradient>
	<path fill="url(#SVGID_144_)" d="M368.235,329.673l-3.029-2.201l-3.041,2.211l1.157,3.574h3.759l1.154-3.533l1.147,3.533h3.759
		l1.162-3.574l-3.043-2.211L368.235,329.673z M366.669,332.689h-2.931l-0.906-2.789l2.373-1.725l2.373,1.725L366.669,332.689z
		 M372.725,332.689h-2.929l-0.906-2.789l2.37-1.725l2.373,1.725L372.725,332.689z"/>
	<linearGradient id="SVGID_145_" gradientUnits="userSpaceOnUse" x1="380.3735" y1="317.8999" x2="380.3735" y2="332.8603">
		<stop  offset="0" style="stop-color:#FFFFFF"/>
		<stop  offset="0.3545" style="stop-color:#FBFCF7"/>
		<stop  offset="0.7407" style="stop-color:#192649"/>
	</linearGradient>
	<path fill="url(#SVGID_145_)" d="M380.372,325.273l3.028,2.199l3.043-2.211l-1.163-3.572h-3.764l-1.145,3.533l-1.146-3.533h-3.764
		l-1.158,3.572l3.041,2.211L380.372,325.273z M381.936,322.257h2.928l0.909,2.789l-2.373,1.725l-2.373-1.725L381.936,322.257z
		 M375.877,322.257h2.932l0.908,2.789l-2.373,1.725l-2.373-1.725L375.877,322.257z"/>
	<linearGradient id="SVGID_146_" gradientUnits="userSpaceOnUse" x1="380.3735" y1="317.8999" x2="380.3735" y2="332.8603">
		<stop  offset="0" style="stop-color:#FFFFFF"/>
		<stop  offset="0.3545" style="stop-color:#FBFCF7"/>
		<stop  offset="0.7407" style="stop-color:#192649"/>
	</linearGradient>
	<path fill="url(#SVGID_146_)" d="M380.372,329.673l-3.027-2.201l-3.041,2.211l1.158,3.574h3.764l1.146-3.533l1.145,3.533h3.764
		l1.163-3.574l-3.043-2.211L380.372,329.673z M378.809,332.689h-2.932l-0.906-2.789l2.373-1.725l2.373,1.725L378.809,332.689z
		 M384.864,332.689h-2.928l-0.909-2.789l2.373-1.725l2.373,1.725L384.864,332.689z"/>
	<linearGradient id="SVGID_147_" gradientUnits="userSpaceOnUse" x1="392.5122" y1="317.8999" x2="392.5122" y2="332.8603">
		<stop  offset="0" style="stop-color:#FFFFFF"/>
		<stop  offset="0.3545" style="stop-color:#FBFCF7"/>
		<stop  offset="0.7407" style="stop-color:#192649"/>
	</linearGradient>
	<path fill="url(#SVGID_147_)" d="M392.506,325.273l3.03,2.199l3.046-2.211l-1.163-3.572h-3.764l-1.149,3.533l-1.147-3.533h-3.758
		l-1.158,3.572l3.038,2.211L392.506,325.273z M394.073,322.257h2.931l0.906,2.789l-2.373,1.725l-2.373-1.725L394.073,322.257z
		 M388.017,322.257h2.931l0.906,2.789l-2.373,1.725l-2.373-1.725L388.017,322.257z"/>
	<linearGradient id="SVGID_148_" gradientUnits="userSpaceOnUse" x1="392.5122" y1="317.8999" x2="392.5122" y2="332.8603">
		<stop  offset="0" style="stop-color:#FFFFFF"/>
		<stop  offset="0.3545" style="stop-color:#FBFCF7"/>
		<stop  offset="0.7407" style="stop-color:#192649"/>
	</linearGradient>
	<path fill="url(#SVGID_148_)" d="M392.506,329.673l-3.025-2.201l-3.038,2.211l1.158,3.574h3.758l1.147-3.533l1.149,3.533h3.764
		l1.163-3.574l-3.046-2.211L392.506,329.673z M390.948,332.689h-2.931l-0.909-2.789l2.373-1.725l2.373,1.725L390.948,332.689z
		 M397.003,332.689h-2.931l-0.909-2.789l2.373-1.725l2.373,1.725L397.003,332.689z"/>
	<linearGradient id="SVGID_149_" gradientUnits="userSpaceOnUse" x1="404.6489" y1="317.8999" x2="404.6489" y2="332.8603">
		<stop  offset="0" style="stop-color:#FFFFFF"/>
		<stop  offset="0.3545" style="stop-color:#FBFCF7"/>
		<stop  offset="0.7407" style="stop-color:#192649"/>
	</linearGradient>
	<path fill="url(#SVGID_149_)" d="M404.645,325.273l3.031,2.199l3.04-2.211l-1.163-3.572h-3.758l-1.15,3.533l-1.146-3.533h-3.759
		l-1.157,3.572l3.038,2.211L404.645,325.273z M406.209,322.257h2.931l0.908,2.789l-2.372,1.725l-2.373-1.725L406.209,322.257z
		 M400.154,322.257h2.934l0.906,2.789l-2.373,1.725l-2.373-1.725L400.154,322.257z"/>
	<linearGradient id="SVGID_150_" gradientUnits="userSpaceOnUse" x1="404.6489" y1="317.8999" x2="404.6489" y2="332.8603">
		<stop  offset="0" style="stop-color:#FFFFFF"/>
		<stop  offset="0.3545" style="stop-color:#FBFCF7"/>
		<stop  offset="0.7407" style="stop-color:#192649"/>
	</linearGradient>
	<path fill="url(#SVGID_150_)" d="M404.645,329.673l-3.024-2.201l-3.038,2.211l1.157,3.574h3.759l1.146-3.533l1.15,3.533h3.758
		l1.163-3.574l-3.04-2.211L404.645,329.673z M403.087,332.689h-2.934l-0.906-2.789l2.373-1.725l2.373,1.725L403.087,332.689z
		 M409.14,332.689h-2.931l-0.906-2.789l2.373-1.725l2.372,1.725L409.14,332.689z"/>
	<linearGradient id="SVGID_151_" gradientUnits="userSpaceOnUse" x1="416.7847" y1="317.8999" x2="416.7847" y2="332.8603">
		<stop  offset="0" style="stop-color:#FFFFFF"/>
		<stop  offset="0.3545" style="stop-color:#FBFCF7"/>
		<stop  offset="0.7407" style="stop-color:#192649"/>
	</linearGradient>
	<path fill="url(#SVGID_151_)" d="M416.785,325.273l3.03,2.199l3.038-2.211l-1.16-3.572h-3.759l-1.149,3.533l-1.149-3.533h-3.756
		l-1.163,3.572l3.044,2.211L416.785,325.273z M418.346,322.257h2.934l0.908,2.789l-2.373,1.725l-2.373-1.725L418.346,322.257z
		 M412.293,322.257h2.931l0.906,2.789l-2.37,1.725l-2.373-1.725L412.293,322.257z"/>
	<linearGradient id="SVGID_152_" gradientUnits="userSpaceOnUse" x1="416.7847" y1="317.8999" x2="416.7847" y2="332.8603">
		<stop  offset="0" style="stop-color:#FFFFFF"/>
		<stop  offset="0.3545" style="stop-color:#FBFCF7"/>
		<stop  offset="0.7407" style="stop-color:#192649"/>
	</linearGradient>
	<path fill="url(#SVGID_152_)" d="M416.785,329.673l-3.024-2.201l-3.044,2.211l1.163,3.574h3.756l1.149-3.533l1.149,3.533h3.759
		l1.16-3.574l-3.038-2.211L416.785,329.673z M415.224,332.689h-2.931l-0.906-2.789l2.373-1.725l2.37,1.725L415.224,332.689z
		 M421.28,332.689h-2.934l-0.904-2.789l2.373-1.725l2.373,1.725L421.28,332.689z"/>
	<linearGradient id="SVGID_153_" gradientUnits="userSpaceOnUse" x1="428.9224" y1="317.8999" x2="428.9224" y2="332.8603">
		<stop  offset="0" style="stop-color:#FFFFFF"/>
		<stop  offset="0.3545" style="stop-color:#FBFCF7"/>
		<stop  offset="0.7407" style="stop-color:#192649"/>
	</linearGradient>
	<path fill="url(#SVGID_153_)" d="M428.924,325.273l3.027,2.199l3.041-2.211l-1.163-3.572h-3.759l-1.146,3.533l-1.15-3.533h-3.758
		l-1.163,3.572l3.041,2.211L428.924,325.273z M430.485,322.257h2.934l0.903,2.789l-2.37,1.725l-2.373-1.725L430.485,322.257z
		 M424.43,322.257h2.934l0.903,2.789l-2.373,1.725l-2.368-1.725L424.43,322.257z"/>
	<linearGradient id="SVGID_154_" gradientUnits="userSpaceOnUse" x1="428.9224" y1="317.8999" x2="428.9224" y2="332.8603">
		<stop  offset="0" style="stop-color:#FFFFFF"/>
		<stop  offset="0.3545" style="stop-color:#FBFCF7"/>
		<stop  offset="0.7407" style="stop-color:#192649"/>
	</linearGradient>
	<path fill="url(#SVGID_154_)" d="M428.924,329.673l-3.03-2.201l-3.041,2.211l1.163,3.574h3.758l1.15-3.533l1.146,3.533h3.759
		l1.163-3.574l-3.041-2.211L428.924,329.673z M427.364,332.689h-2.934l-0.904-2.789l2.368-1.725l2.373,1.725L427.364,332.689z
		 M433.418,332.689h-2.934l-0.906-2.789l2.373-1.725l2.37,1.725L433.418,332.689z"/>
</g>
</svg>
