<?xml version="1.0" encoding="utf-8"?>
<!-- Generator: Adobe Illustrator 16.0.0, SVG Export Plug-In . SVG Version: 6.00 Build 0)  -->
<!DOCTYPE svg PUBLIC "-//W3C//DTD SVG 1.1//EN" "http://www.w3.org/Graphics/SVG/1.1/DTD/svg11.dtd">
<svg version="1.1" id="圖層_1" xmlns="http://www.w3.org/2000/svg" xmlns:xlink="http://www.w3.org/1999/xlink" x="0px" y="0px"
	 width="182.631px" height="108.451px" viewBox="0 0 182.631 108.451" enable-background="new 0 0 182.631 108.451"
	 xml:space="preserve">
<g>
	<g>
		<g>
			<g>
				<g>
					<path fill="#DF364C" d="M182.631,30.87H0c20.232,5.325,53.59,8.803,91.315,8.803C129.042,39.672,162.397,36.195,182.631,30.87z
						"/>
				</g>
			</g>
			<g>
				<path fill="#040000" d="M173.499,43.032H9.131c18.21,4.792,48.231,7.922,82.184,7.922S155.29,47.824,173.499,43.032z"/>
			</g>
			<g>
				<g>
					<path fill="#1379BA" d="M165.281,55.149H17.349c16.39,4.313,43.408,7.131,73.966,7.131
						C121.873,62.28,148.892,59.463,165.281,55.149z"/>
				</g>
			</g>
		</g>
	</g>
	<g>
		<polygon fill="#FFFFFF" points="56.077,0 34.299,67.026 91.315,108.451 148.331,67.026 126.553,0 		"/>
		<path d="M123.067,4.796l19.625,60.398l-51.377,37.328L39.937,65.194L59.562,4.796H123.067 M126.553,0H56.077L34.299,67.026
			l57.016,41.425l57.016-41.425L126.553,0L126.553,0z"/>
	</g>
	<g>
		<g>
			<polygon fill="#F2AB36" points="56.077,0 34.299,67.026 91.315,108.451 148.331,67.026 126.553,0 			"/>
			<g>
				<polygon fill="#F2AB36" points="126.553,0 56.077,0 34.299,67.026 91.315,108.451 148.331,67.026 				"/>
			</g>
		</g>
	</g>
	<polyline fill="#2BA45E" points="123.067,4.796 142.692,65.194 91.315,102.522 39.937,65.194 59.562,4.796 123.067,4.796 	"/>
	<polyline fill="#2BA45E" points="123.067,4.796 142.692,65.194 91.315,102.522 39.937,65.194 59.562,4.796 123.067,4.796 	"/>
	<g>
		<polyline fill="#2BA45E" points="123.067,4.796 142.692,65.194 91.315,102.522 39.937,65.194 59.562,4.796 123.067,4.796 		"/>
	</g>
	<g>
		<path fill-rule="evenodd" clip-rule="evenodd" fill="#FFFFFF" d="M120.478,41.881c-0.299-0.376-0.682-0.639-1.141-0.785
			c-0.872-0.274-1.77-0.25-2.658-0.156c-1.381,0.147-2.758,0.273-4.146,0.218c-0.895-0.036-1.783-0.126-2.666-0.276
			c-0.103-0.018-0.271,0.008-0.194-0.216c0.365-1.082,0.513-2.203,0.553-3.339c0.009-0.239-0.05-0.54,0.072-0.698
			c0.138-0.178,0.464-0.133,0.709-0.147c1.063-0.059,2.118-0.234,3.194-0.028c0.758,0.143,1.541,0.116,2.316,0.009
			c0.238-0.032,0.313-0.162,0.301-0.378c-0.009-0.178-0.061-0.343-0.153-0.493c-0.231-0.373-0.494-0.721-0.829-1.007
			c-0.531-0.453-1.109-0.792-1.852-0.766c-0.348,0.014-0.693-0.072-1.018-0.206c-0.293-0.121-0.566-0.282-0.695-0.619
			c0.214-0.067,0.418-0.116,0.63-0.158c0.769-0.147,0.905-0.138,0.964-0.914c0.009-0.105,0.059-0.187,0.115-0.266
			c0.569-0.797,1.027-1.666,1.553-2.492c0.46-0.722,0.404-1.369-0.211-1.978c-1.322-1.312-2.867-1.944-4.748-1.509
			c-0.068,0.015-0.147,0.067-0.195-0.038c-0.043-0.091,0.121-0.798,0.208-0.825c0.519-0.157,0.999-0.466,1.515-0.567
			c0.705-0.139,0.811-0.548,0.688-1.071c-0.045-0.185,0.012-0.224,0.168-0.254c0.991-0.197,2.002-0.265,2.995-0.142
			c0.659,0.083,1.278,0.015,1.908-0.098c0.263-0.048,0.409-0.226,0.403-0.514c-0.004-0.201-0.059-0.394-0.153-0.562
			c-0.7-1.25-1.65-2.239-3.005-2.789c-1.055-0.43-2.145-0.503-3.271-0.399c-1.618,0.149-3.231,0.308-4.806,0.732
			c-0.885,0.239-1.771,0.513-2.457,1.151c-0.52,0.484-0.577,0.561-0.916-0.262c-0.041-0.1-0.05-0.212-0.078-0.317
			c-0.064-0.234-0.069-0.473-0.064-0.714c0.001-0.162-0.08-0.241-0.229-0.263c-0.164-0.024-0.156,0.109-0.189,0.207
			c-0.139,0.417-0.178,0.85-0.23,1.282c-0.115,0.931-0.391,1.802-1.023,2.527c-0.266,0.306-0.396,0.662-0.431,1.069
			c-0.064,0.749,0.284,1.394,0.493,2.073c0.047,0.162,0.222,0.199,0.387,0.173c0.221-0.038,0.412-0.126,0.565-0.3
			c0.247-0.28,0.434-0.597,0.6-0.93c0.315-0.632,0.558-1.295,0.784-1.964c0.189-0.558,0.517-1.05,1.055-1.272
			c0.482-0.199,0.95-0.417,1.414-0.651c0.135-0.068,0.281-0.112,0.424-0.166c0.145-0.054,0.25-0.058,0.293,0.139
			c0.063,0.285,0.23,0.505,0.453,0.697c0.227,0.194,0.375,0.447,0.465,0.738c0.051,0.166,0.006,0.255-0.162,0.318
			c-0.709,0.276-1.425,0.524-2.178,0.665c-0.32,0.059-0.644,0.105-0.971,0.134c-0.311,0.025-0.473,0.214-0.35,0.389
			c0.365,0.521,0.768,1.01,1.392,1.243c0.235,0.087,0.476,0.164,0.747,0.257c-0.123,0.086-0.22,0.153-0.315,0.221
			c-0.622,0.426-1.214,0.886-1.763,1.405c-0.682,0.646-0.969,1.452-1.037,2.362c-0.092,1.266,0.322,2.399,0.902,3.491
			c0.059,0.107,0.133,0.201,0.098,0.358c-0.078,0.364,0.332,1.185,0.654,1.37c0.15,0.087,0.319,0.106,0.473,0.033
			c0.543-0.256,1.143-0.344,1.686-0.6c0.076-0.035,0.146-0.097,0.235-0.03c-0.192,0.541-1.978,1.76-2.491,1.93
			c-0.961,0.316-1.951,0.452-2.964,0.332c-0.232-0.028-0.433,0.034-0.618,0.157c-0.175,0.115-0.249,0.252-0.032,0.398
			c0.181,0.121,0.28,0.292,0.37,0.484c0.472,0.993,1.79,1.658,2.953,1.018c0.18-0.1,0.373-0.175,0.561-0.261
			c0.875-0.399,1.781-0.723,2.659-1.041c0.228,1.197-0.229,2.376,0.022,3.583c-0.546-0.011-1.061-0.158-1.583-0.302
			c-1.886-0.523-3.771-1.047-5.706-1.362c-0.322-0.054-0.473-0.154-0.461-0.487c0.005-0.125-0.045-0.255-0.078-0.382
			c-0.297-1.133-0.948-2.075-1.688-2.951c-0.404-0.478-0.372-0.712-0.086-1.194c0.25-0.421,0.534-0.822,0.795-1.236
			c0.322-0.511,0.416-1.115,0.059-1.57c-0.625-0.792-1.344-1.521-2.231-2.048c-0.18-0.105-0.382-0.194-0.59-0.131
			c-0.378,0.115-0.759,0.08-1.134,0.049c-0.283-0.023-0.604-0.049-0.733-0.389c-0.042-0.109-0.095-0.208-0.221-0.206
			c-0.165,0.001-0.154,0.158-0.188,0.265c-0.023,0.082-0.033,0.171-0.035,0.257c-0.016,1.302,0.514,2.276,1.829,2.68
			c0.482,0.149,0.543,0.279,0.442,0.771c-0.112,0.561-0.142,1.125-0.07,1.693c0.155,1.224,0.755,2.208,1.66,3.02
			c0.209,0.188,0.384,0.394,0.442,0.671c0.058,0.272,0.03,0.542-0.265,0.659c-0.666,0.267-1.348,0.485-2.054,0.625
			c-0.39,0.077-0.785,0.034-1.171,0.116c-0.24,0.051-0.388,0.213-0.248,0.415c0.369,0.534,0.586,1.175,1.131,1.582
			c0.193,0.142,0.385,0.287,0.563,0.446c0.309,0.274,0.548,0.291,0.818-0.012c0.233-0.262,0.526-0.377,0.847-0.454
			c0.542-0.131,1.099-0.153,1.649-0.227c1.418-0.19,2.77,0.016,4.099,0.527c0.681,0.261,1.284,0.679,1.988,0.891
			c1.789,0.54,3.59,1.034,5.407,1.472c0.995,0.239,1.996,0.371,3.01,0.147c0.592-0.13,1.15-0.383,1.742-0.529
			c1.402-0.348,2.814-0.653,4.197-1.077C120.676,42.204,120.63,42.073,120.478,41.881z M112.775,34.27
			c0.079,0.07,0.151,0.145,0.104,0.25c-0.04,0.09-0.144,0.081-0.232,0.08c-0.71-0.001-1.412,0.077-2.111,0.188
			c-0.409,0.063-0.408,0.068-0.408-0.337c0-0.088,0-0.176,0-0.262c0-0.609-0.001-0.614,0.581-0.827
			c0.314-0.115,0.639-0.208,0.951-0.328c0.151-0.06,0.228-0.045,0.297,0.113C112.142,33.583,112.42,33.956,112.775,34.27z
			 M110.795,27.031c0.591-0.183,1.163-0.424,1.796-0.42c0.385,0.002,0.547,0.163,0.506,0.545c-0.111,0.986-0.285,1.957-0.797,2.831
			c-0.126,0.215-0.252,0.386-0.55,0.372c-0.438-0.021-0.519,0.122-0.378,0.537c0.049,0.144,0.188,0.241,0.199,0.442
			c-0.389,0-0.758-0.008-1.129,0.005c-0.17,0.007-0.182-0.063-0.197-0.208c-0.034-0.366,0.044-0.612,0.432-0.778
			c0.495-0.212,0.979-0.479,1.338-0.909c0.299-0.362,0.25-0.644-0.174-0.859c-0.41-0.21-0.849-0.342-1.313-0.343
			c-0.234-0.001-0.311-0.09-0.268-0.312c0.009-0.053,0.004-0.109,0.006-0.163C110.283,27.411,110.396,27.156,110.795,27.031z
			 M106.66,32.446c-0.321,0.175-0.495,0.153-0.62-0.17c-0.287-0.744-0.646-1.472-0.667-2.294c0-0.021,0.007-0.043,0.021-0.115
			c0.747,0.453,1.512,0.775,2.344,0.915c0.01,0.001,0.021,0.007,0.031,0.011c0.144,0.044,0.355-0.044,0.431,0.084
			c0.104,0.175,0.021,0.402,0.038,0.607c0.011,0.13-0.089,0.157-0.175,0.202C107.595,31.938,107.128,32.193,106.66,32.446z
			 M107.79,35.406c-0.192,0.06-0.387,0.112-0.622,0.178c0.284-0.416,0.687-0.633,1.021-0.934
			C108.322,35.2,108.298,35.251,107.79,35.406z M107.819,28.762c-0.647,0.218-1.219,0.612-1.896,0.755
			c-0.693,0.146-0.699,0.147-0.682-0.559c0.004-0.231,0.031-0.459,0.318-0.48c0.956-0.077,1.879-0.306,2.786-0.616
			C108.402,28.507,108.396,28.568,107.819,28.762z M108.341,26.261c-0.11,0.294-0.53,0.263-0.808,0.384
			c-0.788,0.344-1.526,0.773-2.245,1.248c0.459-1.524,1.568-2.289,3.063-2.613C108.356,25.617,108.448,25.977,108.341,26.261z
			 M109.274,20.341c1.383-0.384,2.735-0.836,4.189-0.74c0.352,0.023,0.65,0.162,0.938,0.344c0.192,0.122,0.232,0.299,0.131,0.51
			c-0.152,0.315-0.407,0.534-0.678,0.738c-0.488,0.369-1.039,0.625-1.604,0.854c-0.115,0.047-0.203,0.032-0.309-0.007
			c-0.328-0.124-0.708-0.086-1.012-0.22c-0.29-0.126-0.363-0.545-0.629-0.76c-0.184-0.149-0.342-0.324-0.605-0.357
			C109.513,20.679,109.384,20.526,109.274,20.341z"/>
		<path fill-rule="evenodd" clip-rule="evenodd" fill="#FFFFFF" d="M87.18,34.743c-0.699-0.862-1.64-0.939-2.644-0.82
			c-0.876,0.103-1.748,0.25-2.636,0.104c-0.2-0.033-0.272-0.093-0.273-0.307c-0.006-1.78-0.089-3.558-0.047-5.338
			c0.033-1.309,0.085-2.618,0.313-3.912c0.073-0.418,0.245-0.811,0.291-1.235c0.067-0.629-0.039-1.145-0.651-1.5
			c-0.614-0.354-1.232-0.692-1.869-1.001c-1.135-0.548-2.247-0.495-3.346,0.107c-0.184,0.101-0.362,0.23-0.619,0.224
			c0.206-0.312,0.503-0.449,0.802-0.575c0.207-0.088,0.378-0.204,0.5-0.398c0.388-0.616,0.344-1.524-0.129-2.075
			c-0.497-0.579-1.093-1.028-1.821-1.281c-0.279-0.096-0.563-0.201-0.787-0.386c-0.28-0.229-0.584-0.265-0.916-0.238
			c-0.079,0.006-0.185-0.043-0.227,0.069c-0.037,0.095,0.035,0.162,0.088,0.231c0.317,0.419,0.574,0.875,0.728,1.378
			c0.184,0.593,0.199,1.18-0.152,1.729c-0.301,0.471-0.657,0.895-1.078,1.267c-0.635,0.56-1.386,0.944-2.098,1.383
			c-0.838,0.519-1.285,1.259-1.504,2.188c-0.164,0.691-0.071,1.387-0.102,2.08c-0.042,0.953-0.212,1.897-0.256,2.858
			c-0.05,1.065-0.195,2.125-0.092,3.198c0.091,0.949,0.43,1.813,0.862,2.647c0.127,0.247,0.309,0.34,0.621,0.235
			c0.25-0.082,0.344-0.246,0.423-0.445c0.375-0.934,0.515-1.93,0.707-2.911c0.026-0.131-0.018-0.274-0.149-0.394
			c-0.236,0.486-0.306,1.023-0.618,1.478c-0.116-0.151-0.066-0.299-0.085-0.433c-0.019-0.141-0.018-0.283-0.036-0.424
			c-0.186-1.316-0.223-2.627,0.118-3.93c0.185-0.709,0.193-1.434,0.011-2.138c-0.208-0.795-0.335-1.59-0.278-2.414
			c0.026-0.37,0.146-0.52,0.515-0.543c0.483-0.031,0.943-0.162,1.401-0.295c0.304-0.089,0.59-0.256,0.875,0.037
			c0.04,0.04,0.122,0.037,0.185,0.055c0.276,0.081,0.563,0.06,0.845,0.079c0.064,0.003,0.203-0.033,0.171,0.077
			c-0.109,0.377,0.03,0.558,0.404,0.597c0.024,0.002,0.045,0.044,0.065,0.07c0.224,0.307,0.128,1.118-0.171,1.35
			c-0.301,0.232-0.613,0.452-0.923,0.672c-0.136,0.097-0.302,0.14-0.411-0.008c-0.325-0.447-0.855-0.62-1.25-0.972
			c-0.115-0.103-0.275-0.159-0.425-0.08c-0.137,0.073-0.097,0.228-0.11,0.356c-0.073,0.659,0.097,1.301,0.161,1.949
			c0.082,0.821,0.157,1.668,0.917,2.255c-0.573,0.19-1.092,0.41-1.686,0.255c-0.304-0.077-0.464,0.112-0.383,0.412
			c0.099,0.37,0.262,0.714,0.498,1.019c0.125,0.161,0.294,0.297,0.502,0.245c0.234-0.058,0.24,0.032,0.246,0.219
			c0.016,0.612-0.101,1.221-0.048,1.833c0.028,0.341,0.072,0.709,0.399,0.884c0.234,0.125,0.236,0.232,0.152,0.435
			c-0.057,0.141-0.109,0.333,0.004,0.436c0.106,0.097,0.226-0.069,0.341-0.118c0.048-0.02,0.097-0.064,0.141-0.061
			c0.152,0.013,0.353,0.021,0.385,0.185c0.035,0.179-0.174,0.146-0.284,0.178c-0.397,0.115-0.796,0.22-1.196,0.327
			c-2.416,0.646-4.842,1.249-7.317,1.633c-0.592,0.092-1.188,0.162-1.782,0.241c-0.417,0.055-0.51,0.23-0.327,0.59
			c0.059,0.115,0.079,0.246,0.111,0.373c0.108,0.411,0.232,0.817,0.476,1.172c0.195,0.285,0.454,0.5,0.822,0.419
			c0.837-0.185,1.684-0.333,2.499-0.617c1.804-0.627,3.556-1.396,5.385-1.957c0.271-0.083,0.535-0.204,0.84-0.219
			c-0.349,0.921-0.731,1.795-1.252,2.604c-0.428,0.666-1.009,1.133-1.732,1.436c-0.136,0.056-0.286,0.15-0.422,0.006
			c-0.115-0.121-0.074-0.264-0.023-0.398c0.038-0.102,0.093-0.205-0.035-0.287c-0.137-0.084-0.229,0.002-0.313,0.089
			c-0.068,0.068-0.122,0.152-0.183,0.229c-0.296,0.377-0.596,0.753-0.956,1.075c-0.277,0.249-0.266,0.402,0.068,0.579
			c0.105,0.055,0.22,0.102,0.335,0.124c0.973,0.185,1.945,0.244,2.918-0.006c1.598-0.411,2.497-1.519,2.968-3.019
			c0.26-0.833,0.576-1.638,0.94-2.427c0.178-0.386,0.34-0.648,0.872-0.72c1.053-0.142,2.096-0.383,3.152-0.53
			c0.286-0.04,0.496-0.009,0.626,0.293c0.093,0.218,0.244,0.412,0.379,0.609c0.272,0.404,0.547,0.439,0.922,0.119
			c0.319-0.274,0.543-0.624,0.753-0.98c0.073-0.123,0.137-0.193,0.297-0.193c0.732,0.004,1.458,0.063,2.182,0.183
			c0.682,0.113,1.302,0.419,1.967,0.579c0.63,0.152,1.251,0.279,1.849-0.151c0.214-0.153,0.268-0.317,0.198-0.523
			C87.625,35.513,87.466,35.094,87.18,34.743z M72.774,31.809c-0.103-0.194-0.128-0.492,0.052-0.714
			c0.358-0.44,0.822-0.754,1.267-1.082c0.292,0.822-0.143,1.255-0.763,1.59c-0.019,0.012-0.035,0.026-0.054,0.036
			C73.109,31.727,72.834,31.923,72.774,31.809z M74.07,33.947c-0.314-0.068-0.63-0.063-0.943,0.002
			c-0.212,0.042-0.249-0.054-0.2-0.227c0.062-0.223,0.156-0.429,0.274-0.625c0.289-0.476,0.637-0.904,1.077-1.375
			c0,0.74-0.005,1.391,0.003,2.043C74.283,33.933,74.224,33.979,74.07,33.947z M74.401,27.949c0.011,0.117-0.051,0.185-0.139,0.235
			c-0.234,0.135-0.469,0.267-0.752,0.43c-0.101-0.976,0.519-1.502,1.083-2.064C74.458,27.01,74.357,27.471,74.401,27.949z
			 M76.029,26.597c0.111-0.62,0.22-1.224,0.327-1.828c0.046-0.253,0.25-0.236,0.424-0.235c0.196,0.001,0.344,0.109,0.339,0.317
			c-0.014,0.669-0.122,1.315-0.52,1.878c-0.018,0.025-0.041,0.051-0.065,0.072c-0.125,0.115-0.282,0.218-0.438,0.159
			C75.91,26.891,76.094,26.708,76.029,26.597z M75.729,30.884c0.022-0.103,0.069-0.136,0.164-0.167
			c0.518-0.163,0.928,0.15,0.918,0.714c-0.004,0.303-0.126,0.567-0.303,0.809c-0.227,0.311-0.498,0.573-0.862,0.841
			C75.576,32.303,75.575,31.591,75.729,30.884z M79.391,31.24c-0.045,0.958-0.115,1.916-0.313,2.857
			c-0.031,0.148-0.064,0.247-0.249,0.279c-1.158,0.206-2.321,0.36-3.54,0.468c0.069-0.161,0.159-0.271,0.153-0.377
			c-0.019-0.453,0.266-0.572,0.63-0.63c0.074-0.012,0.151-0.035,0.214-0.074c0.456-0.275,0.968-0.408,1.458-0.603
			c0.677-0.269,0.914-0.749,0.795-1.478c-0.124-0.756-0.966-1.728-2-1.716c-0.111,0.001-0.223-0.005-0.313,0.064
			c-0.129,0.098-0.294,0.102-0.402,0.041c-0.129-0.073-0.015-0.237-0.018-0.361c-0.012-0.466,0.296-0.615,0.675-0.717
			c0.667-0.18,1.326-0.26,1.972,0.075c0.161,0.084,0.337,0.051,0.513,0.048c0.207-0.002,0.231-0.107,0.216-0.271
			c-0.037-0.416-0.26-0.706-0.607-0.913c-0.235-0.141-0.492-0.224-0.756-0.293c-0.225-0.059-0.334-0.166-0.147-0.41
			c0.259-0.339,0.518-0.676,0.821-0.977c0.628-0.625,0.552-1.844-0.162-2.365c-0.385-0.283-0.837-0.407-1.305-0.474
			c-0.074-0.012-0.151,0.007-0.228,0.01c-0.115,0.007-0.227,0.19-0.312,0.092c-0.13-0.152-0.21-0.353-0.289-0.542
			c-0.058-0.136,0.067-0.132,0.149-0.137c0.666-0.05,1.223-0.361,1.752-0.733c0.41-0.29,0.794-0.213,1.039,0.227
			c0.323,0.58,0.373,1.229,0.376,1.871C79.53,26.549,79.5,28.896,79.391,31.24z"/>
		<path fill-rule="evenodd" clip-rule="evenodd" fill="#FFFFFF" d="M81.432,39.733c-1.443-0.672-2.986-0.977-4.551-1.188
			c-0.287-0.039-0.578-0.139-0.866,0.001c-0.057,0.027-0.137,0.031-0.138,0.111c-0.002,0.079,0.075,0.104,0.13,0.13
			c1.011,0.467,1.695,1.312,2.392,2.122c0.71,0.827,1.369,1.697,2.171,2.44c0.424,0.394,0.864,0.768,1.418,0.969
			c0.518,0.19,0.935,0.019,0.996-0.442c0.062-0.473,0.196-0.941,0.16-1.369C83.145,41.146,82.611,40.284,81.432,39.733z"/>
		<path fill-rule="evenodd" clip-rule="evenodd" fill="#FFFFFF" d="M95.2,27.024c0.409-0.059,0.822-0.091,1.217-0.225
			c1.344-0.459,2.682-0.946,4.079-1.231c0.288-0.059,0.362-0.282,0.362-0.564c-0.006-0.044-0.014-0.109-0.021-0.174
			c-0.125-0.925-1.236-2.518-2.783-2.681c-0.396-0.041-0.781,0.014-1.168-0.02c-0.26-0.022-0.503-0.125-0.732-0.25
			c-0.112-0.06-0.255-0.077-0.344-0.009c-0.102,0.08,0.006,0.195,0.036,0.294c0.025,0.083,0.048,0.166,0.071,0.25
			c0.211,0.735,0.404,1.473,1.203,1.834c0.18,0.082,0.276,0.307,0.108,0.499c-0.519,0.59-1.048,1.173-1.669,1.654
			c-0.168,0.131-0.359,0.227-0.479,0.412c-0.034,0.049-0.101,0.105-0.059,0.172C95.061,27.048,95.138,27.033,95.2,27.024z"/>
	</g>
	<g>
		<g>
			<path fill="#F2AB36" d="M66.158,66.303c-1.726,0-3.19-0.839-4.394-2.517c-1.205-1.678-1.807-3.471-1.807-5.38
				c0-2.294,0.632-4.25,1.896-5.871c1.264-1.62,2.732-2.43,4.404-2.43c1.572,0,2.982,0.824,4.229,2.471
				c1.248,1.647,1.871,3.517,1.871,5.611c0,2.155-0.625,4.047-1.875,5.675C69.231,65.489,67.79,66.303,66.158,66.303z
				 M66.197,50.694c-0.73,0-1.385,0.194-1.965,0.583s-0.975,1.063-1.185,2.026c-0.208,0.962-0.313,2.64-0.313,5.033
				c0,1.654,0.06,2.975,0.179,3.959c0.12,0.986,0.423,1.803,0.91,2.448c0.488,0.646,1.253,0.97,2.294,0.97
				c0.637,0,1.276-0.196,1.917-0.588c0.64-0.393,1.058-1.164,1.254-2.315c0.195-1.15,0.293-2.919,0.293-5.305
				c0-2.163-0.122-3.656-0.364-4.48c-0.242-0.823-0.63-1.418-1.164-1.783C67.52,50.877,66.9,50.694,66.197,50.694z"/>
			<path fill="#F2AB36" d="M85.68,50.29v4.595h-0.428c-0.464-2.794-1.666-4.19-3.603-4.19c-1.042,0-1.802,0.473-2.279,1.419
				s-0.717,2.941-0.717,5.981c0,2.501,0.103,4.201,0.309,5.104c0.206,0.9,0.562,1.545,1.07,1.934
				c0.507,0.389,1.066,0.582,1.677,0.582c0.796,0,1.544-0.348,2.245-1.045c0.7-0.696,1.242-1.814,1.627-3.354h0.468l-0.159,4.723
				h-0.408c-0.153-0.492-0.392-0.908-0.716-1.248c-1.049,1.009-2.126,1.513-3.235,1.513c-1.407,0-2.691-0.773-3.852-2.319
				c-1.161-1.548-1.742-3.441-1.742-5.682c0-2.285,0.571-4.223,1.712-5.813c1.141-1.589,2.461-2.384,3.961-2.384
				c1.155,0,2.173,0.481,3.056,1.443c0.259-0.477,0.454-0.896,0.587-1.258H85.68z"/>
			<path fill="#F2AB36" d="M91.538,65.356V51.052h-2.1v-0.589h6.588v0.589h-2.119v6.615h5.762v-6.615h-2.08v-0.589h6.549v0.589h-2.1
				v14.305h2.1v0.589h-6.549v-0.589h2.08v-7.101h-5.762v7.101h2.119v0.589h-6.588v-0.589H91.538z"/>
			<path fill="#F2AB36" d="M110.165,65.356V51.052h-2.09v-0.589h6.559v0.589h-2.1v14.305h2.1v0.589h-6.559v-0.589H110.165z
				 M116.057,50.463h5.036v0.589h-2.04l-4.419,5.266l6.459,9.039h1.304v0.589h-6.559v-0.589h2.299l-5.374-7.643l5.563-6.662h-2.27
				V50.463z"/>
		</g>
	</g>
	<path fill="#FFFFFF" d="M91.315,97.336L44.87,63.591L62.611,8.993h57.408l17.741,54.598L91.315,97.336z M46.28,63.134l45.035,32.72
		l45.036-32.72l-17.203-52.942H63.482L46.28,63.134z"/>
	<g>
		<path fill-rule="evenodd" clip-rule="evenodd" fill="#FFFFFF" d="M104.458,77.069c-0.15-0.927-0.563-1.717-1.234-2.371
			c-0.625-0.605-1.371-0.98-2.229-1.131c-0.133-0.023-0.269-0.033-0.402-0.049c-0.022-0.002-0.045-0.007-0.066-0.011
			c-0.16,0-0.32,0-0.481,0c-0.017,0.004-0.035,0.01-0.052,0.011c-0.389,0.025-0.768,0.101-1.133,0.236
			c-1.17,0.439-2.002,1.234-2.488,2.387c-0.076,0.182-0.133,0.372-0.193,0.551c0.34,0.069,0.664,0.135,0.987,0.201
			c0.051-0.138,0.097-0.292,0.164-0.438c0.499-1.082,1.337-1.732,2.515-1.91c0.837-0.128,1.61,0.073,2.305,0.563
			c1.062,0.75,1.565,2.07,1.277,3.34c-0.377,1.666-1.999,2.761-3.68,2.461c-1.121-0.199-1.92-0.84-2.406-1.866
			c-0.025-0.054-0.058-0.089-0.109-0.114c-0.233-0.12-0.478-0.211-0.736-0.258c-0.109-0.02-0.223-0.031-0.342-0.047
			c0.006,0.03,0.008,0.043,0.01,0.056c0.209,0.886,0.649,1.638,1.336,2.231c1.006,0.865,2.174,1.197,3.482,0.991
			c0.912-0.146,1.693-0.563,2.336-1.228c0.646-0.666,1.031-1.46,1.156-2.381c0.016-0.11,0.027-0.221,0.039-0.33
			c0-0.152,0-0.305,0-0.455C104.495,77.361,104.482,77.214,104.458,77.069z"/>
		<path fill-rule="evenodd" clip-rule="evenodd" fill="#FFFFFF" d="M82.019,74.53c1.001-0.09,1.889,0.193,2.604,0.907
			c0.889,0.888,1.17,1.959,0.848,3.173c-0.194,0.733-0.625,1.313-1.236,1.758c-0.022,0.017-0.046,0.043-0.054,0.066
			c-0.084,0.269-0.124,0.544-0.119,0.824c0.001,0.107,0.014,0.213,0.022,0.324c0.026-0.01,0.035-0.014,0.046-0.018
			c0.789-0.374,1.41-0.933,1.854-1.684c0.505-0.855,0.687-1.78,0.543-2.762c-0.147-0.994-0.599-1.834-1.342-2.512
			c-0.618-0.564-1.344-0.912-2.17-1.045c-0.147-0.023-0.295-0.038-0.442-0.056c-0.142,0-0.284,0-0.426,0
			c-0.138,0.018-0.277,0.032-0.415,0.053c-0.819,0.12-1.542,0.452-2.165,0.995c-0.639,0.558-1.079,1.248-1.297,2.068
			c-0.068,0.255-0.094,0.521-0.14,0.784c-0.002,0.019-0.007,0.038-0.011,0.059c0,0.173,0,0.348,0,0.522
			c0.023,0.173,0.039,0.346,0.071,0.516c0.172,0.922,0.606,1.703,1.293,2.336c0.702,0.649,1.535,1.012,2.486,1.104
			c0.078,0.007,0.156,0.01,0.226,0.013c0-0.339,0-0.666,0-0.999c0.001,0.003-0.002-0.002-0.006-0.002
			c-0.074-0.007-0.146-0.013-0.219-0.023c-0.923-0.115-1.67-0.548-2.219-1.293c-0.548-0.742-0.736-1.58-0.574-2.491
			C79.425,75.751,80.608,74.654,82.019,74.53z"/>
		<path fill-rule="evenodd" clip-rule="evenodd" fill="#FFFFFF" d="M98.905,82.237c-0.081,0.287-0.195,0.563-0.355,0.814
			c-0.601,0.949-1.463,1.473-2.582,1.543c-0.882,0.057-1.668-0.221-2.319-0.819c-0.854-0.783-1.204-1.763-1.03-2.908
			c0.133-0.878,0.586-1.576,1.301-2.106c0.027-0.022,0.055-0.058,0.061-0.093c0.045-0.216,0.095-0.433,0.12-0.653
			c0.02-0.162,0.004-0.33,0.004-0.504c-0.021,0.009-0.036,0.014-0.05,0.02c-0.567,0.264-1.063,0.623-1.465,1.103
			c-0.854,1.019-1.175,2.19-0.951,3.499c0.159,0.925,0.6,1.709,1.289,2.348c0.627,0.582,1.363,0.939,2.207,1.074
			c0.135,0.021,0.268,0.035,0.402,0.053c0.174,0,0.348,0,0.521,0c0.021-0.004,0.041-0.009,0.061-0.012
			c0.207-0.031,0.416-0.045,0.617-0.096c1.48-0.372,2.493-1.275,3.043-2.699c0.053-0.137,0.088-0.281,0.129-0.415
			c-0.336-0.062-0.661-0.12-0.99-0.181C98.916,82.208,98.909,82.222,98.905,82.237z"/>
		<path fill-rule="evenodd" clip-rule="evenodd" fill="#FFFFFF" d="M89.941,82.221c-0.051,0.143-0.09,0.288-0.153,0.427
			c-0.548,1.187-1.477,1.85-2.778,1.947c-0.87,0.066-1.651-0.211-2.301-0.793c-0.877-0.787-1.235-1.78-1.057-2.945
			c0.134-0.872,0.588-1.566,1.296-2.095c0.026-0.021,0.051-0.053,0.061-0.084c0.086-0.29,0.135-0.588,0.138-0.893
			c0-0.09-0.005-0.181-0.007-0.271c-0.018,0.003-0.022,0.003-0.027,0.005c-0.065,0.03-0.132,0.063-0.197,0.096
			c-0.763,0.395-1.362,0.961-1.78,1.713c-0.46,0.828-0.626,1.715-0.492,2.652c0.121,0.848,0.472,1.595,1.048,2.229
			c0.669,0.736,1.495,1.187,2.479,1.345c0.129,0.021,0.258,0.035,0.388,0.053c0.177,0,0.357,0,0.536,0
			c0.067-0.009,0.134-0.018,0.203-0.025c0.667-0.072,1.284-0.294,1.843-0.665c0.902-0.6,1.498-1.427,1.779-2.474
			c0.006-0.023,0.009-0.047,0.012-0.059c-0.332-0.061-0.654-0.119-0.983-0.181C89.95,82.2,89.944,82.212,89.941,82.221z"/>
		<path fill-rule="evenodd" clip-rule="evenodd" fill="#FFFFFF" d="M94.535,78.138c-0.106,0.931-0.571,1.674-1.329,2.229
			c-0.029,0.021-0.054,0.057-0.064,0.092c-0.1,0.318-0.126,0.646-0.105,0.976c0.004,0.048,0.014,0.095,0.02,0.141
			c0.01,0,0.016,0.003,0.02,0c0.016-0.005,0.029-0.012,0.043-0.019c0.867-0.42,1.525-1.052,1.964-1.908
			c0.429-0.842,0.558-1.73,0.393-2.656c-0.165-0.93-0.601-1.719-1.295-2.359c-0.624-0.577-1.362-0.936-2.202-1.071
			c-0.146-0.022-0.295-0.035-0.443-0.053c-0.137,0-0.274,0-0.412,0c-0.136,0.015-0.273,0.024-0.409,0.046
			c-1.574,0.229-2.876,1.306-3.397,2.805c-0.039,0.115-0.07,0.231-0.103,0.337c0.335,0.067,0.66,0.134,0.989,0.2
			c0.002-0.008,0.008-0.023,0.014-0.043c0.098-0.348,0.248-0.674,0.462-0.967c0.611-0.843,1.438-1.309,2.477-1.367
			c0.765-0.045,1.472,0.156,2.084,0.619C94.235,75.888,94.679,76.899,94.535,78.138z"/>
		<path fill-rule="evenodd" clip-rule="evenodd" fill="#FFFFFF" d="M88.448,79.209c-0.058-0.225-0.228-0.327-0.431-0.394
			c-0.018-0.006-0.034-0.013-0.051-0.02c-0.25-0.096-0.507-0.154-0.781-0.168c0.416,1.988,2.222,3.314,3.977,3.323
			c0-0.33,0-0.66,0-0.99c-0.13-0.017-0.269-0.026-0.403-0.053C89.722,80.706,88.951,80.139,88.448,79.209z"/>
		<path fill-rule="evenodd" clip-rule="evenodd" fill="#FFFFFF" d="M87.57,78.247c1.011,0.255,1.741,0.859,2.193,1.801
			c0.018,0.037,0.044,0.079,0.077,0.096c0.245,0.133,0.502,0.234,0.772,0.303c0.112,0.026,0.227,0.044,0.357,0.069
			c-0.23-1.005-0.73-1.819-1.521-2.449c-0.724-0.576-1.556-0.871-2.469-0.911c0.008,0.338,0.015,0.668,0.024,1.004
			c0.007,0.001,0.03,0.003,0.052,0.007C87.228,78.191,87.402,78.204,87.57,78.247z"/>
		<path fill-rule="evenodd" clip-rule="evenodd" fill="#FFFFFF" d="M96.273,78.195c1.147,0.198,1.968,0.827,2.468,1.876
			c0.014,0.029,0.037,0.059,0.066,0.072c0.268,0.145,0.549,0.252,0.845,0.318c0.091,0.021,0.183,0.033,0.278,0.049
			c-0.386-1.88-2.059-3.305-3.984-3.351c0.01,0.333,0.017,0.665,0.025,0.997C96.065,78.169,96.171,78.177,96.273,78.195z"/>
	</g>
</g>
</svg>
