<?xml version="1.0" encoding="utf-8"?>
<!-- Generator: Adobe Illustrator 16.0.0, SVG Export Plug-In . SVG Version: 6.00 Build 0)  -->
<!DOCTYPE svg PUBLIC "-//W3C//DTD SVG 1.1//EN" "http://www.w3.org/Graphics/SVG/1.1/DTD/svg11.dtd">
<svg version="1.1" id="圖層_1" xmlns="http://www.w3.org/2000/svg" xmlns:xlink="http://www.w3.org/1999/xlink" x="0px" y="0px"
	 width="179.748px" height="106.74px" viewBox="0 0 179.748 106.74" enable-background="new 0 0 179.748 106.74"
	 xml:space="preserve">
<g>
	<path d="M179.748,30.382h-45.323l2.188,6.729C153.938,35.594,168.799,33.265,179.748,30.382z"/>
	<path d="M0,30.382c10.948,2.883,25.809,5.212,43.134,6.729l2.187-6.729H0z"/>
	<path d="M8.987,42.352c8.105,2.132,18.592,3.932,30.735,5.261l1.709-5.261H8.987z"/>
	<path d="M170.76,42.352h-32.443l1.708,5.261C152.166,46.284,162.653,44.484,170.76,42.352z"/>
	<path d="M162.673,54.28H142.19l1.199,3.688C150.791,56.929,157.317,55.688,162.673,54.28z"/>
	<path d="M17.076,54.28c5.353,1.408,11.879,2.648,19.283,3.688l1.198-3.688H17.076z"/>
	<path d="M138.316,42.352l-1.703-5.242l-2.188-6.729L124.556,0H55.192l-9.871,30.382l-2.187,6.729l-1.703,5.242l-1.709,5.261
		l-2.166,6.667l-1.198,3.688l-2.6,8l56.114,40.771l56.115-40.771l-2.599-8l-1.199-3.688l-2.166-6.667L138.316,42.352z
		 M140.438,64.165l-50.565,36.738L39.307,64.165L58.621,4.721h62.504L140.438,64.165z"/>
	<path d="M94.643,31.075c0.475,0.145,0.535,0.271,0.438,0.755c-0.112,0.553-0.141,1.11-0.07,1.667
		c0.151,1.202,0.742,2.175,1.632,2.973c0.207,0.184,0.379,0.387,0.438,0.661c0.055,0.269,0.03,0.532-0.26,0.648
		c-0.655,0.264-1.33,0.479-2.022,0.614c-0.384,0.078-0.772,0.033-1.151,0.114c-0.238,0.05-0.383,0.21-0.246,0.407
		c0.363,0.527,0.578,1.16,1.115,1.559c0.188,0.14,0.375,0.283,0.554,0.439c0.302,0.268,0.538,0.285,0.806-0.013
		c0.229-0.257,0.516-0.371,0.832-0.445c0.532-0.13,1.081-0.151,1.623-0.225c1.394-0.186,2.727,0.015,4.03,0.519
		c0.675,0.255,1.269,0.668,1.961,0.877c1.76,0.53,3.531,1.016,5.321,1.448c0.979,0.236,1.963,0.364,2.963,0.145
		c0.581-0.127,1.13-0.375,1.713-0.521c1.382-0.341,2.771-0.645,4.13-1.061c0.323-0.099,0.275-0.228,0.13-0.416
		c-0.297-0.371-0.673-0.627-1.124-0.773c-0.86-0.27-1.743-0.246-2.618-0.153c-1.359,0.145-2.712,0.267-4.079,0.215
		c-0.883-0.037-1.758-0.126-2.625-0.273c-0.101-0.017-0.266,0.007-0.194-0.213c0.361-1.063,0.507-2.168,0.547-3.286
		c0.008-0.234-0.051-0.533,0.072-0.686c0.135-0.178,0.454-0.132,0.696-0.148c1.047-0.058,2.087-0.229,3.144-0.026
		c0.746,0.141,1.518,0.114,2.28,0.009c0.235-0.033,0.308-0.159,0.296-0.372c-0.01-0.175-0.059-0.339-0.151-0.486
		c-0.229-0.367-0.486-0.708-0.814-0.991c-0.522-0.446-1.094-0.78-1.822-0.754c-0.342,0.013-0.684-0.071-1.003-0.203
		c-0.288-0.121-0.556-0.279-0.683-0.612c0.208-0.062,0.409-0.112,0.618-0.151c0.756-0.147,0.893-0.138,0.949-0.898
		c0.008-0.104,0.059-0.186,0.112-0.263c0.56-0.786,1.014-1.642,1.53-2.452c0.453-0.713,0.395-1.348-0.209-1.948
		c-1.301-1.29-2.821-1.913-4.672-1.487c-0.068,0.016-0.146,0.067-0.191-0.035c-0.044-0.091,0.119-0.786,0.205-0.813
		c0.509-0.155,0.983-0.458,1.488-0.557c0.692-0.136,0.797-0.539,0.676-1.056c-0.042-0.18,0.011-0.219,0.167-0.248
		c0.976-0.194,1.97-0.262,2.946-0.142c0.65,0.081,1.258,0.015,1.879-0.097c0.26-0.046,0.402-0.221,0.398-0.508
		c-0.008-0.194-0.059-0.385-0.153-0.55c-0.689-1.232-1.623-2.204-2.956-2.746c-1.038-0.422-2.11-0.494-3.22-0.391
		c-1.591,0.146-3.181,0.302-4.73,0.719c-0.869,0.234-1.742,0.505-2.418,1.132c-0.511,0.476-0.567,0.552-0.901-0.257
		c-0.038-0.099-0.048-0.208-0.076-0.313c-0.064-0.231-0.068-0.466-0.064-0.704c0.002-0.16-0.076-0.236-0.225-0.26
		c-0.161-0.022-0.151,0.109-0.186,0.206c-0.135,0.41-0.175,0.836-0.228,1.262c-0.112,0.914-0.384,1.774-1.009,2.486
		c-0.258,0.301-0.389,0.653-0.421,1.052c-0.064,0.737,0.279,1.374,0.484,2.039c0.047,0.16,0.218,0.199,0.383,0.173
		c0.217-0.037,0.402-0.126,0.555-0.296c0.243-0.275,0.427-0.588,0.588-0.914c0.313-0.624,0.551-1.275,0.773-1.933
		c0.188-0.55,0.509-1.035,1.04-1.255c0.475-0.193,0.932-0.409,1.39-0.639c0.133-0.068,0.278-0.111,0.417-0.165
		c0.143-0.052,0.247-0.054,0.289,0.14c0.063,0.277,0.228,0.495,0.446,0.683c0.222,0.192,0.37,0.441,0.457,0.724
		c0.052,0.166,0.006,0.256-0.159,0.318c-0.699,0.269-1.403,0.515-2.144,0.654c-0.315,0.057-0.634,0.101-0.955,0.132
		c-0.307,0.024-0.467,0.21-0.343,0.382c0.358,0.511,0.753,0.994,1.368,1.221c0.231,0.085,0.467,0.164,0.734,0.254
		c-0.121,0.084-0.216,0.153-0.309,0.218c-0.611,0.419-1.194,0.872-1.735,1.383c-0.672,0.635-0.953,1.429-1.021,2.324
		c-0.089,1.247,0.317,2.36,0.891,3.435c0.055,0.106,0.129,0.197,0.095,0.353c-0.078,0.359,0.326,1.167,0.644,1.348
		c0.148,0.084,0.315,0.104,0.465,0.034c0.535-0.255,1.126-0.341,1.659-0.592c0.072-0.035,0.143-0.093,0.231-0.029
		c-0.189,0.532-1.945,1.733-2.452,1.898c-0.943,0.312-1.921,0.447-2.918,0.328c-0.226-0.027-0.423,0.032-0.605,0.155
		c-0.175,0.114-0.249,0.248-0.036,0.391c0.179,0.12,0.277,0.289,0.366,0.477c0.464,0.978,1.764,1.63,2.906,0.999
		c0.177-0.098,0.368-0.171,0.551-0.256c0.863-0.393,1.754-0.711,2.618-1.022c0.226,1.177-0.225,2.335,0.022,3.524
		c-0.537-0.01-1.044-0.155-1.559-0.298c-1.854-0.513-3.711-1.031-5.615-1.34c-0.315-0.05-0.463-0.151-0.454-0.478
		c0.004-0.124-0.043-0.25-0.073-0.374c-0.294-1.117-0.937-2.042-1.663-2.904c-0.398-0.471-0.366-0.701-0.086-1.177
		c0.247-0.415,0.526-0.81,0.784-1.217c0.317-0.503,0.41-1.095,0.058-1.545c-0.615-0.778-1.325-1.497-2.199-2.013
		c-0.174-0.104-0.371-0.192-0.58-0.13c-0.369,0.11-0.744,0.076-1.113,0.046c-0.28-0.021-0.596-0.046-0.725-0.381
		c-0.039-0.108-0.093-0.205-0.217-0.203c-0.162,0.001-0.151,0.156-0.184,0.261c-0.024,0.082-0.032,0.167-0.034,0.252
		C92.828,29.715,93.35,30.674,94.643,31.075z M110.994,33.728c0.078,0.07,0.148,0.143,0.103,0.248
		c-0.04,0.089-0.141,0.082-0.229,0.078c-0.699,0-1.39,0.078-2.077,0.184c-0.404,0.063-0.402,0.067-0.402-0.332
		c0-0.085,0-0.172,0-0.255c0-0.603-0.002-0.608,0.573-0.815c0.31-0.115,0.627-0.208,0.936-0.324
		c0.148-0.058,0.225-0.043,0.293,0.112C110.371,33.05,110.645,33.422,110.994,33.728z M109.047,26.606
		c0.58-0.182,1.143-0.418,1.765-0.415c0.38,0.002,0.539,0.16,0.498,0.534c-0.108,0.972-0.279,1.927-0.782,2.789
		c-0.124,0.213-0.247,0.38-0.541,0.367c-0.433-0.02-0.513,0.118-0.372,0.527c0.047,0.142,0.184,0.236,0.195,0.434
		c-0.384,0-0.746-0.008-1.112,0.004c-0.167,0.008-0.179-0.063-0.193-0.202c-0.034-0.363,0.043-0.604,0.427-0.767
		c0.486-0.209,0.963-0.472,1.315-0.896c0.294-0.354,0.247-0.633-0.171-0.843c-0.404-0.209-0.835-0.339-1.293-0.339
		c-0.229-0.002-0.306-0.089-0.264-0.308c0.01-0.05,0.004-0.104,0.006-0.161C108.542,26.977,108.653,26.726,109.047,26.606z
		 M111.672,19.29c0.348,0.025,0.644,0.159,0.923,0.341c0.189,0.12,0.228,0.294,0.129,0.5c-0.15,0.312-0.4,0.526-0.667,0.728
		c-0.481,0.363-1.022,0.616-1.577,0.841c-0.115,0.048-0.199,0.032-0.304-0.008c-0.324-0.121-0.698-0.083-0.998-0.215
		c-0.285-0.124-0.357-0.536-0.617-0.745c-0.181-0.147-0.338-0.322-0.594-0.353c-0.183-0.027-0.312-0.178-0.416-0.358
		C108.91,19.642,110.24,19.197,111.672,19.29z M106.64,24.88c0.006,0.333,0.095,0.686-0.01,0.966
		c-0.108,0.291-0.521,0.257-0.793,0.38c-0.778,0.337-1.504,0.758-2.21,1.227C104.077,25.951,105.168,25.2,106.64,24.88z
		 M103.891,28.029c0.943-0.075,1.853-0.3,2.743-0.605c0.057,0.633,0.05,0.693-0.521,0.883c-0.634,0.216-1.197,0.604-1.863,0.745
		c-0.68,0.145-0.688,0.145-0.673-0.552C103.581,28.271,103.608,28.051,103.891,28.029z M104.977,31.935
		c-0.319,0.171-0.488,0.149-0.611-0.168c-0.281-0.733-0.636-1.45-0.656-2.258c0-0.022,0.009-0.043,0.021-0.113
		c0.734,0.448,1.486,0.761,2.309,0.901c0.009,0,0.019,0.006,0.03,0.011c0.139,0.041,0.349-0.046,0.421,0.082
		c0.104,0.171,0.023,0.395,0.04,0.596c0.01,0.128-0.089,0.156-0.173,0.2C105.894,31.434,105.436,31.683,104.977,31.935z
		 M106.087,34.847c-0.189,0.059-0.38,0.109-0.611,0.174c0.279-0.41,0.678-0.624,1.005-0.917
		C106.613,34.644,106.586,34.694,106.087,34.847z"/>
	<path d="M62.532,39.409c0.824-0.186,1.656-0.33,2.458-0.608c1.775-0.619,3.5-1.375,5.3-1.926c0.268-0.082,0.528-0.201,0.828-0.216
		c-0.345,0.907-0.721,1.767-1.233,2.562c-0.421,0.655-0.994,1.115-1.704,1.411c-0.136,0.055-0.282,0.15-0.417,0.009
		c-0.112-0.119-0.073-0.26-0.023-0.391c0.037-0.104,0.093-0.204-0.033-0.283c-0.134-0.085-0.226,0.002-0.31,0.084
		c-0.066,0.068-0.12,0.15-0.178,0.227c-0.292,0.372-0.587,0.742-0.942,1.059c-0.273,0.244-0.261,0.395,0.067,0.57
		c0.104,0.054,0.216,0.099,0.33,0.12c0.957,0.184,1.914,0.242,2.871-0.004c1.573-0.404,2.458-1.495,2.922-2.972
		c0.256-0.819,0.566-1.612,0.926-2.388c0.173-0.381,0.335-0.639,0.856-0.708c1.037-0.14,2.063-0.378,3.104-0.523
		c0.282-0.039,0.489-0.009,0.616,0.289c0.091,0.214,0.24,0.404,0.373,0.598c0.268,0.398,0.537,0.434,0.907,0.12
		c0.315-0.271,0.534-0.616,0.742-0.966c0.071-0.123,0.135-0.192,0.293-0.192c0.721,0.006,1.434,0.062,2.146,0.181
		c0.671,0.109,1.282,0.411,1.936,0.569c0.621,0.151,1.232,0.275,1.82-0.151c0.211-0.151,0.264-0.311,0.195-0.511
		c-0.14-0.418-0.297-0.829-0.578-1.175c-0.688-0.848-1.613-0.923-2.603-0.806c-0.862,0.103-1.721,0.246-2.595,0.103
		c-0.197-0.034-0.268-0.093-0.268-0.304c-0.007-1.752-0.089-3.5-0.047-5.253c0.032-1.286,0.084-2.577,0.308-3.85
		c0.071-0.412,0.241-0.797,0.286-1.216c0.066-0.618-0.039-1.127-0.641-1.476c-0.604-0.348-1.214-0.682-1.838-0.985
		c-1.119-0.538-2.213-0.486-3.295,0.106c-0.18,0.099-0.355,0.225-0.608,0.219c0.203-0.307,0.495-0.439,0.789-0.567
		c0.203-0.084,0.373-0.198,0.493-0.388c0.381-0.608,0.338-1.502-0.127-2.044c-0.488-0.569-1.076-1.011-1.794-1.263
		c-0.274-0.093-0.554-0.197-0.774-0.378c-0.274-0.225-0.574-0.26-0.9-0.233c-0.078,0.006-0.182-0.042-0.225,0.067
		c-0.035,0.095,0.035,0.159,0.088,0.227c0.313,0.414,0.564,0.864,0.717,1.355c0.179,0.584,0.195,1.162-0.149,1.704
		c-0.298,0.463-0.647,0.879-1.061,1.243c-0.625,0.553-1.366,0.931-2.064,1.363c-0.825,0.511-1.264,1.239-1.481,2.153
		c-0.16,0.68-0.069,1.365-0.1,2.046c-0.042,0.94-0.208,1.867-0.252,2.814c-0.048,1.048-0.192,2.091-0.091,3.146
		c0.091,0.935,0.425,1.784,0.849,2.604c0.126,0.244,0.305,0.337,0.611,0.234c0.247-0.083,0.337-0.242,0.416-0.439
		c0.369-0.921,0.507-1.898,0.696-2.866c0.024-0.127-0.017-0.267-0.146-0.387c-0.232,0.48-0.302,1.007-0.607,1.457
		c-0.115-0.148-0.066-0.295-0.085-0.426c-0.019-0.14-0.016-0.281-0.034-0.418c-0.184-1.297-0.219-2.587,0.116-3.867
		c0.182-0.7,0.189-1.412,0.01-2.105c-0.204-0.782-0.33-1.564-0.273-2.375c0.026-0.363,0.144-0.512,0.507-0.533
		c0.476-0.031,0.927-0.158,1.379-0.291c0.297-0.087,0.58-0.253,0.861,0.034c0.04,0.039,0.121,0.037,0.182,0.055
		c0.272,0.079,0.555,0.058,0.832,0.077c0.063,0.003,0.199-0.032,0.169,0.076c-0.106,0.374,0.03,0.548,0.397,0.588
		c0.024,0.002,0.046,0.041,0.064,0.069c0.222,0.301,0.128,1.098-0.168,1.327c-0.297,0.229-0.604,0.447-0.908,0.662
		c-0.135,0.095-0.298,0.138-0.404-0.007c-0.319-0.442-0.842-0.608-1.23-0.957c-0.113-0.101-0.271-0.158-0.419-0.08
		c-0.135,0.072-0.095,0.227-0.107,0.352c-0.074,0.649,0.095,1.281,0.158,1.916c0.081,0.81,0.154,1.642,0.902,2.221
		c-0.565,0.186-1.075,0.405-1.659,0.25c-0.3-0.073-0.456,0.113-0.378,0.407c0.099,0.365,0.258,0.702,0.491,1.003
		c0.122,0.159,0.29,0.294,0.493,0.24c0.232-0.057,0.237,0.032,0.244,0.216c0.014,0.603-0.1,1.201-0.048,1.805
		c0.027,0.333,0.072,0.697,0.393,0.867c0.23,0.125,0.232,0.229,0.149,0.43c-0.056,0.136-0.107,0.325,0.005,0.426
		c0.104,0.097,0.221-0.066,0.335-0.114c0.046-0.021,0.094-0.063,0.138-0.062c0.15,0.013,0.35,0.021,0.38,0.183
		c0.034,0.175-0.171,0.144-0.28,0.175c-0.391,0.112-0.783,0.216-1.176,0.322c-2.376,0.635-4.767,1.231-7.201,1.607
		c-0.583,0.093-1.169,0.158-1.755,0.24c-0.41,0.05-0.502,0.225-0.321,0.579c0.057,0.112,0.077,0.242,0.109,0.366
		c0.106,0.403,0.229,0.805,0.468,1.154C61.916,39.273,62.17,39.487,62.532,39.409z M75.599,30.935
		c-0.005,0.299-0.125,0.558-0.299,0.796c-0.222,0.304-0.489,0.564-0.847,0.829c-0.07-0.767-0.071-1.469,0.079-2.163
		c0.023-0.103,0.07-0.136,0.162-0.164C75.204,30.072,75.608,30.378,75.599,30.935z M74.827,26.178
		c0.111-0.61,0.218-1.207,0.322-1.802c0.047-0.248,0.246-0.229,0.419-0.229c0.192,0.002,0.339,0.106,0.332,0.313
		c-0.013,0.657-0.12,1.294-0.51,1.847c-0.019,0.024-0.042,0.05-0.064,0.072c-0.124,0.11-0.278,0.212-0.431,0.156
		C74.712,26.467,74.894,26.288,74.827,26.178z M74.61,29.243c-0.012-0.46,0.291-0.605,0.666-0.708
		c0.654-0.174,1.303-0.256,1.939,0.075c0.156,0.083,0.331,0.048,0.503,0.048c0.204-0.004,0.229-0.108,0.214-0.267
		c-0.036-0.409-0.256-0.694-0.598-0.899c-0.23-0.14-0.484-0.221-0.744-0.291c-0.222-0.056-0.328-0.162-0.146-0.4
		c0.255-0.335,0.509-0.665,0.809-0.96c0.618-0.618,0.543-1.817-0.161-2.33c-0.377-0.278-0.823-0.399-1.283-0.466
		c-0.072-0.014-0.148,0.008-0.225,0.01c-0.113,0.007-0.221,0.189-0.307,0.093c-0.128-0.151-0.205-0.348-0.283-0.538
		c-0.057-0.13,0.065-0.128,0.146-0.132c0.655-0.05,1.204-0.356,1.727-0.724c0.402-0.283,0.78-0.207,1.021,0.227
		c0.317,0.567,0.368,1.208,0.371,1.841c0.015,2.309-0.015,4.617-0.122,6.924c-0.046,0.944-0.113,1.887-0.308,2.813
		c-0.03,0.147-0.065,0.244-0.245,0.275c-1.14,0.203-2.285,0.356-3.484,0.46c0.069-0.158,0.158-0.263,0.152-0.372
		c-0.021-0.445,0.262-0.561,0.619-0.62c0.073-0.009,0.148-0.034,0.211-0.071c0.449-0.271,0.953-0.402,1.434-0.594
		c0.668-0.264,0.9-0.737,0.783-1.453c-0.122-0.743-0.951-1.704-1.969-1.69c-0.107,0-0.219-0.006-0.309,0.063
		c-0.127,0.097-0.289,0.103-0.395,0.042C74.501,29.526,74.612,29.363,74.61,29.243z M73.415,26.131
		c-0.133,0.455-0.232,0.904-0.188,1.376c0.01,0.115-0.05,0.182-0.138,0.23c-0.229,0.134-0.461,0.264-0.739,0.424
		C72.251,27.2,72.86,26.683,73.415,26.131z M71.625,31.307c-0.101-0.191-0.127-0.484,0.052-0.703
		c0.353-0.433,0.809-0.743,1.246-1.067c0.286,0.81-0.142,1.236-0.752,1.565c-0.017,0.014-0.033,0.027-0.053,0.039
		C71.956,31.226,71.684,31.419,71.625,31.307z M71.775,33.189c0.061-0.216,0.153-0.422,0.271-0.616
		c0.285-0.468,0.627-0.89,1.059-1.354c0,0.73-0.004,1.37,0.004,2.012c0.002,0.163-0.057,0.211-0.209,0.179
		c-0.308-0.066-0.619-0.063-0.927,0.003C71.763,33.457,71.727,33.36,71.775,33.189z"/>
	<path d="M80.693,43.619c0.511,0.186,0.921,0.02,0.98-0.436c0.062-0.464,0.192-0.927,0.157-1.345
		c0.002-1.342-0.524-2.189-1.685-2.732c-1.421-0.661-2.938-0.96-4.479-1.167c-0.281-0.039-0.568-0.138-0.853,0
		c-0.056,0.026-0.134,0.03-0.136,0.11c-0.002,0.077,0.074,0.103,0.128,0.126c0.996,0.46,1.67,1.291,2.354,2.089
		c0.699,0.815,1.348,1.671,2.137,2.403C79.715,43.054,80.148,43.419,80.693,43.619z"/>
	<path d="M93.699,26.598c0.4-0.058,0.809-0.088,1.195-0.22c1.323-0.454,2.637-0.929,4.016-1.212
		c0.282-0.059,0.356-0.277,0.356-0.555c-0.008-0.046-0.016-0.108-0.022-0.171c-0.124-0.911-1.215-2.479-2.738-2.64
		c-0.389-0.041-0.768,0.015-1.15-0.019c-0.256-0.024-0.494-0.125-0.721-0.249c-0.111-0.056-0.25-0.073-0.34-0.008
		c-0.099,0.078,0.008,0.194,0.038,0.291c0.022,0.082,0.048,0.163,0.07,0.244c0.207,0.725,0.396,1.449,1.185,1.807
		c0.174,0.079,0.271,0.304,0.104,0.492c-0.511,0.579-1.029,1.152-1.642,1.629c-0.166,0.127-0.352,0.22-0.471,0.406
		c-0.033,0.046-0.1,0.101-0.056,0.167C93.559,26.621,93.637,26.606,93.699,26.598z"/>
	<path d="M71.216,57.267c0-2.059-0.614-3.9-1.841-5.521c-1.228-1.619-2.617-2.43-4.164-2.43c-1.646,0-3.089,0.795-4.334,2.391
		c-1.244,1.595-1.866,3.519-1.866,5.779c0,1.879,0.592,3.643,1.778,5.293c1.186,1.652,2.627,2.479,4.325,2.479
		c1.607,0,3.025-0.803,4.256-2.404C70.601,61.251,71.216,59.39,71.216,57.267z M66.959,64.099c-0.63,0.383-1.258,0.576-1.886,0.576
		c-1.024,0-1.778-0.316-2.258-0.955c-0.479-0.635-0.777-1.436-0.895-2.406c-0.119-0.971-0.176-2.27-0.176-3.896
		c0-2.357,0.103-4.008,0.307-4.953c0.207-0.949,0.595-1.613,1.167-1.997c0.572-0.382,1.216-0.574,1.935-0.574
		c0.692,0,1.301,0.182,1.827,0.542c0.527,0.358,0.907,0.944,1.146,1.752c0.238,0.812,0.358,2.285,0.358,4.41
		c0,2.35-0.097,4.09-0.289,5.221C68.001,62.952,67.59,63.71,66.959,64.099z"/>
	<path d="M80.243,65.257c1.089,0,2.151-0.496,3.183-1.49c0.319,0.336,0.556,0.744,0.706,1.227h0.402l0.156-4.648h-0.461
		c-0.379,1.518-0.914,2.619-1.602,3.305c-0.688,0.686-1.425,1.025-2.21,1.025c-0.6,0-1.151-0.189-1.649-0.572
		c-0.5-0.383-0.852-1.018-1.054-1.902c-0.202-0.887-0.304-2.561-0.304-5.021c0-2.992,0.235-4.957,0.707-5.885
		c0.469-0.934,1.217-1.4,2.242-1.4c1.906,0,3.088,1.374,3.546,4.124h0.421v-4.521h-0.421c-0.131,0.358-0.323,0.769-0.578,1.239
		c-0.867-0.947-1.872-1.419-3.008-1.419c-1.475,0-2.775,0.78-3.897,2.345c-1.123,1.565-1.684,3.469-1.684,5.721
		c0,2.205,0.57,4.064,1.713,5.59C77.596,64.495,78.858,65.257,80.243,65.257z"/>
	<polygon points="96.049,50.245 98.096,50.245 98.096,56.755 92.424,56.755 92.424,50.245 94.512,50.245 94.512,49.668 
		88.025,49.668 88.025,50.245 90.093,50.245 90.093,64.323 88.025,64.323 88.025,64.903 94.512,64.903 94.512,64.323 92.424,64.323 
		92.424,57.337 98.096,57.337 98.096,64.323 96.049,64.323 96.049,64.903 102.494,64.903 102.494,64.323 100.425,64.323 
		100.425,50.245 102.494,50.245 102.494,49.668 96.049,49.668 	"/>
	<polygon points="110.759,50.245 112.822,50.245 112.822,49.668 106.368,49.668 106.368,50.245 108.426,50.245 108.426,64.323 
		106.368,64.323 106.368,64.903 112.822,64.903 112.822,64.323 110.759,64.323 	"/>
	<polygon points="117.171,50.245 119.182,50.245 119.182,49.668 114.225,49.668 114.225,50.245 116.459,50.245 110.982,56.804 
		116.271,64.323 114.007,64.323 114.007,64.903 120.463,64.903 120.463,64.323 119.182,64.323 112.822,55.429 	"/>
	<path d="M118.124,8.849H61.623L44.161,62.587L89.873,95.8l45.711-33.213L118.124,8.849z M134.198,62.134L89.873,94.341
		L45.55,62.134l16.93-52.104h54.786L134.198,62.134z"/>
	<path d="M101.596,73.519c-0.617-0.594-1.352-0.963-2.194-1.111c-0.133-0.025-0.266-0.035-0.396-0.051
		c-0.023-0.002-0.044-0.006-0.066-0.01c-0.16,0-0.313,0-0.474,0c-0.017,0.004-0.033,0.01-0.049,0.01
		c-0.383,0.025-0.756,0.102-1.116,0.234c-1.151,0.432-1.97,1.213-2.448,2.348c-0.076,0.178-0.131,0.367-0.19,0.543
		c0.333,0.066,0.651,0.135,0.97,0.197c0.05-0.135,0.098-0.287,0.162-0.432c0.491-1.064,1.317-1.703,2.475-1.879
		c0.826-0.125,1.584,0.072,2.269,0.555c1.045,0.736,1.544,2.037,1.257,3.285c-0.372,1.639-1.969,2.721-3.621,2.424
		c-1.104-0.195-1.889-0.824-2.367-1.838c-0.027-0.053-0.058-0.088-0.109-0.111c-0.229-0.119-0.471-0.209-0.723-0.254
		c-0.108-0.02-0.221-0.029-0.338-0.047c0.004,0.029,0.008,0.043,0.01,0.055c0.207,0.871,0.64,1.611,1.315,2.195
		c0.989,0.854,2.138,1.18,3.428,0.979c0.898-0.145,1.665-0.557,2.301-1.209c0.635-0.656,1.012-1.438,1.136-2.346
		c0.013-0.107,0.026-0.213,0.04-0.324c0-0.15,0-0.301,0-0.445c-0.018-0.146-0.031-0.291-0.058-0.436
		C102.661,74.94,102.255,74.161,101.596,73.519z"/>
	<path d="M80.675,79.655c-0.91-0.113-1.645-0.539-2.186-1.275c-0.539-0.727-0.725-1.555-0.564-2.447
		c0.246-1.381,1.41-2.459,2.8-2.58c0.984-0.088,1.858,0.191,2.562,0.895c0.875,0.873,1.152,1.926,0.836,3.123
		c-0.191,0.723-0.617,1.291-1.217,1.729c-0.023,0.018-0.047,0.043-0.054,0.064c-0.083,0.266-0.122,0.537-0.118,0.811
		c0.002,0.107,0.016,0.213,0.022,0.32c0.026-0.01,0.035-0.012,0.044-0.018c0.779-0.365,1.389-0.918,1.826-1.658
		c0.497-0.84,0.676-1.75,0.534-2.717c-0.146-0.979-0.589-1.803-1.321-2.471c-0.609-0.557-1.322-0.898-2.137-1.029
		c-0.143-0.023-0.29-0.037-0.436-0.055c-0.14,0-0.279,0-0.42,0c-0.135,0.018-0.271,0.031-0.406,0.053
		c-0.807,0.117-1.518,0.445-2.133,0.98c-0.628,0.547-1.06,1.229-1.275,2.035c-0.066,0.25-0.094,0.514-0.139,0.771
		c-0.002,0.016-0.006,0.037-0.011,0.057c0,0.17,0,0.342,0,0.514c0.022,0.172,0.038,0.342,0.07,0.508
		c0.169,0.908,0.596,1.676,1.273,2.301c0.69,0.637,1.509,0.994,2.446,1.084c0.076,0.008,0.154,0.012,0.222,0.014
		c0-0.334,0-0.656,0-0.982c0.001,0.002-0.003-0.004-0.005-0.004C80.817,79.669,80.745,79.665,80.675,79.655z"/>
	<path d="M97.344,80.937c-0.08,0.287-0.195,0.555-0.35,0.805c-0.59,0.932-1.44,1.449-2.541,1.52
		c-0.868,0.055-1.643-0.219-2.282-0.807c-0.843-0.771-1.185-1.738-1.016-2.865c0.133-0.861,0.577-1.549,1.281-2.072
		c0.026-0.023,0.054-0.057,0.062-0.09c0.043-0.213,0.09-0.426,0.115-0.645c0.021-0.16,0.004-0.326,0.004-0.494
		c-0.02,0.008-0.034,0.012-0.05,0.018c-0.558,0.262-1.046,0.611-1.44,1.086c-0.841,1.004-1.156,2.158-0.936,3.445
		c0.156,0.91,0.59,1.68,1.268,2.309c0.617,0.574,1.34,0.928,2.174,1.057c0.131,0.021,0.264,0.035,0.395,0.051
		c0.171,0,0.344,0,0.515,0c0.021-0.004,0.04-0.008,0.059-0.01c0.203-0.029,0.41-0.045,0.607-0.096
		c1.456-0.363,2.452-1.254,2.993-2.656c0.056-0.135,0.088-0.275,0.129-0.406c-0.332-0.061-0.65-0.121-0.975-0.18
		C97.355,80.909,97.346,80.923,97.344,80.937z"/>
	<path d="M88.522,80.923c-0.052,0.139-0.09,0.283-0.152,0.42c-0.538,1.168-1.452,1.822-2.733,1.914
		c-0.856,0.068-1.625-0.205-2.265-0.779c-0.863-0.773-1.216-1.752-1.041-2.898c0.133-0.857,0.578-1.543,1.275-2.059
		c0.026-0.023,0.053-0.055,0.062-0.086c0.085-0.285,0.132-0.58,0.135-0.879c0.002-0.086-0.006-0.178-0.007-0.266
		c-0.018,0.004-0.022,0.004-0.026,0.006c-0.064,0.029-0.131,0.059-0.193,0.094c-0.753,0.387-1.341,0.945-1.755,1.686
		c-0.451,0.813-0.613,1.688-0.482,2.609c0.119,0.832,0.464,1.57,1.033,2.193c0.657,0.729,1.47,1.17,2.438,1.324
		c0.129,0.021,0.256,0.035,0.382,0.051c0.176,0,0.353,0,0.528,0c0.066-0.008,0.133-0.016,0.199-0.021
		c0.657-0.074,1.265-0.291,1.814-0.658c0.889-0.59,1.474-1.402,1.751-2.434c0.007-0.023,0.009-0.045,0.011-0.059
		c-0.326-0.057-0.645-0.117-0.967-0.176C88.529,80.903,88.524,80.911,88.522,80.923z"/>
	<path d="M93.044,76.903c-0.106,0.918-0.565,1.648-1.31,2.191c-0.027,0.021-0.053,0.059-0.061,0.092
		c-0.102,0.314-0.125,0.637-0.104,0.963c0.003,0.045,0.011,0.09,0.017,0.139c0.01,0,0.018,0,0.02,0
		c0.015-0.006,0.028-0.014,0.043-0.021c0.853-0.41,1.5-1.033,1.933-1.877c0.423-0.826,0.547-1.705,0.384-2.613
		c-0.16-0.916-0.59-1.693-1.273-2.322c-0.613-0.568-1.339-0.922-2.164-1.055c-0.148-0.021-0.293-0.035-0.438-0.053
		c-0.134,0-0.27,0-0.405,0c-0.133,0.014-0.269,0.025-0.402,0.045c-1.55,0.227-2.829,1.285-3.343,2.762
		c-0.039,0.111-0.07,0.227-0.101,0.33c0.33,0.066,0.647,0.133,0.972,0.197c0.003-0.006,0.009-0.021,0.014-0.039
		c0.096-0.346,0.244-0.666,0.454-0.953c0.603-0.828,1.417-1.287,2.438-1.346c0.754-0.045,1.449,0.154,2.054,0.607
		C92.748,74.69,93.183,75.687,93.044,76.903z"/>
	<path d="M87.052,77.958c-0.057-0.223-0.223-0.322-0.424-0.389c-0.018-0.004-0.035-0.012-0.05-0.02
		c-0.247-0.092-0.5-0.15-0.771-0.162c0.41,1.957,2.188,3.258,3.915,3.27c0-0.324,0-0.65,0-0.975
		c-0.128-0.016-0.265-0.025-0.397-0.053C88.305,79.431,87.546,78.874,87.052,77.958z"/>
	<path d="M86.188,77.013c0.995,0.25,1.714,0.844,2.158,1.771c0.017,0.037,0.043,0.076,0.074,0.094
		c0.24,0.129,0.496,0.232,0.761,0.299c0.11,0.023,0.224,0.041,0.351,0.068c-0.225-0.99-0.717-1.791-1.495-2.412
		c-0.713-0.568-1.532-0.857-2.431-0.896c0.008,0.334,0.015,0.656,0.023,0.988c0.008,0,0.03,0.004,0.051,0.006
		C85.851,76.958,86.022,76.97,86.188,77.013z"/>
	<path d="M94.455,76.923c0.092,0.012,0.199,0.02,0.299,0.037c1.128,0.195,1.937,0.814,2.43,1.848
		c0.012,0.029,0.035,0.055,0.062,0.07c0.264,0.145,0.543,0.248,0.833,0.313c0.09,0.023,0.181,0.033,0.275,0.051
		c-0.38-1.852-2.027-3.254-3.922-3.301C94.441,76.271,94.449,76.595,94.455,76.923z"/>
</g>
</svg>
